<svg width="23" height="23" viewBox="0 0 23 23" fill="none" xmlns="http://www.w3.org/2000/svg">
<path d="M10.1526 19.9645H3.65255C2.62184 19.9645 1.79541 19.1288 1.79541 18.1074L1.8047 5.10735C1.8047 4.08592 2.62184 3.25021 3.65255 3.25021H4.58112V1.39307H6.43827V3.25021H13.8668V1.39307H15.724V3.25021H16.6526C17.674 3.25021 18.5097 4.08592 18.5097 5.10735V10.6788H16.6526V8.82164H3.65255V18.1074H10.1526V19.9645ZM19.559 15.3124L20.2183 14.6531C20.5804 14.2909 20.5804 13.7059 20.2183 13.3438L19.559 12.6845C19.1968 12.3224 18.6118 12.3224 18.2497 12.6845L17.5904 13.3438L19.559 15.3124ZM18.8997 15.9716L13.9783 20.8931H12.0097V18.9245L16.9311 14.0031L18.8997 15.9716Z" fill="currentColor"/>
</svg>
