<svg viewBox="0 0 28 28" fill="none" xmlns="http://www.w3.org/2000/svg">
<path d="M14.0002 2.3335C7.56016 2.3335 2.3335 7.56016 2.3335 14.0002C2.3335 20.4402 7.56016 25.6668 14.0002 25.6668C20.4402 25.6668 25.6668 20.4402 25.6668 14.0002C25.6668 7.56016 20.4402 2.3335 14.0002 2.3335ZM14.0002 23.3335C8.85516 23.3335 4.66683 19.1452 4.66683 14.0002C4.66683 8.85516 8.85516 4.66683 14.0002 4.66683C19.1452 4.66683 23.3335 8.85516 23.3335 14.0002C23.3335 19.1452 19.1452 23.3335 14.0002 23.3335ZM18.8652 17.2202L17.5818 15.9368C18.4102 14.3852 18.2002 12.4252 16.8935 11.1185C16.0885 10.3135 15.0502 9.91683 14.0002 9.91683C13.9652 9.91683 13.9302 9.9285 13.8952 9.9285L15.1668 11.2002L13.9302 12.4368L10.6285 9.13516L13.9302 5.8335L15.1668 7.07016L14.0468 8.19016C15.5285 8.20183 16.9985 8.75016 18.1302 9.87016C20.1135 11.8652 20.3585 14.9568 18.8652 17.2202ZM17.3718 18.8652L14.0702 22.1668L12.8335 20.9302L13.9418 19.8218C12.4718 19.8102 11.0018 19.2385 9.88183 18.1185C7.88683 16.1235 7.64183 13.0435 9.13516 10.7802L10.4185 12.0635C9.59016 13.6152 9.80016 15.5752 11.1068 16.8818C11.9235 17.6985 13.0085 18.0952 14.0935 18.0602L12.8335 16.8002L14.0702 15.5635L17.3718 18.8652Z" fill="currentColor"/>
</svg>
