<svg width="1328" height="286" viewBox="0 0 1328 286" fill="none" xmlns="http://www.w3.org/2000/svg">
<g clip-path="url(#clip0_4930_57397)">
<rect width="1328" height="286" fill="#292B33"/>
<g opacity="0.1">
<g clip-path="url(#clip1_4930_57397)">
<path fill-rule="evenodd" clip-rule="evenodd" d="M-131.03 -24.5781H-105.735V-16.1992H-131.03V-24.5781ZM-72.0075 -13.4062H-46.7123V-5.02734H-72.0075V-13.4062ZM-42.4964 -24.5781H-17.2012V-16.1992H-42.4964V-24.5781ZM-12.9853 -24.5781H12.3099V-16.1992H-12.9853V-24.5781ZM-12.9853 -13.4062H12.3099V-5.02734H-12.9853V-13.4062ZM-42.4964 -13.4062H-17.2012V-5.02734H-42.4964V-13.4062ZM-42.4964 8.9375H-17.2012V17.3164H-42.4964V8.9375ZM-12.9853 -2.23437H12.3099V6.14453H-12.9853V-2.23437ZM16.5258 -2.23437H41.821V6.14453H16.5258V-2.23437ZM16.5258 -24.5781H41.821V-16.1992H16.5258V-24.5781ZM-72.0075 20.1094H-46.7123V28.4883H-72.0075V20.1094ZM-101.519 -2.23437H-76.2234V6.14453H-101.519V-2.23437ZM-131.03 8.9375H-105.735V17.3164H-131.03V8.9375ZM-131.03 20.1094H-105.735V28.4883H-131.03V20.1094ZM-101.519 20.1094H-76.2234V28.4883H-101.519V20.1094ZM-72.0075 31.2813H-46.7123V39.6602H-72.0075V31.2813ZM-101.519 31.2813H-76.2234V39.6602H-101.519V31.2813ZM-42.4964 31.2813H-17.2012V39.6602H-42.4964V31.2813ZM-12.9853 20.1094H12.3099V28.4883H-12.9853V20.1094ZM-12.9853 8.9375H12.3099V17.3164H-12.9853V8.9375ZM16.5258 20.1094H41.821V28.4883H16.5258V20.1094ZM16.5258 31.2813H41.821V39.6602H16.5258V31.2813ZM-101.519 8.9375H-76.2234V17.3164H-101.519V8.9375ZM-72.0075 -2.23437H-46.7123V6.14453H-72.0075V-2.23437ZM-101.519 -13.4062H-76.2234V-5.02734H-101.519V-13.4062ZM-131.03 -13.4062H-105.735V-5.02734H-131.03V-13.4062Z" fill="#6B6F80"/>
</g>
<g clip-path="url(#clip2_4930_57397)">
<path fill-rule="evenodd" clip-rule="evenodd" d="M46.0374 -24.5781H71.3327V-16.1992H46.0374V-24.5781ZM105.06 -13.4062H130.355V-5.02734H105.06V-13.4062ZM134.571 -24.5781H159.866V-16.1992H134.571V-24.5781ZM164.082 -24.5781H189.377V-16.1992H164.082V-24.5781ZM164.082 -13.4062H189.377V-5.02734H164.082V-13.4062ZM134.571 -13.4062H159.866V-5.02734H134.571V-13.4062ZM134.571 8.9375H159.866V17.3164H134.571V8.9375ZM164.082 -2.23437H189.377V6.14453H164.082V-2.23437ZM193.593 -2.23437H218.888V6.14453H193.593V-2.23437ZM193.593 -24.5781H218.888V-16.1992H193.593V-24.5781ZM105.06 20.1094H130.355V28.4883H105.06V20.1094ZM75.5485 -2.23437H100.844V6.14453H75.5485V-2.23437ZM46.0374 8.9375H71.3327V17.3164H46.0374V8.9375ZM46.0374 20.1094H71.3327V28.4883H46.0374V20.1094ZM75.5485 20.1094H100.844V28.4883H75.5485V20.1094ZM105.06 31.2813H130.355V39.6602H105.06V31.2813ZM75.5485 31.2813H100.844V39.6602H75.5485V31.2813ZM134.571 31.2813H159.866V39.6602H134.571V31.2813ZM164.082 20.1094H189.377V28.4883H164.082V20.1094ZM164.082 8.9375H189.377V17.3164H164.082V8.9375ZM193.593 20.1094H218.888V28.4883H193.593V20.1094ZM193.593 31.2813H218.888V39.6602H193.593V31.2813ZM75.5485 8.9375H100.844V17.3164H75.5485V8.9375ZM105.06 -2.23437H130.355V6.14453H105.06V-2.23437ZM75.5485 -13.4062H100.844V-5.02734H75.5485V-13.4062ZM46.0374 -13.4062H71.3327V-5.02734H46.0374V-13.4062Z" fill="#6B6F80"/>
</g>
<g clip-path="url(#clip3_4930_57397)">
<path fill-rule="evenodd" clip-rule="evenodd" d="M223.103 -24.5781H248.399V-16.1992H223.103V-24.5781ZM282.126 -13.4062H307.421V-5.02734H282.126V-13.4062ZM311.637 -24.5781H336.932V-16.1992H311.637V-24.5781ZM341.148 -24.5781H366.443V-16.1992H341.148V-24.5781ZM341.148 -13.4062H366.443V-5.02734H341.148V-13.4062ZM311.637 -13.4062H336.932V-5.02734H311.637V-13.4062ZM311.637 8.9375H336.932V17.3164H311.637V8.9375ZM341.148 -2.23437H366.443V6.14453H341.148V-2.23437ZM370.659 -2.23437H395.954V6.14453H370.659V-2.23437ZM370.659 -24.5781H395.954V-16.1992H370.659V-24.5781ZM282.126 20.1094H307.421V28.4883H282.126V20.1094ZM252.614 -2.23437H277.91V6.14453H252.614V-2.23437ZM223.103 8.9375H248.399V17.3164H223.103V8.9375ZM223.103 20.1094H248.399V28.4883H223.103V20.1094ZM252.614 20.1094H277.91V28.4883H252.614V20.1094ZM282.126 31.2813H307.421V39.6602H282.126V31.2813ZM252.614 31.2813H277.91V39.6602H252.614V31.2813ZM311.637 31.2813H336.932V39.6602H311.637V31.2813ZM341.148 20.1094H366.443V28.4883H341.148V20.1094ZM341.148 8.9375H366.443V17.3164H341.148V8.9375ZM370.659 20.1094H395.954V28.4883H370.659V20.1094ZM370.659 31.2813H395.954V39.6602H370.659V31.2813ZM252.614 8.9375H277.91V17.3164H252.614V8.9375ZM282.126 -2.23437H307.421V6.14453H282.126V-2.23437ZM252.614 -13.4062H277.91V-5.02734H252.614V-13.4062ZM223.103 -13.4062H248.399V-5.02734H223.103V-13.4062Z" fill="#6B6F80"/>
</g>
<g clip-path="url(#clip4_4930_57397)">
<path fill-rule="evenodd" clip-rule="evenodd" d="M-131.03 42.4521H-105.735V50.8311H-131.03V42.4521ZM-72.0075 53.624H-46.7123V62.0029H-72.0075V53.624ZM-42.4964 42.4521H-17.2012V50.8311H-42.4964V42.4521ZM-12.9853 42.4521H12.3099V50.8311H-12.9853V42.4521ZM-12.9853 53.624H12.3099V62.0029H-12.9853V53.624ZM-42.4964 53.624H-17.2012V62.0029H-42.4964V53.624ZM-42.4964 75.9678H-17.2012V84.3467H-42.4964V75.9678ZM-12.9853 64.7959H12.3099V73.1748H-12.9853V64.7959ZM16.5258 64.7959H41.821V73.1748H16.5258V64.7959ZM16.5258 42.4521H41.821V50.8311H16.5258V42.4521ZM-72.0075 87.1397H-46.7123V95.5186H-72.0075V87.1397ZM-101.519 64.7959H-76.2234V73.1748H-101.519V64.7959ZM-131.03 75.9678H-105.735V84.3467H-131.03V75.9678ZM-131.03 87.1397H-105.735V95.5186H-131.03V87.1397ZM-101.519 87.1397H-76.2234V95.5186H-101.519V87.1397ZM-72.0075 98.3115H-46.7123V106.69H-72.0075V98.3115ZM-101.519 98.3115H-76.2234V106.69H-101.519V98.3115ZM-42.4964 98.3115H-17.2012V106.69H-42.4964V98.3115ZM-12.9853 87.1397H12.3099V95.5186H-12.9853V87.1397ZM-12.9853 75.9678H12.3099V84.3467H-12.9853V75.9678ZM16.5258 87.1397H41.821V95.5186H16.5258V87.1397ZM16.5258 98.3115H41.821V106.69H16.5258V98.3115ZM-101.519 75.9678H-76.2234V84.3467H-101.519V75.9678ZM-72.0075 64.7959H-46.7123V73.1748H-72.0075V64.7959ZM-101.519 53.624H-76.2234V62.0029H-101.519V53.624ZM-131.03 53.624H-105.735V62.0029H-131.03V53.624Z" fill="#6B6F80"/>
</g>
<g clip-path="url(#clip5_4930_57397)">
<path fill-rule="evenodd" clip-rule="evenodd" d="M46.0369 42.4521H71.3322V50.8311H46.0369V42.4521ZM105.059 53.624H130.354V62.0029H105.059V53.624ZM134.57 42.4521H159.865V50.8311H134.57V42.4521ZM164.081 42.4521H189.377V50.8311H164.081V42.4521ZM164.081 53.624H189.377V62.0029H164.081V53.624ZM134.57 53.624H159.865V62.0029H134.57V53.624ZM134.57 75.9678H159.865V84.3467H134.57V75.9678ZM164.081 64.7959H189.377V73.1748H164.081V64.7959ZM193.592 64.7959H218.888V73.1748H193.592V64.7959ZM193.592 42.4521H218.888V50.8311H193.592V42.4521ZM105.059 87.1397H130.354V95.5186H105.059V87.1397ZM75.548 64.7959H100.843V73.1748H75.548V64.7959ZM46.0369 75.9678H71.3322V84.3467H46.0369V75.9678ZM46.0369 87.1397H71.3322V95.5186H46.0369V87.1397ZM75.548 87.1397H100.843V95.5186H75.548V87.1397ZM105.059 98.3115H130.354V106.69H105.059V98.3115ZM75.548 98.3115H100.843V106.69H75.548V98.3115ZM134.57 98.3115H159.865V106.69H134.57V98.3115ZM164.081 87.1397H189.377V95.5186H164.081V87.1397ZM164.081 75.9678H189.377V84.3467H164.081V75.9678ZM193.592 87.1397H218.888V95.5186H193.592V87.1397ZM193.592 98.3115H218.888V106.69H193.592V98.3115ZM75.548 75.9678H100.843V84.3467H75.548V75.9678ZM105.059 64.7959H130.354V73.1748H105.059V64.7959ZM75.548 53.624H100.843V62.0029H75.548V53.624ZM46.0369 53.624H71.3322V62.0029H46.0369V53.624Z" fill="#6B6F80"/>
</g>
<g clip-path="url(#clip6_4930_57397)">
<path fill-rule="evenodd" clip-rule="evenodd" d="M223.104 42.4521H248.399V50.8311H223.104V42.4521ZM282.126 53.624H307.421V62.0029H282.126V53.624ZM311.637 42.4521H336.932V50.8311H311.637V42.4521ZM341.148 42.4521H366.443V50.8311H341.148V42.4521ZM341.148 53.624H366.443V62.0029H341.148V53.624ZM311.637 53.624H336.932V62.0029H311.637V53.624ZM311.637 75.9678H336.932V84.3467H311.637V75.9678ZM341.148 64.7959H366.443V73.1748H341.148V64.7959ZM370.659 64.7959H395.954V73.1748H370.659V64.7959ZM370.659 42.4521H395.954V50.8311H370.659V42.4521ZM282.126 87.1397H307.421V95.5186H282.126V87.1397ZM252.615 64.7959H277.91V73.1748H252.615V64.7959ZM223.104 75.9678H248.399V84.3467H223.104V75.9678ZM223.104 87.1397H248.399V95.5186H223.104V87.1397ZM252.615 87.1397H277.91V95.5186H252.615V87.1397ZM282.126 98.3115H307.421V106.69H282.126V98.3115ZM252.615 98.3115H277.91V106.69H252.615V98.3115ZM311.637 98.3115H336.932V106.69H311.637V98.3115ZM341.148 87.1397H366.443V95.5186H341.148V87.1397ZM341.148 75.9678H366.443V84.3467H341.148V75.9678ZM370.659 87.1397H395.954V95.5186H370.659V87.1397ZM370.659 98.3115H395.954V106.69H370.659V98.3115ZM252.615 75.9678H277.91V84.3467H252.615V75.9678ZM282.126 64.7959H307.421V73.1748H282.126V64.7959ZM252.615 53.624H277.91V62.0029H252.615V53.624ZM223.104 53.624H248.399V62.0029H223.104V53.624Z" fill="#6B6F80"/>
</g>
<g clip-path="url(#clip7_4930_57397)">
<path fill-rule="evenodd" clip-rule="evenodd" d="M-131.03 109.482H-105.735V117.861H-131.03V109.482ZM-72.0075 120.654H-46.7123V129.033H-72.0075V120.654ZM-42.4964 109.482H-17.2012V117.861H-42.4964V109.482ZM-12.9853 109.482H12.3099V117.861H-12.9853V109.482ZM-12.9853 120.654H12.3099V129.033H-12.9853V120.654ZM-42.4964 120.654H-17.2012V129.033H-42.4964V120.654ZM-42.4964 142.998H-17.2012V151.377H-42.4964V142.998ZM-12.9853 131.826H12.3099V140.205H-12.9853V131.826ZM16.5258 131.826H41.821V140.205H16.5258V131.826ZM16.5258 109.482H41.821V117.861H16.5258V109.482ZM-72.0075 154.17H-46.7123V162.549H-72.0075V154.17ZM-101.519 131.826H-76.2234V140.205H-101.519V131.826ZM-131.03 142.998H-105.735V151.377H-131.03V142.998ZM-131.03 154.17H-105.735V162.549H-131.03V154.17ZM-101.519 154.17H-76.2234V162.549H-101.519V154.17ZM-72.0075 165.342H-46.7123V173.721H-72.0075V165.342ZM-101.519 165.342H-76.2234V173.721H-101.519V165.342ZM-42.4964 165.342H-17.2012V173.721H-42.4964V165.342ZM-12.9853 154.17H12.3099V162.549H-12.9853V154.17ZM-12.9853 142.998H12.3099V151.377H-12.9853V142.998ZM16.5258 154.17H41.821V162.549H16.5258V154.17ZM16.5258 165.342H41.821V173.721H16.5258V165.342ZM-101.519 142.998H-76.2234V151.377H-101.519V142.998ZM-72.0075 131.826H-46.7123V140.205H-72.0075V131.826ZM-101.519 120.654H-76.2234V129.033H-101.519V120.654ZM-131.03 120.654H-105.735V129.033H-131.03V120.654Z" fill="#6B6F80"/>
</g>
<g clip-path="url(#clip8_4930_57397)">
<path fill-rule="evenodd" clip-rule="evenodd" d="M46.0369 109.483H71.3322V117.862H46.0369V109.483ZM105.059 120.655H130.354V129.034H105.059V120.655ZM134.57 109.483H159.865V117.862H134.57V109.483ZM164.081 109.483H189.377V117.862H164.081V109.483ZM164.081 120.655H189.377V129.034H164.081V120.655ZM134.57 120.655H159.865V129.034H134.57V120.655ZM134.57 142.999H159.865V151.377H134.57V142.999ZM164.081 131.827H189.377V140.206H164.081V131.827ZM193.592 131.827H218.888V140.206H193.592V131.827ZM193.592 109.483H218.888V117.862H193.592V109.483ZM105.059 154.17H130.354V162.549H105.059V154.17ZM75.548 131.827H100.843V140.206H75.548V131.827ZM46.0369 142.999H71.3322V151.377H46.0369V142.999ZM46.0369 154.17H71.3322V162.549H46.0369V154.17ZM75.548 154.17H100.843V162.549H75.548V154.17ZM105.059 165.342H130.354V173.721H105.059V165.342ZM75.548 165.342H100.843V173.721H75.548V165.342ZM134.57 165.342H159.865V173.721H134.57V165.342ZM164.081 154.17H189.377V162.549H164.081V154.17ZM164.081 142.999H189.377V151.377H164.081V142.999ZM193.592 154.17H218.888V162.549H193.592V154.17ZM193.592 165.342H218.888V173.721H193.592V165.342ZM75.548 142.999H100.843V151.377H75.548V142.999ZM105.059 131.827H130.354V140.206H105.059V131.827ZM75.548 120.655H100.843V129.034H75.548V120.655ZM46.0369 120.655H71.3322V129.034H46.0369V120.655Z" fill="#6B6F80"/>
</g>
<g clip-path="url(#clip9_4930_57397)">
<path fill-rule="evenodd" clip-rule="evenodd" d="M223.104 109.483H248.399V117.862H223.104V109.483ZM282.126 120.655H307.421V129.034H282.126V120.655ZM311.637 109.483H336.932V117.862H311.637V109.483ZM341.148 109.483H366.443V117.862H341.148V109.483ZM341.148 120.655H366.443V129.034H341.148V120.655ZM311.637 120.655H336.932V129.034H311.637V120.655ZM311.637 142.999H336.932V151.377H311.637V142.999ZM341.148 131.827H366.443V140.206H341.148V131.827ZM370.659 131.827H395.954V140.206H370.659V131.827ZM370.659 109.483H395.954V117.862H370.659V109.483ZM282.126 154.17H307.421V162.549H282.126V154.17ZM252.615 131.827H277.91V140.206H252.615V131.827ZM223.104 142.999H248.399V151.377H223.104V142.999ZM223.104 154.17H248.399V162.549H223.104V154.17ZM252.615 154.17H277.91V162.549H252.615V154.17ZM282.126 165.342H307.421V173.721H282.126V165.342ZM252.615 165.342H277.91V173.721H252.615V165.342ZM311.637 165.342H336.932V173.721H311.637V165.342ZM341.148 154.17H366.443V162.549H341.148V154.17ZM341.148 142.999H366.443V151.377H341.148V142.999ZM370.659 154.17H395.954V162.549H370.659V154.17ZM370.659 165.342H395.954V173.721H370.659V165.342ZM252.615 142.999H277.91V151.377H252.615V142.999ZM282.126 131.827H307.421V140.206H282.126V131.827ZM252.615 120.655H277.91V129.034H252.615V120.655ZM223.104 120.655H248.399V129.034H223.104V120.655Z" fill="#6B6F80"/>
</g>
<g clip-path="url(#clip10_4930_57397)">
<path fill-rule="evenodd" clip-rule="evenodd" d="M-131.03 176.515H-105.735V184.894H-131.03V176.515ZM-72.0075 187.687H-46.7123V196.065H-72.0075V187.687ZM-42.4964 176.515H-17.2012V184.894H-42.4964V176.515ZM-12.9853 176.515H12.3099V184.894H-12.9853V176.515ZM-12.9853 187.687H12.3099V196.065H-12.9853V187.687ZM-42.4964 187.687H-17.2012V196.065H-42.4964V187.687ZM-42.4964 210.03H-17.2012V218.409H-42.4964V210.03ZM-12.9853 198.858H12.3099V207.237H-12.9853V198.858ZM16.5258 198.858H41.821V207.237H16.5258V198.858ZM16.5258 176.515H41.821V184.894H16.5258V176.515ZM-72.0075 221.202H-46.7123V229.581H-72.0075V221.202ZM-101.519 198.858H-76.2234V207.237H-101.519V198.858ZM-131.03 210.03H-105.735V218.409H-131.03V210.03ZM-131.03 221.202H-105.735V229.581H-131.03V221.202ZM-101.519 221.202H-76.2234V229.581H-101.519V221.202ZM-72.0075 232.374H-46.7123V240.753H-72.0075V232.374ZM-101.519 232.374H-76.2234V240.753H-101.519V232.374ZM-42.4964 232.374H-17.2012V240.753H-42.4964V232.374ZM-12.9853 221.202H12.3099V229.581H-12.9853V221.202ZM-12.9853 210.03H12.3099V218.409H-12.9853V210.03ZM16.5258 221.202H41.821V229.581H16.5258V221.202ZM16.5258 232.374H41.821V240.753H16.5258V232.374ZM-101.519 210.03H-76.2234V218.409H-101.519V210.03ZM-72.0075 198.858H-46.7123V207.237H-72.0075V198.858ZM-101.519 187.687H-76.2234V196.065H-101.519V187.687ZM-131.03 187.687H-105.735V196.065H-131.03V187.687Z" fill="#6B6F80"/>
</g>
<g clip-path="url(#clip11_4930_57397)">
<path fill-rule="evenodd" clip-rule="evenodd" d="M46.0374 176.515H71.3327V184.894H46.0374V176.515ZM105.06 187.687H130.355V196.066H105.06V187.687ZM134.571 176.515H159.866V184.894H134.571V176.515ZM164.082 176.515H189.377V184.894H164.082V176.515ZM164.082 187.687H189.377V196.066H164.082V187.687ZM134.571 187.687H159.866V196.066H134.571V187.687ZM134.571 210.031H159.866V218.41H134.571V210.031ZM164.082 198.859H189.377V207.238H164.082V198.859ZM193.593 198.859H218.888V207.238H193.593V198.859ZM193.593 176.515H218.888V184.894H193.593V176.515ZM105.06 221.203H130.355V229.582H105.06V221.203ZM75.5485 198.859H100.844V207.238H75.5485V198.859ZM46.0374 210.031H71.3327V218.41H46.0374V210.031ZM46.0374 221.203H71.3327V229.582H46.0374V221.203ZM75.5485 221.203H100.844V229.582H75.5485V221.203ZM105.06 232.375H130.355V240.753H105.06V232.375ZM75.5485 232.375H100.844V240.753H75.5485V232.375ZM134.571 232.375H159.866V240.753H134.571V232.375ZM164.082 221.203H189.377V229.582H164.082V221.203ZM164.082 210.031H189.377V218.41H164.082V210.031ZM193.593 221.203H218.888V229.582H193.593V221.203ZM193.593 232.375H218.888V240.753H193.593V232.375ZM75.5485 210.031H100.844V218.41H75.5485V210.031ZM105.06 198.859H130.355V207.238H105.06V198.859ZM75.5485 187.687H100.844V196.066H75.5485V187.687ZM46.0374 187.687H71.3327V196.066H46.0374V187.687Z" fill="#6B6F80"/>
</g>
<g clip-path="url(#clip12_4930_57397)">
<path fill-rule="evenodd" clip-rule="evenodd" d="M223.103 176.515H248.399V184.894H223.103V176.515ZM282.126 187.687H307.421V196.066H282.126V187.687ZM311.637 176.515H336.932V184.894H311.637V176.515ZM341.148 176.515H366.443V184.894H341.148V176.515ZM341.148 187.687H366.443V196.066H341.148V187.687ZM311.637 187.687H336.932V196.066H311.637V187.687ZM311.637 210.031H336.932V218.41H311.637V210.031ZM341.148 198.859H366.443V207.238H341.148V198.859ZM370.659 198.859H395.954V207.238H370.659V198.859ZM370.659 176.515H395.954V184.894H370.659V176.515ZM282.126 221.203H307.421V229.582H282.126V221.203ZM252.614 198.859H277.91V207.238H252.614V198.859ZM223.103 210.031H248.399V218.41H223.103V210.031ZM223.103 221.203H248.399V229.582H223.103V221.203ZM252.614 221.203H277.91V229.582H252.614V221.203ZM282.126 232.375H307.421V240.753H282.126V232.375ZM252.614 232.375H277.91V240.753H252.614V232.375ZM311.637 232.375H336.932V240.753H311.637V232.375ZM341.148 221.203H366.443V229.582H341.148V221.203ZM341.148 210.031H366.443V218.41H341.148V210.031ZM370.659 221.203H395.954V229.582H370.659V221.203ZM370.659 232.375H395.954V240.753H370.659V232.375ZM252.614 210.031H277.91V218.41H252.614V210.031ZM282.126 198.859H307.421V207.238H282.126V198.859ZM252.614 187.687H277.91V196.066H252.614V187.687ZM223.103 187.687H248.399V196.066H223.103V187.687Z" fill="#6B6F80"/>
</g>
<g clip-path="url(#clip13_4930_57397)">
<path fill-rule="evenodd" clip-rule="evenodd" d="M-131.03 243.547H-105.735V251.926H-131.03V243.547ZM-72.0075 254.719H-46.7123V263.098H-72.0075V254.719ZM-42.4964 243.547H-17.2012V251.926H-42.4964V243.547ZM-12.9853 243.547H12.3099V251.926H-12.9853V243.547ZM-12.9853 254.719H12.3099V263.098H-12.9853V254.719ZM-42.4964 254.719H-17.2012V263.098H-42.4964V254.719ZM-42.4964 277.063H-17.2012V285.442H-42.4964V277.063ZM-12.9853 265.891H12.3099V274.27H-12.9853V265.891ZM16.5258 265.891H41.821V274.27H16.5258V265.891ZM16.5258 243.547H41.821V251.926H16.5258V243.547ZM-72.0075 288.235H-46.7123V296.614H-72.0075V288.235ZM-101.519 265.891H-76.2234V274.27H-101.519V265.891ZM-131.03 277.063H-105.735V285.442H-131.03V277.063ZM-131.03 288.235H-105.735V296.614H-131.03V288.235ZM-101.519 288.235H-76.2234V296.614H-101.519V288.235ZM-72.0075 299.407H-46.7123V307.786H-72.0075V299.407ZM-101.519 299.407H-76.2234V307.786H-101.519V299.407ZM-42.4964 299.407H-17.2012V307.786H-42.4964V299.407ZM-12.9853 288.235H12.3099V296.614H-12.9853V288.235ZM-12.9853 277.063H12.3099V285.442H-12.9853V277.063ZM16.5258 288.235H41.821V296.614H16.5258V288.235ZM16.5258 299.407H41.821V307.786H16.5258V299.407ZM-101.519 277.063H-76.2234V285.442H-101.519V277.063ZM-72.0075 265.891H-46.7123V274.27H-72.0075V265.891ZM-101.519 254.719H-76.2234V263.098H-101.519V254.719ZM-131.03 254.719H-105.735V263.098H-131.03V254.719Z" fill="#6B6F80"/>
</g>
<g clip-path="url(#clip14_4930_57397)">
<path fill-rule="evenodd" clip-rule="evenodd" d="M46.0369 243.547H71.3322V251.926H46.0369V243.547ZM105.059 254.719H130.354V263.098H105.059V254.719ZM134.57 243.547H159.865V251.926H134.57V243.547ZM164.081 243.547H189.377V251.926H164.081V243.547ZM164.081 254.719H189.377V263.098H164.081V254.719ZM134.57 254.719H159.865V263.098H134.57V254.719ZM134.57 277.063H159.865V285.442H134.57V277.063ZM164.081 265.891H189.377V274.27H164.081V265.891ZM193.592 265.891H218.888V274.27H193.592V265.891ZM193.592 243.547H218.888V251.926H193.592V243.547ZM105.059 288.235H130.354V296.614H105.059V288.235ZM75.548 265.891H100.843V274.27H75.548V265.891ZM46.0369 277.063H71.3322V285.442H46.0369V277.063ZM46.0369 288.235H71.3322V296.614H46.0369V288.235ZM75.548 288.235H100.843V296.614H75.548V288.235ZM105.059 299.407H130.354V307.786H105.059V299.407ZM75.548 299.407H100.843V307.786H75.548V299.407ZM134.57 299.407H159.865V307.786H134.57V299.407ZM164.081 288.235H189.377V296.614H164.081V288.235ZM164.081 277.063H189.377V285.442H164.081V277.063ZM193.592 288.235H218.888V296.614H193.592V288.235ZM193.592 299.407H218.888V307.786H193.592V299.407ZM75.548 277.063H100.843V285.442H75.548V277.063ZM105.059 265.891H130.354V274.27H105.059V265.891ZM75.548 254.719H100.843V263.098H75.548V254.719ZM46.0369 254.719H71.3322V263.098H46.0369V254.719Z" fill="#6B6F80"/>
</g>
<g clip-path="url(#clip15_4930_57397)">
<path fill-rule="evenodd" clip-rule="evenodd" d="M223.104 243.547H248.399V251.926H223.104V243.547ZM282.126 254.719H307.421V263.098H282.126V254.719ZM311.637 243.547H336.932V251.926H311.637V243.547ZM341.148 243.547H366.443V251.926H341.148V243.547ZM341.148 254.719H366.443V263.098H341.148V254.719ZM311.637 254.719H336.932V263.098H311.637V254.719ZM311.637 277.063H336.932V285.442H311.637V277.063ZM341.148 265.891H366.443V274.27H341.148V265.891ZM370.659 265.891H395.954V274.27H370.659V265.891ZM370.659 243.547H395.954V251.926H370.659V243.547ZM282.126 288.235H307.421V296.614H282.126V288.235ZM252.615 265.891H277.91V274.27H252.615V265.891ZM223.104 277.063H248.399V285.442H223.104V277.063ZM223.104 288.235H248.399V296.614H223.104V288.235ZM252.615 288.235H277.91V296.614H252.615V288.235ZM282.126 299.407H307.421V307.786H282.126V299.407ZM252.615 299.407H277.91V307.786H252.615V299.407ZM311.637 299.407H336.932V307.786H311.637V299.407ZM341.148 288.235H366.443V296.614H341.148V288.235ZM341.148 277.063H366.443V285.442H341.148V277.063ZM370.659 288.235H395.954V296.614H370.659V288.235ZM370.659 299.407H395.954V307.786H370.659V299.407ZM252.615 277.063H277.91V285.442H252.615V277.063ZM282.126 265.891H307.421V274.27H282.126V265.891ZM252.615 254.719H277.91V263.098H252.615V254.719ZM223.104 254.719H248.399V263.098H223.104V254.719Z" fill="#6B6F80"/>
</g>
<g clip-path="url(#clip16_4930_57397)">
<path fill-rule="evenodd" clip-rule="evenodd" d="M400.17 -24.5781H425.465V-16.1992H400.17V-24.5781ZM459.192 -13.4062H484.488V-5.02734H459.192V-13.4062ZM488.703 -24.5781H513.999V-16.1992H488.703V-24.5781ZM518.215 -24.5781H543.51V-16.1992H518.215V-24.5781ZM518.215 -13.4062H543.51V-5.02734H518.215V-13.4062ZM488.703 -13.4062H513.999V-5.02734H488.703V-13.4062ZM488.703 8.9375H513.999V17.3164H488.703V8.9375ZM518.215 -2.23437H543.51V6.14453H518.215V-2.23437ZM547.726 -2.23437H573.021V6.14453H547.726V-2.23437ZM547.726 -24.5781H573.021V-16.1992H547.726V-24.5781ZM459.192 20.1094H484.488V28.4883H459.192V20.1094ZM429.681 -2.23437H454.977V6.14453H429.681V-2.23437ZM400.17 8.9375H425.465V17.3164H400.17V8.9375ZM400.17 20.1094H425.465V28.4883H400.17V20.1094ZM429.681 20.1094H454.977V28.4883H429.681V20.1094ZM459.192 31.2813H484.488V39.6602H459.192V31.2813ZM429.681 31.2813H454.977V39.6602H429.681V31.2813ZM488.703 31.2813H513.999V39.6602H488.703V31.2813ZM518.215 20.1094H543.51V28.4883H518.215V20.1094ZM518.215 8.9375H543.51V17.3164H518.215V8.9375ZM547.726 20.1094H573.021V28.4883H547.726V20.1094ZM547.726 31.2813H573.021V39.6602H547.726V31.2813ZM429.681 8.9375H454.977V17.3164H429.681V8.9375ZM459.192 -2.23437H484.488V6.14453H459.192V-2.23437ZM429.681 -13.4062H454.977V-5.02734H429.681V-13.4062ZM400.17 -13.4062H425.465V-5.02734H400.17V-13.4062Z" fill="#6B6F80"/>
</g>
<g clip-path="url(#clip17_4930_57397)">
<path fill-rule="evenodd" clip-rule="evenodd" d="M577.237 -24.5781H602.533V-16.1992H577.237V-24.5781ZM636.26 -13.4062H661.555V-5.02734H636.26V-13.4062ZM665.771 -24.5781H691.066V-16.1992H665.771V-24.5781ZM695.282 -24.5781H720.577V-16.1992H695.282V-24.5781ZM695.282 -13.4062H720.577V-5.02734H695.282V-13.4062ZM665.771 -13.4062H691.066V-5.02734H665.771V-13.4062ZM665.771 8.9375H691.066V17.3164H665.771V8.9375ZM695.282 -2.23437H720.577V6.14453H695.282V-2.23437ZM724.793 -2.23437H750.088V6.14453H724.793V-2.23437ZM724.793 -24.5781H750.088V-16.1992H724.793V-24.5781ZM636.26 20.1094H661.555V28.4883H636.26V20.1094ZM606.748 -2.23437H632.044V6.14453H606.748V-2.23437ZM577.237 8.9375H602.533V17.3164H577.237V8.9375ZM577.237 20.1094H602.533V28.4883H577.237V20.1094ZM606.748 20.1094H632.044V28.4883H606.748V20.1094ZM636.26 31.2813H661.555V39.6602H636.26V31.2813ZM606.748 31.2813H632.044V39.6602H606.748V31.2813ZM665.771 31.2813H691.066V39.6602H665.771V31.2813ZM695.282 20.1094H720.577V28.4883H695.282V20.1094ZM695.282 8.9375H720.577V17.3164H695.282V8.9375ZM724.793 20.1094H750.088V28.4883H724.793V20.1094ZM724.793 31.2813H750.088V39.6602H724.793V31.2813ZM606.748 8.9375H632.044V17.3164H606.748V8.9375ZM636.26 -2.23437H661.555V6.14453H636.26V-2.23437ZM606.748 -13.4062H632.044V-5.02734H606.748V-13.4062ZM577.237 -13.4062H602.533V-5.02734H577.237V-13.4062Z" fill="#6B6F80"/>
</g>
<g clip-path="url(#clip18_4930_57397)">
<path fill-rule="evenodd" clip-rule="evenodd" d="M754.303 -24.5781H779.598V-16.1992H754.303V-24.5781ZM813.325 -13.4062H838.621V-5.02734H813.325V-13.4062ZM842.837 -24.5781H868.132V-16.1992H842.837V-24.5781ZM872.348 -24.5781H897.643V-16.1992H872.348V-24.5781ZM872.348 -13.4062H897.643V-5.02734H872.348V-13.4062ZM842.837 -13.4062H868.132V-5.02734H842.837V-13.4062ZM842.837 8.9375H868.132V17.3164H842.837V8.9375ZM872.348 -2.23437H897.643V6.14453H872.348V-2.23437ZM901.859 -2.23437H927.154V6.14453H901.859V-2.23437ZM901.859 -24.5781H927.154V-16.1992H901.859V-24.5781ZM813.325 20.1094H838.621V28.4883H813.325V20.1094ZM783.814 -2.23437H809.11V6.14453H783.814V-2.23437ZM754.303 8.9375H779.598V17.3164H754.303V8.9375ZM754.303 20.1094H779.598V28.4883H754.303V20.1094ZM783.814 20.1094H809.11V28.4883H783.814V20.1094ZM813.325 31.2813H838.621V39.6602H813.325V31.2813ZM783.814 31.2813H809.11V39.6602H783.814V31.2813ZM842.837 31.2813H868.132V39.6602H842.837V31.2813ZM872.348 20.1094H897.643V28.4883H872.348V20.1094ZM872.348 8.9375H897.643V17.3164H872.348V8.9375ZM901.859 20.1094H927.154V28.4883H901.859V20.1094ZM901.859 31.2813H927.154V39.6602H901.859V31.2813ZM783.814 8.9375H809.11V17.3164H783.814V8.9375ZM813.325 -2.23437H838.621V6.14453H813.325V-2.23437ZM783.814 -13.4062H809.11V-5.02734H783.814V-13.4062ZM754.303 -13.4062H779.598V-5.02734H754.303V-13.4062Z" fill="#6B6F80"/>
</g>
<g clip-path="url(#clip19_4930_57397)">
<path fill-rule="evenodd" clip-rule="evenodd" d="M400.17 42.4521H425.465V50.8311H400.17V42.4521ZM459.192 53.624H484.488V62.0029H459.192V53.624ZM488.703 42.4521H513.999V50.8311H488.703V42.4521ZM518.215 42.4521H543.51V50.8311H518.215V42.4521ZM518.215 53.624H543.51V62.0029H518.215V53.624ZM488.703 53.624H513.999V62.0029H488.703V53.624ZM488.703 75.9678H513.999V84.3467H488.703V75.9678ZM518.215 64.7959H543.51V73.1748H518.215V64.7959ZM547.726 64.7959H573.021V73.1748H547.726V64.7959ZM547.726 42.4521H573.021V50.8311H547.726V42.4521ZM459.192 87.1397H484.488V95.5186H459.192V87.1397ZM429.681 64.7959H454.977V73.1748H429.681V64.7959ZM400.17 75.9678H425.465V84.3467H400.17V75.9678ZM400.17 87.1397H425.465V95.5186H400.17V87.1397ZM429.681 87.1397H454.977V95.5186H429.681V87.1397ZM459.192 98.3115H484.488V106.69H459.192V98.3115ZM429.681 98.3115H454.977V106.69H429.681V98.3115ZM488.703 98.3115H513.999V106.69H488.703V98.3115ZM518.215 87.1397H543.51V95.5186H518.215V87.1397ZM518.215 75.9678H543.51V84.3467H518.215V75.9678ZM547.726 87.1397H573.021V95.5186H547.726V87.1397ZM547.726 98.3115H573.021V106.69H547.726V98.3115ZM429.681 75.9678H454.977V84.3467H429.681V75.9678ZM459.192 64.7959H484.488V73.1748H459.192V64.7959ZM429.681 53.624H454.977V62.0029H429.681V53.624ZM400.17 53.624H425.465V62.0029H400.17V53.624Z" fill="#6B6F80"/>
</g>
<g clip-path="url(#clip20_4930_57397)">
<path fill-rule="evenodd" clip-rule="evenodd" d="M577.237 42.4521H602.532V50.8311H577.237V42.4521ZM636.259 53.624H661.554V62.0029H636.259V53.624ZM665.77 42.4521H691.065V50.8311H665.77V42.4521ZM695.281 42.4521H720.576V50.8311H695.281V42.4521ZM695.281 53.624H720.576V62.0029H695.281V53.624ZM665.77 53.624H691.065V62.0029H665.77V53.624ZM665.77 75.9678H691.065V84.3467H665.77V75.9678ZM695.281 64.7959H720.576V73.1748H695.281V64.7959ZM724.792 64.7959H750.088V73.1748H724.792V64.7959ZM724.792 42.4521H750.088V50.8311H724.792V42.4521ZM636.259 87.1397H661.554V95.5186H636.259V87.1397ZM606.748 64.7959H632.043V73.1748H606.748V64.7959ZM577.237 75.9678H602.532V84.3467H577.237V75.9678ZM577.237 87.1397H602.532V95.5186H577.237V87.1397ZM606.748 87.1397H632.043V95.5186H606.748V87.1397ZM636.259 98.3115H661.554V106.69H636.259V98.3115ZM606.748 98.3115H632.043V106.69H606.748V98.3115ZM665.77 98.3115H691.065V106.69H665.77V98.3115ZM695.281 87.1397H720.576V95.5186H695.281V87.1397ZM695.281 75.9678H720.576V84.3467H695.281V75.9678ZM724.792 87.1397H750.088V95.5186H724.792V87.1397ZM724.792 98.3115H750.088V106.69H724.792V98.3115ZM606.748 75.9678H632.043V84.3467H606.748V75.9678ZM636.259 64.7959H661.554V73.1748H636.259V64.7959ZM606.748 53.624H632.043V62.0029H606.748V53.624ZM577.237 53.624H602.532V62.0029H577.237V53.624Z" fill="#6B6F80"/>
</g>
<g clip-path="url(#clip21_4930_57397)">
<path fill-rule="evenodd" clip-rule="evenodd" d="M754.303 42.4521H779.599V50.8311H754.303V42.4521ZM813.326 53.624H838.621V62.0029H813.326V53.624ZM842.837 42.4521H868.132V50.8311H842.837V42.4521ZM872.348 42.4521H897.643V50.8311H872.348V42.4521ZM872.348 53.624H897.643V62.0029H872.348V53.624ZM842.837 53.624H868.132V62.0029H842.837V53.624ZM842.837 75.9678H868.132V84.3467H842.837V75.9678ZM872.348 64.7959H897.643V73.1748H872.348V64.7959ZM901.859 64.7959H927.154V73.1748H901.859V64.7959ZM901.859 42.4521H927.154V50.8311H901.859V42.4521ZM813.326 87.1397H838.621V95.5186H813.326V87.1397ZM783.815 64.7959H809.11V73.1748H783.815V64.7959ZM754.303 75.9678H779.599V84.3467H754.303V75.9678ZM754.303 87.1397H779.599V95.5186H754.303V87.1397ZM783.815 87.1397H809.11V95.5186H783.815V87.1397ZM813.326 98.3115H838.621V106.69H813.326V98.3115ZM783.815 98.3115H809.11V106.69H783.815V98.3115ZM842.837 98.3115H868.132V106.69H842.837V98.3115ZM872.348 87.1397H897.643V95.5186H872.348V87.1397ZM872.348 75.9678H897.643V84.3467H872.348V75.9678ZM901.859 87.1397H927.154V95.5186H901.859V87.1397ZM901.859 98.3115H927.154V106.69H901.859V98.3115ZM783.815 75.9678H809.11V84.3467H783.815V75.9678ZM813.326 64.7959H838.621V73.1748H813.326V64.7959ZM783.815 53.624H809.11V62.0029H783.815V53.624ZM754.303 53.624H779.599V62.0029H754.303V53.624Z" fill="#6B6F80"/>
</g>
<g clip-path="url(#clip22_4930_57397)">
<path fill-rule="evenodd" clip-rule="evenodd" d="M400.17 109.482H425.465V117.861H400.17V109.482ZM459.192 120.654H484.488V129.033H459.192V120.654ZM488.703 109.482H513.999V117.861H488.703V109.482ZM518.215 109.482H543.51V117.861H518.215V109.482ZM518.215 120.654H543.51V129.033H518.215V120.654ZM488.703 120.654H513.999V129.033H488.703V120.654ZM488.703 142.998H513.999V151.377H488.703V142.998ZM518.215 131.826H543.51V140.205H518.215V131.826ZM547.726 131.826H573.021V140.205H547.726V131.826ZM547.726 109.482H573.021V117.861H547.726V109.482ZM459.192 154.17H484.488V162.549H459.192V154.17ZM429.681 131.826H454.977V140.205H429.681V131.826ZM400.17 142.998H425.465V151.377H400.17V142.998ZM400.17 154.17H425.465V162.549H400.17V154.17ZM429.681 154.17H454.977V162.549H429.681V154.17ZM459.192 165.342H484.488V173.721H459.192V165.342ZM429.681 165.342H454.977V173.721H429.681V165.342ZM488.703 165.342H513.999V173.721H488.703V165.342ZM518.215 154.17H543.51V162.549H518.215V154.17ZM518.215 142.998H543.51V151.377H518.215V142.998ZM547.726 154.17H573.021V162.549H547.726V154.17ZM547.726 165.342H573.021V173.721H547.726V165.342ZM429.681 142.998H454.977V151.377H429.681V142.998ZM459.192 131.826H484.488V140.205H459.192V131.826ZM429.681 120.654H454.977V129.033H429.681V120.654ZM400.17 120.654H425.465V129.033H400.17V120.654Z" fill="#6B6F80"/>
</g>
<g clip-path="url(#clip23_4930_57397)">
<path fill-rule="evenodd" clip-rule="evenodd" d="M577.237 109.483H602.532V117.862H577.237V109.483ZM636.259 120.655H661.554V129.034H636.259V120.655ZM665.77 109.483H691.065V117.862H665.77V109.483ZM695.281 109.483H720.576V117.862H695.281V109.483ZM695.281 120.655H720.576V129.034H695.281V120.655ZM665.77 120.655H691.065V129.034H665.77V120.655ZM665.77 142.999H691.065V151.377H665.77V142.999ZM695.281 131.827H720.576V140.206H695.281V131.827ZM724.792 131.827H750.088V140.206H724.792V131.827ZM724.792 109.483H750.088V117.862H724.792V109.483ZM636.259 154.17H661.554V162.549H636.259V154.17ZM606.748 131.827H632.043V140.206H606.748V131.827ZM577.237 142.999H602.532V151.377H577.237V142.999ZM577.237 154.17H602.532V162.549H577.237V154.17ZM606.748 154.17H632.043V162.549H606.748V154.17ZM636.259 165.342H661.554V173.721H636.259V165.342ZM606.748 165.342H632.043V173.721H606.748V165.342ZM665.77 165.342H691.065V173.721H665.77V165.342ZM695.281 154.17H720.576V162.549H695.281V154.17ZM695.281 142.999H720.576V151.377H695.281V142.999ZM724.792 154.17H750.088V162.549H724.792V154.17ZM724.792 165.342H750.088V173.721H724.792V165.342ZM606.748 142.999H632.043V151.377H606.748V142.999ZM636.259 131.827H661.554V140.206H636.259V131.827ZM606.748 120.655H632.043V129.034H606.748V120.655ZM577.237 120.655H602.532V129.034H577.237V120.655Z" fill="#6B6F80"/>
</g>
<g clip-path="url(#clip24_4930_57397)">
<path fill-rule="evenodd" clip-rule="evenodd" d="M754.303 109.483H779.599V117.862H754.303V109.483ZM813.326 120.655H838.621V129.034H813.326V120.655ZM842.837 109.483H868.132V117.862H842.837V109.483ZM872.348 109.483H897.643V117.862H872.348V109.483ZM872.348 120.655H897.643V129.034H872.348V120.655ZM842.837 120.655H868.132V129.034H842.837V120.655ZM842.837 142.999H868.132V151.377H842.837V142.999ZM872.348 131.827H897.643V140.206H872.348V131.827ZM901.859 131.827H927.154V140.206H901.859V131.827ZM901.859 109.483H927.154V117.862H901.859V109.483ZM813.326 154.17H838.621V162.549H813.326V154.17ZM783.815 131.827H809.11V140.206H783.815V131.827ZM754.303 142.999H779.599V151.377H754.303V142.999ZM754.303 154.17H779.599V162.549H754.303V154.17ZM783.815 154.17H809.11V162.549H783.815V154.17ZM813.326 165.342H838.621V173.721H813.326V165.342ZM783.815 165.342H809.11V173.721H783.815V165.342ZM842.837 165.342H868.132V173.721H842.837V165.342ZM872.348 154.17H897.643V162.549H872.348V154.17ZM872.348 142.999H897.643V151.377H872.348V142.999ZM901.859 154.17H927.154V162.549H901.859V154.17ZM901.859 165.342H927.154V173.721H901.859V165.342ZM783.815 142.999H809.11V151.377H783.815V142.999ZM813.326 131.827H838.621V140.206H813.326V131.827ZM783.815 120.655H809.11V129.034H783.815V120.655ZM754.303 120.655H779.599V129.034H754.303V120.655Z" fill="#6B6F80"/>
</g>
<g clip-path="url(#clip25_4930_57397)">
<path fill-rule="evenodd" clip-rule="evenodd" d="M400.17 176.515H425.465V184.894H400.17V176.515ZM459.192 187.687H484.488V196.065H459.192V187.687ZM488.703 176.515H513.999V184.894H488.703V176.515ZM518.215 176.515H543.51V184.894H518.215V176.515ZM518.215 187.687H543.51V196.065H518.215V187.687ZM488.703 187.687H513.999V196.065H488.703V187.687ZM488.703 210.03H513.999V218.409H488.703V210.03ZM518.215 198.858H543.51V207.237H518.215V198.858ZM547.726 198.858H573.021V207.237H547.726V198.858ZM547.726 176.515H573.021V184.894H547.726V176.515ZM459.192 221.202H484.488V229.581H459.192V221.202ZM429.681 198.858H454.977V207.237H429.681V198.858ZM400.17 210.03H425.465V218.409H400.17V210.03ZM400.17 221.202H425.465V229.581H400.17V221.202ZM429.681 221.202H454.977V229.581H429.681V221.202ZM459.192 232.374H484.488V240.753H459.192V232.374ZM429.681 232.374H454.977V240.753H429.681V232.374ZM488.703 232.374H513.999V240.753H488.703V232.374ZM518.215 221.202H543.51V229.581H518.215V221.202ZM518.215 210.03H543.51V218.409H518.215V210.03ZM547.726 221.202H573.021V229.581H547.726V221.202ZM547.726 232.374H573.021V240.753H547.726V232.374ZM429.681 210.03H454.977V218.409H429.681V210.03ZM459.192 198.858H484.488V207.237H459.192V198.858ZM429.681 187.687H454.977V196.065H429.681V187.687ZM400.17 187.687H425.465V196.065H400.17V187.687Z" fill="#6B6F80"/>
</g>
<g clip-path="url(#clip26_4930_57397)">
<path fill-rule="evenodd" clip-rule="evenodd" d="M577.237 176.515H602.533V184.894H577.237V176.515ZM636.26 187.687H661.555V196.066H636.26V187.687ZM665.771 176.515H691.066V184.894H665.771V176.515ZM695.282 176.515H720.577V184.894H695.282V176.515ZM695.282 187.687H720.577V196.066H695.282V187.687ZM665.771 187.687H691.066V196.066H665.771V187.687ZM665.771 210.031H691.066V218.41H665.771V210.031ZM695.282 198.859H720.577V207.238H695.282V198.859ZM724.793 198.859H750.088V207.238H724.793V198.859ZM724.793 176.515H750.088V184.894H724.793V176.515ZM636.26 221.203H661.555V229.582H636.26V221.203ZM606.748 198.859H632.044V207.238H606.748V198.859ZM577.237 210.031H602.533V218.41H577.237V210.031ZM577.237 221.203H602.533V229.582H577.237V221.203ZM606.748 221.203H632.044V229.582H606.748V221.203ZM636.26 232.375H661.555V240.753H636.26V232.375ZM606.748 232.375H632.044V240.753H606.748V232.375ZM665.771 232.375H691.066V240.753H665.771V232.375ZM695.282 221.203H720.577V229.582H695.282V221.203ZM695.282 210.031H720.577V218.41H695.282V210.031ZM724.793 221.203H750.088V229.582H724.793V221.203ZM724.793 232.375H750.088V240.753H724.793V232.375ZM606.748 210.031H632.044V218.41H606.748V210.031ZM636.26 198.859H661.555V207.238H636.26V198.859ZM606.748 187.687H632.044V196.066H606.748V187.687ZM577.237 187.687H602.533V196.066H577.237V187.687Z" fill="#6B6F80"/>
</g>
<g clip-path="url(#clip27_4930_57397)">
<path fill-rule="evenodd" clip-rule="evenodd" d="M754.303 176.515H779.598V184.894H754.303V176.515ZM813.325 187.687H838.621V196.066H813.325V187.687ZM842.837 176.515H868.132V184.894H842.837V176.515ZM872.348 176.515H897.643V184.894H872.348V176.515ZM872.348 187.687H897.643V196.066H872.348V187.687ZM842.837 187.687H868.132V196.066H842.837V187.687ZM842.837 210.031H868.132V218.41H842.837V210.031ZM872.348 198.859H897.643V207.238H872.348V198.859ZM901.859 198.859H927.154V207.238H901.859V198.859ZM901.859 176.515H927.154V184.894H901.859V176.515ZM813.325 221.203H838.621V229.582H813.325V221.203ZM783.814 198.859H809.11V207.238H783.814V198.859ZM754.303 210.031H779.598V218.41H754.303V210.031ZM754.303 221.203H779.598V229.582H754.303V221.203ZM783.814 221.203H809.11V229.582H783.814V221.203ZM813.325 232.375H838.621V240.753H813.325V232.375ZM783.814 232.375H809.11V240.753H783.814V232.375ZM842.837 232.375H868.132V240.753H842.837V232.375ZM872.348 221.203H897.643V229.582H872.348V221.203ZM872.348 210.031H897.643V218.41H872.348V210.031ZM901.859 221.203H927.154V229.582H901.859V221.203ZM901.859 232.375H927.154V240.753H901.859V232.375ZM783.814 210.031H809.11V218.41H783.814V210.031ZM813.325 198.859H838.621V207.238H813.325V198.859ZM783.814 187.687H809.11V196.066H783.814V187.687ZM754.303 187.687H779.598V196.066H754.303V187.687Z" fill="#6B6F80"/>
</g>
<g clip-path="url(#clip28_4930_57397)">
<path fill-rule="evenodd" clip-rule="evenodd" d="M400.17 243.547H425.465V251.926H400.17V243.547ZM459.192 254.719H484.488V263.098H459.192V254.719ZM488.703 243.547H513.999V251.926H488.703V243.547ZM518.215 243.547H543.51V251.926H518.215V243.547ZM518.215 254.719H543.51V263.098H518.215V254.719ZM488.703 254.719H513.999V263.098H488.703V254.719ZM488.703 277.063H513.999V285.442H488.703V277.063ZM518.215 265.891H543.51V274.27H518.215V265.891ZM547.726 265.891H573.021V274.27H547.726V265.891ZM547.726 243.547H573.021V251.926H547.726V243.547ZM459.192 288.235H484.488V296.614H459.192V288.235ZM429.681 265.891H454.977V274.27H429.681V265.891ZM400.17 277.063H425.465V285.442H400.17V277.063ZM400.17 288.235H425.465V296.614H400.17V288.235ZM429.681 288.235H454.977V296.614H429.681V288.235ZM459.192 299.407H484.488V307.786H459.192V299.407ZM429.681 299.407H454.977V307.786H429.681V299.407ZM488.703 299.407H513.999V307.786H488.703V299.407ZM518.215 288.235H543.51V296.614H518.215V288.235ZM518.215 277.063H543.51V285.442H518.215V277.063ZM547.726 288.235H573.021V296.614H547.726V288.235ZM547.726 299.407H573.021V307.786H547.726V299.407ZM429.681 277.063H454.977V285.442H429.681V277.063ZM459.192 265.891H484.488V274.27H459.192V265.891ZM429.681 254.719H454.977V263.098H429.681V254.719ZM400.17 254.719H425.465V263.098H400.17V254.719Z" fill="#6B6F80"/>
</g>
<g clip-path="url(#clip29_4930_57397)">
<path fill-rule="evenodd" clip-rule="evenodd" d="M577.237 243.547H602.532V251.926H577.237V243.547ZM636.259 254.719H661.554V263.098H636.259V254.719ZM665.77 243.547H691.065V251.926H665.77V243.547ZM695.281 243.547H720.576V251.926H695.281V243.547ZM695.281 254.719H720.576V263.098H695.281V254.719ZM665.77 254.719H691.065V263.098H665.77V254.719ZM665.77 277.063H691.065V285.442H665.77V277.063ZM695.281 265.891H720.576V274.27H695.281V265.891ZM724.792 265.891H750.088V274.27H724.792V265.891ZM724.792 243.547H750.088V251.926H724.792V243.547ZM636.259 288.235H661.554V296.614H636.259V288.235ZM606.748 265.891H632.043V274.27H606.748V265.891ZM577.237 277.063H602.532V285.442H577.237V277.063ZM577.237 288.235H602.532V296.614H577.237V288.235ZM606.748 288.235H632.043V296.614H606.748V288.235ZM636.259 299.407H661.554V307.786H636.259V299.407ZM606.748 299.407H632.043V307.786H606.748V299.407ZM665.77 299.407H691.065V307.786H665.77V299.407ZM695.281 288.235H720.576V296.614H695.281V288.235ZM695.281 277.063H720.576V285.442H695.281V277.063ZM724.792 288.235H750.088V296.614H724.792V288.235ZM724.792 299.407H750.088V307.786H724.792V299.407ZM606.748 277.063H632.043V285.442H606.748V277.063ZM636.259 265.891H661.554V274.27H636.259V265.891ZM606.748 254.719H632.043V263.098H606.748V254.719ZM577.237 254.719H602.532V263.098H577.237V254.719Z" fill="#6B6F80"/>
</g>
<g clip-path="url(#clip30_4930_57397)">
<path fill-rule="evenodd" clip-rule="evenodd" d="M754.303 243.547H779.599V251.926H754.303V243.547ZM813.326 254.719H838.621V263.098H813.326V254.719ZM842.837 243.547H868.132V251.926H842.837V243.547ZM872.348 243.547H897.643V251.926H872.348V243.547ZM872.348 254.719H897.643V263.098H872.348V254.719ZM842.837 254.719H868.132V263.098H842.837V254.719ZM842.837 277.063H868.132V285.442H842.837V277.063ZM872.348 265.891H897.643V274.27H872.348V265.891ZM901.859 265.891H927.154V274.27H901.859V265.891ZM901.859 243.547H927.154V251.926H901.859V243.547ZM813.326 288.235H838.621V296.614H813.326V288.235ZM783.815 265.891H809.11V274.27H783.815V265.891ZM754.303 277.063H779.599V285.442H754.303V277.063ZM754.303 288.235H779.599V296.614H754.303V288.235ZM783.815 288.235H809.11V296.614H783.815V288.235ZM813.326 299.407H838.621V307.786H813.326V299.407ZM783.815 299.407H809.11V307.786H783.815V299.407ZM842.837 299.407H868.132V307.786H842.837V299.407ZM872.348 288.235H897.643V296.614H872.348V288.235ZM872.348 277.063H897.643V285.442H872.348V277.063ZM901.859 288.235H927.154V296.614H901.859V288.235ZM901.859 299.407H927.154V307.786H901.859V299.407ZM783.815 277.063H809.11V285.442H783.815V277.063ZM813.326 265.891H838.621V274.27H813.326V265.891ZM783.815 254.719H809.11V263.098H783.815V254.719ZM754.303 254.719H779.599V263.098H754.303V254.719Z" fill="#6B6F80"/>
</g>
<g clip-path="url(#clip31_4930_57397)">
<path fill-rule="evenodd" clip-rule="evenodd" d="M931.37 -24.5781H956.665V-16.1992H931.37V-24.5781ZM990.392 -13.4062H1015.69V-5.02734H990.392V-13.4062ZM1019.9 -24.5781H1045.2V-16.1992H1019.9V-24.5781ZM1049.41 -24.5781H1074.71V-16.1992H1049.41V-24.5781ZM1049.41 -13.4062H1074.71V-5.02734H1049.41V-13.4062ZM1019.9 -13.4062H1045.2V-5.02734H1019.9V-13.4062ZM1019.9 8.9375H1045.2V17.3164H1019.9V8.9375ZM1049.41 -2.23437H1074.71V6.14453H1049.41V-2.23437ZM1078.93 -2.23437H1104.22V6.14453H1078.93V-2.23437ZM1078.93 -24.5781H1104.22V-16.1992H1078.93V-24.5781ZM990.392 20.1094H1015.69V28.4883H990.392V20.1094ZM960.881 -2.23437H986.176V6.14453H960.881V-2.23437ZM931.37 8.9375H956.665V17.3164H931.37V8.9375ZM931.37 20.1094H956.665V28.4883H931.37V20.1094ZM960.881 20.1094H986.176V28.4883H960.881V20.1094ZM990.392 31.2813H1015.69V39.6602H990.392V31.2813ZM960.881 31.2813H986.176V39.6602H960.881V31.2813ZM1019.9 31.2813H1045.2V39.6602H1019.9V31.2813ZM1049.41 20.1094H1074.71V28.4883H1049.41V20.1094ZM1049.41 8.9375H1074.71V17.3164H1049.41V8.9375ZM1078.93 20.1094H1104.22V28.4883H1078.93V20.1094ZM1078.93 31.2813H1104.22V39.6602H1078.93V31.2813ZM960.881 8.9375H986.176V17.3164H960.881V8.9375ZM990.392 -2.23437H1015.69V6.14453H990.392V-2.23437ZM960.881 -13.4062H986.176V-5.02734H960.881V-13.4062ZM931.37 -13.4062H956.665V-5.02734H931.37V-13.4062Z" fill="#6B6F80"/>
</g>
<g clip-path="url(#clip32_4930_57397)">
<path fill-rule="evenodd" clip-rule="evenodd" d="M1108.44 -24.5781H1133.73V-16.1992H1108.44V-24.5781ZM1167.46 -13.4062H1192.75V-5.02734H1167.46V-13.4062ZM1196.97 -24.5781H1222.27V-16.1992H1196.97V-24.5781ZM1226.48 -24.5781H1251.78V-16.1992H1226.48V-24.5781ZM1226.48 -13.4062H1251.78V-5.02734H1226.48V-13.4062ZM1196.97 -13.4062H1222.27V-5.02734H1196.97V-13.4062ZM1196.97 8.9375H1222.27V17.3164H1196.97V8.9375ZM1226.48 -2.23437H1251.78V6.14453H1226.48V-2.23437ZM1255.99 -2.23437H1281.29V6.14453H1255.99V-2.23437ZM1255.99 -24.5781H1281.29V-16.1992H1255.99V-24.5781ZM1167.46 20.1094H1192.75V28.4883H1167.46V20.1094ZM1137.95 -2.23437H1163.24V6.14453H1137.95V-2.23437ZM1108.44 8.9375H1133.73V17.3164H1108.44V8.9375ZM1108.44 20.1094H1133.73V28.4883H1108.44V20.1094ZM1137.95 20.1094H1163.24V28.4883H1137.95V20.1094ZM1167.46 31.2813H1192.75V39.6602H1167.46V31.2813ZM1137.95 31.2813H1163.24V39.6602H1137.95V31.2813ZM1196.97 31.2813H1222.27V39.6602H1196.97V31.2813ZM1226.48 20.1094H1251.78V28.4883H1226.48V20.1094ZM1226.48 8.9375H1251.78V17.3164H1226.48V8.9375ZM1255.99 20.1094H1281.29V28.4883H1255.99V20.1094ZM1255.99 31.2813H1281.29V39.6602H1255.99V31.2813ZM1137.95 8.9375H1163.24V17.3164H1137.95V8.9375ZM1167.46 -2.23437H1192.75V6.14453H1167.46V-2.23437ZM1137.95 -13.4062H1163.24V-5.02734H1137.95V-13.4062ZM1108.44 -13.4062H1133.73V-5.02734H1108.44V-13.4062Z" fill="#6B6F80"/>
</g>
<g clip-path="url(#clip33_4930_57397)">
<path fill-rule="evenodd" clip-rule="evenodd" d="M1285.5 -24.5781H1310.8V-16.1992H1285.5V-24.5781ZM1344.53 -13.4062H1369.82V-5.02734H1344.53V-13.4062ZM1374.04 -24.5781H1399.33V-16.1992H1374.04V-24.5781ZM1403.55 -24.5781H1428.84V-16.1992H1403.55V-24.5781ZM1403.55 -13.4062H1428.84V-5.02734H1403.55V-13.4062ZM1374.04 -13.4062H1399.33V-5.02734H1374.04V-13.4062ZM1374.04 8.9375H1399.33V17.3164H1374.04V8.9375ZM1403.55 -2.23437H1428.84V6.14453H1403.55V-2.23437ZM1433.06 -2.23437H1458.35V6.14453H1433.06V-2.23437ZM1433.06 -24.5781H1458.35V-16.1992H1433.06V-24.5781ZM1344.53 20.1094H1369.82V28.4883H1344.53V20.1094ZM1315.01 -2.23437H1340.31V6.14453H1315.01V-2.23437ZM1285.5 8.9375H1310.8V17.3164H1285.5V8.9375ZM1285.5 20.1094H1310.8V28.4883H1285.5V20.1094ZM1315.01 20.1094H1340.31V28.4883H1315.01V20.1094ZM1344.53 31.2813H1369.82V39.6602H1344.53V31.2813ZM1315.01 31.2813H1340.31V39.6602H1315.01V31.2813ZM1374.04 31.2813H1399.33V39.6602H1374.04V31.2813ZM1403.55 20.1094H1428.84V28.4883H1403.55V20.1094ZM1403.55 8.9375H1428.84V17.3164H1403.55V8.9375ZM1433.06 20.1094H1458.35V28.4883H1433.06V20.1094ZM1433.06 31.2813H1458.35V39.6602H1433.06V31.2813ZM1315.01 8.9375H1340.31V17.3164H1315.01V8.9375ZM1344.53 -2.23437H1369.82V6.14453H1344.53V-2.23437ZM1315.01 -13.4062H1340.31V-5.02734H1315.01V-13.4062ZM1285.5 -13.4062H1310.8V-5.02734H1285.5V-13.4062Z" fill="#6B6F80"/>
</g>
<g clip-path="url(#clip34_4930_57397)">
<path fill-rule="evenodd" clip-rule="evenodd" d="M931.37 42.4521H956.665V50.8311H931.37V42.4521ZM990.392 53.624H1015.69V62.0029H990.392V53.624ZM1019.9 42.4521H1045.2V50.8311H1019.9V42.4521ZM1049.41 42.4521H1074.71V50.8311H1049.41V42.4521ZM1049.41 53.624H1074.71V62.0029H1049.41V53.624ZM1019.9 53.624H1045.2V62.0029H1019.9V53.624ZM1019.9 75.9678H1045.2V84.3467H1019.9V75.9678ZM1049.41 64.7959H1074.71V73.1748H1049.41V64.7959ZM1078.93 64.7959H1104.22V73.1748H1078.93V64.7959ZM1078.93 42.4521H1104.22V50.8311H1078.93V42.4521ZM990.392 87.1397H1015.69V95.5186H990.392V87.1397ZM960.881 64.7959H986.176V73.1748H960.881V64.7959ZM931.37 75.9678H956.665V84.3467H931.37V75.9678ZM931.37 87.1397H956.665V95.5186H931.37V87.1397ZM960.881 87.1397H986.176V95.5186H960.881V87.1397ZM990.392 98.3115H1015.69V106.69H990.392V98.3115ZM960.881 98.3115H986.176V106.69H960.881V98.3115ZM1019.9 98.3115H1045.2V106.69H1019.9V98.3115ZM1049.41 87.1397H1074.71V95.5186H1049.41V87.1397ZM1049.41 75.9678H1074.71V84.3467H1049.41V75.9678ZM1078.93 87.1397H1104.22V95.5186H1078.93V87.1397ZM1078.93 98.3115H1104.22V106.69H1078.93V98.3115ZM960.881 75.9678H986.176V84.3467H960.881V75.9678ZM990.392 64.7959H1015.69V73.1748H990.392V64.7959ZM960.881 53.624H986.176V62.0029H960.881V53.624ZM931.37 53.624H956.665V62.0029H931.37V53.624Z" fill="#6B6F80"/>
</g>
<g clip-path="url(#clip35_4930_57397)">
<path fill-rule="evenodd" clip-rule="evenodd" d="M1108.44 42.4521H1133.73V50.8311H1108.44V42.4521ZM1167.46 53.624H1192.75V62.0029H1167.46V53.624ZM1196.97 42.4521H1222.27V50.8311H1196.97V42.4521ZM1226.48 42.4521H1251.78V50.8311H1226.48V42.4521ZM1226.48 53.624H1251.78V62.0029H1226.48V53.624ZM1196.97 53.624H1222.27V62.0029H1196.97V53.624ZM1196.97 75.9678H1222.27V84.3467H1196.97V75.9678ZM1226.48 64.7959H1251.78V73.1748H1226.48V64.7959ZM1255.99 64.7959H1281.29V73.1748H1255.99V64.7959ZM1255.99 42.4521H1281.29V50.8311H1255.99V42.4521ZM1167.46 87.1397H1192.75V95.5186H1167.46V87.1397ZM1137.95 64.7959H1163.24V73.1748H1137.95V64.7959ZM1108.44 75.9678H1133.73V84.3467H1108.44V75.9678ZM1108.44 87.1397H1133.73V95.5186H1108.44V87.1397ZM1137.95 87.1397H1163.24V95.5186H1137.95V87.1397ZM1167.46 98.3115H1192.75V106.69H1167.46V98.3115ZM1137.95 98.3115H1163.24V106.69H1137.95V98.3115ZM1196.97 98.3115H1222.27V106.69H1196.97V98.3115ZM1226.48 87.1397H1251.78V95.5186H1226.48V87.1397ZM1226.48 75.9678H1251.78V84.3467H1226.48V75.9678ZM1255.99 87.1397H1281.29V95.5186H1255.99V87.1397ZM1255.99 98.3115H1281.29V106.69H1255.99V98.3115ZM1137.95 75.9678H1163.24V84.3467H1137.95V75.9678ZM1167.46 64.7959H1192.75V73.1748H1167.46V64.7959ZM1137.95 53.624H1163.24V62.0029H1137.95V53.624ZM1108.44 53.624H1133.73V62.0029H1108.44V53.624Z" fill="#6B6F80"/>
</g>
<g clip-path="url(#clip36_4930_57397)">
<path fill-rule="evenodd" clip-rule="evenodd" d="M1285.5 42.4521H1310.8V50.8311H1285.5V42.4521ZM1344.53 53.624H1369.82V62.0029H1344.53V53.624ZM1374.04 42.4521H1399.33V50.8311H1374.04V42.4521ZM1403.55 42.4521H1428.84V50.8311H1403.55V42.4521ZM1403.55 53.624H1428.84V62.0029H1403.55V53.624ZM1374.04 53.624H1399.33V62.0029H1374.04V53.624ZM1374.04 75.9678H1399.33V84.3467H1374.04V75.9678ZM1403.55 64.7959H1428.84V73.1748H1403.55V64.7959ZM1433.06 64.7959H1458.35V73.1748H1433.06V64.7959ZM1433.06 42.4521H1458.35V50.8311H1433.06V42.4521ZM1344.53 87.1397H1369.82V95.5186H1344.53V87.1397ZM1315.01 64.7959H1340.31V73.1748H1315.01V64.7959ZM1285.5 75.9678H1310.8V84.3467H1285.5V75.9678ZM1285.5 87.1397H1310.8V95.5186H1285.5V87.1397ZM1315.01 87.1397H1340.31V95.5186H1315.01V87.1397ZM1344.53 98.3115H1369.82V106.69H1344.53V98.3115ZM1315.01 98.3115H1340.31V106.69H1315.01V98.3115ZM1374.04 98.3115H1399.33V106.69H1374.04V98.3115ZM1403.55 87.1397H1428.84V95.5186H1403.55V87.1397ZM1403.55 75.9678H1428.84V84.3467H1403.55V75.9678ZM1433.06 87.1397H1458.35V95.5186H1433.06V87.1397ZM1433.06 98.3115H1458.35V106.69H1433.06V98.3115ZM1315.01 75.9678H1340.31V84.3467H1315.01V75.9678ZM1344.53 64.7959H1369.82V73.1748H1344.53V64.7959ZM1315.01 53.624H1340.31V62.0029H1315.01V53.624ZM1285.5 53.624H1310.8V62.0029H1285.5V53.624Z" fill="#6B6F80"/>
</g>
<g clip-path="url(#clip37_4930_57397)">
<path fill-rule="evenodd" clip-rule="evenodd" d="M931.37 109.482H956.665V117.861H931.37V109.482ZM990.392 120.654H1015.69V129.033H990.392V120.654ZM1019.9 109.482H1045.2V117.861H1019.9V109.482ZM1049.41 109.482H1074.71V117.861H1049.41V109.482ZM1049.41 120.654H1074.71V129.033H1049.41V120.654ZM1019.9 120.654H1045.2V129.033H1019.9V120.654ZM1019.9 142.998H1045.2V151.377H1019.9V142.998ZM1049.41 131.826H1074.71V140.205H1049.41V131.826ZM1078.93 131.826H1104.22V140.205H1078.93V131.826ZM1078.93 109.482H1104.22V117.861H1078.93V109.482ZM990.392 154.17H1015.69V162.549H990.392V154.17ZM960.881 131.826H986.176V140.205H960.881V131.826ZM931.37 142.998H956.665V151.377H931.37V142.998ZM931.37 154.17H956.665V162.549H931.37V154.17ZM960.881 154.17H986.176V162.549H960.881V154.17ZM990.392 165.342H1015.69V173.721H990.392V165.342ZM960.881 165.342H986.176V173.721H960.881V165.342ZM1019.9 165.342H1045.2V173.721H1019.9V165.342ZM1049.41 154.17H1074.71V162.549H1049.41V154.17ZM1049.41 142.998H1074.71V151.377H1049.41V142.998ZM1078.93 154.17H1104.22V162.549H1078.93V154.17ZM1078.93 165.342H1104.22V173.721H1078.93V165.342ZM960.881 142.998H986.176V151.377H960.881V142.998ZM990.392 131.826H1015.69V140.205H990.392V131.826ZM960.881 120.654H986.176V129.033H960.881V120.654ZM931.37 120.654H956.665V129.033H931.37V120.654Z" fill="#6B6F80"/>
</g>
<g clip-path="url(#clip38_4930_57397)">
<path fill-rule="evenodd" clip-rule="evenodd" d="M1108.44 109.483H1133.73V117.862H1108.44V109.483ZM1167.46 120.655H1192.75V129.034H1167.46V120.655ZM1196.97 109.483H1222.27V117.862H1196.97V109.483ZM1226.48 109.483H1251.78V117.862H1226.48V109.483ZM1226.48 120.655H1251.78V129.034H1226.48V120.655ZM1196.97 120.655H1222.27V129.034H1196.97V120.655ZM1196.97 142.999H1222.27V151.377H1196.97V142.999ZM1226.48 131.827H1251.78V140.206H1226.48V131.827ZM1255.99 131.827H1281.29V140.206H1255.99V131.827ZM1255.99 109.483H1281.29V117.862H1255.99V109.483ZM1167.46 154.17H1192.75V162.549H1167.46V154.17ZM1137.95 131.827H1163.24V140.206H1137.95V131.827ZM1108.44 142.999H1133.73V151.377H1108.44V142.999ZM1108.44 154.17H1133.73V162.549H1108.44V154.17ZM1137.95 154.17H1163.24V162.549H1137.95V154.17ZM1167.46 165.342H1192.75V173.721H1167.46V165.342ZM1137.95 165.342H1163.24V173.721H1137.95V165.342ZM1196.97 165.342H1222.27V173.721H1196.97V165.342ZM1226.48 154.17H1251.78V162.549H1226.48V154.17ZM1226.48 142.999H1251.78V151.377H1226.48V142.999ZM1255.99 154.17H1281.29V162.549H1255.99V154.17ZM1255.99 165.342H1281.29V173.721H1255.99V165.342ZM1137.95 142.999H1163.24V151.377H1137.95V142.999ZM1167.46 131.827H1192.75V140.206H1167.46V131.827ZM1137.95 120.655H1163.24V129.034H1137.95V120.655ZM1108.44 120.655H1133.73V129.034H1108.44V120.655Z" fill="#6B6F80"/>
</g>
<g clip-path="url(#clip39_4930_57397)">
<path fill-rule="evenodd" clip-rule="evenodd" d="M1285.5 109.483H1310.8V117.862H1285.5V109.483ZM1344.53 120.655H1369.82V129.034H1344.53V120.655ZM1374.04 109.483H1399.33V117.862H1374.04V109.483ZM1403.55 109.483H1428.84V117.862H1403.55V109.483ZM1403.55 120.655H1428.84V129.034H1403.55V120.655ZM1374.04 120.655H1399.33V129.034H1374.04V120.655ZM1374.04 142.999H1399.33V151.377H1374.04V142.999ZM1403.55 131.827H1428.84V140.206H1403.55V131.827ZM1433.06 131.827H1458.35V140.206H1433.06V131.827ZM1433.06 109.483H1458.35V117.862H1433.06V109.483ZM1344.53 154.17H1369.82V162.549H1344.53V154.17ZM1315.01 131.827H1340.31V140.206H1315.01V131.827ZM1285.5 142.999H1310.8V151.377H1285.5V142.999ZM1285.5 154.17H1310.8V162.549H1285.5V154.17ZM1315.01 154.17H1340.31V162.549H1315.01V154.17ZM1344.53 165.342H1369.82V173.721H1344.53V165.342ZM1315.01 165.342H1340.31V173.721H1315.01V165.342ZM1374.04 165.342H1399.33V173.721H1374.04V165.342ZM1403.55 154.17H1428.84V162.549H1403.55V154.17ZM1403.55 142.999H1428.84V151.377H1403.55V142.999ZM1433.06 154.17H1458.35V162.549H1433.06V154.17ZM1433.06 165.342H1458.35V173.721H1433.06V165.342ZM1315.01 142.999H1340.31V151.377H1315.01V142.999ZM1344.53 131.827H1369.82V140.206H1344.53V131.827ZM1315.01 120.655H1340.31V129.034H1315.01V120.655ZM1285.5 120.655H1310.8V129.034H1285.5V120.655Z" fill="#6B6F80"/>
</g>
<g clip-path="url(#clip40_4930_57397)">
<path fill-rule="evenodd" clip-rule="evenodd" d="M931.37 176.515H956.665V184.894H931.37V176.515ZM990.392 187.687H1015.69V196.065H990.392V187.687ZM1019.9 176.515H1045.2V184.894H1019.9V176.515ZM1049.41 176.515H1074.71V184.894H1049.41V176.515ZM1049.41 187.687H1074.71V196.065H1049.41V187.687ZM1019.9 187.687H1045.2V196.065H1019.9V187.687ZM1019.9 210.03H1045.2V218.409H1019.9V210.03ZM1049.41 198.858H1074.71V207.237H1049.41V198.858ZM1078.93 198.858H1104.22V207.237H1078.93V198.858ZM1078.93 176.515H1104.22V184.894H1078.93V176.515ZM990.392 221.202H1015.69V229.581H990.392V221.202ZM960.881 198.858H986.176V207.237H960.881V198.858ZM931.37 210.03H956.665V218.409H931.37V210.03ZM931.37 221.202H956.665V229.581H931.37V221.202ZM960.881 221.202H986.176V229.581H960.881V221.202ZM990.392 232.374H1015.69V240.753H990.392V232.374ZM960.881 232.374H986.176V240.753H960.881V232.374ZM1019.9 232.374H1045.2V240.753H1019.9V232.374ZM1049.41 221.202H1074.71V229.581H1049.41V221.202ZM1049.41 210.03H1074.71V218.409H1049.41V210.03ZM1078.93 221.202H1104.22V229.581H1078.93V221.202ZM1078.93 232.374H1104.22V240.753H1078.93V232.374ZM960.881 210.03H986.176V218.409H960.881V210.03ZM990.392 198.858H1015.69V207.237H990.392V198.858ZM960.881 187.687H986.176V196.065H960.881V187.687ZM931.37 187.687H956.665V196.065H931.37V187.687Z" fill="#6B6F80"/>
</g>
<g clip-path="url(#clip41_4930_57397)">
<path fill-rule="evenodd" clip-rule="evenodd" d="M1108.44 176.515H1133.73V184.894H1108.44V176.515ZM1167.46 187.687H1192.75V196.066H1167.46V187.687ZM1196.97 176.515H1222.27V184.894H1196.97V176.515ZM1226.48 176.515H1251.78V184.894H1226.48V176.515ZM1226.48 187.687H1251.78V196.066H1226.48V187.687ZM1196.97 187.687H1222.27V196.066H1196.97V187.687ZM1196.97 210.031H1222.27V218.41H1196.97V210.031ZM1226.48 198.859H1251.78V207.238H1226.48V198.859ZM1255.99 198.859H1281.29V207.238H1255.99V198.859ZM1255.99 176.515H1281.29V184.894H1255.99V176.515ZM1167.46 221.203H1192.75V229.582H1167.46V221.203ZM1137.95 198.859H1163.24V207.238H1137.95V198.859ZM1108.44 210.031H1133.73V218.41H1108.44V210.031ZM1108.44 221.203H1133.73V229.582H1108.44V221.203ZM1137.95 221.203H1163.24V229.582H1137.95V221.203ZM1167.46 232.375H1192.75V240.753H1167.46V232.375ZM1137.95 232.375H1163.24V240.753H1137.95V232.375ZM1196.97 232.375H1222.27V240.753H1196.97V232.375ZM1226.48 221.203H1251.78V229.582H1226.48V221.203ZM1226.48 210.031H1251.78V218.41H1226.48V210.031ZM1255.99 221.203H1281.29V229.582H1255.99V221.203ZM1255.99 232.375H1281.29V240.753H1255.99V232.375ZM1137.95 210.031H1163.24V218.41H1137.95V210.031ZM1167.46 198.859H1192.75V207.238H1167.46V198.859ZM1137.95 187.687H1163.24V196.066H1137.95V187.687ZM1108.44 187.687H1133.73V196.066H1108.44V187.687Z" fill="#6B6F80"/>
</g>
<g clip-path="url(#clip42_4930_57397)">
<path fill-rule="evenodd" clip-rule="evenodd" d="M1285.5 176.515H1310.8V184.894H1285.5V176.515ZM1344.53 187.687H1369.82V196.066H1344.53V187.687ZM1374.04 176.515H1399.33V184.894H1374.04V176.515ZM1403.55 176.515H1428.84V184.894H1403.55V176.515ZM1403.55 187.687H1428.84V196.066H1403.55V187.687ZM1374.04 187.687H1399.33V196.066H1374.04V187.687ZM1374.04 210.031H1399.33V218.41H1374.04V210.031ZM1403.55 198.859H1428.84V207.238H1403.55V198.859ZM1433.06 198.859H1458.35V207.238H1433.06V198.859ZM1433.06 176.515H1458.35V184.894H1433.06V176.515ZM1344.53 221.203H1369.82V229.582H1344.53V221.203ZM1315.01 198.859H1340.31V207.238H1315.01V198.859ZM1285.5 210.031H1310.8V218.41H1285.5V210.031ZM1285.5 221.203H1310.8V229.582H1285.5V221.203ZM1315.01 221.203H1340.31V229.582H1315.01V221.203ZM1344.53 232.375H1369.82V240.753H1344.53V232.375ZM1315.01 232.375H1340.31V240.753H1315.01V232.375ZM1374.04 232.375H1399.33V240.753H1374.04V232.375ZM1403.55 221.203H1428.84V229.582H1403.55V221.203ZM1403.55 210.031H1428.84V218.41H1403.55V210.031ZM1433.06 221.203H1458.35V229.582H1433.06V221.203ZM1433.06 232.375H1458.35V240.753H1433.06V232.375ZM1315.01 210.031H1340.31V218.41H1315.01V210.031ZM1344.53 198.859H1369.82V207.238H1344.53V198.859ZM1315.01 187.687H1340.31V196.066H1315.01V187.687ZM1285.5 187.687H1310.8V196.066H1285.5V187.687Z" fill="#6B6F80"/>
</g>
<g clip-path="url(#clip43_4930_57397)">
<path fill-rule="evenodd" clip-rule="evenodd" d="M931.37 243.547H956.665V251.926H931.37V243.547ZM990.392 254.719H1015.69V263.098H990.392V254.719ZM1019.9 243.547H1045.2V251.926H1019.9V243.547ZM1049.41 243.547H1074.71V251.926H1049.41V243.547ZM1049.41 254.719H1074.71V263.098H1049.41V254.719ZM1019.9 254.719H1045.2V263.098H1019.9V254.719ZM1019.9 277.063H1045.2V285.442H1019.9V277.063ZM1049.41 265.891H1074.71V274.27H1049.41V265.891ZM1078.93 265.891H1104.22V274.27H1078.93V265.891ZM1078.93 243.547H1104.22V251.926H1078.93V243.547ZM990.392 288.235H1015.69V296.614H990.392V288.235ZM960.881 265.891H986.176V274.27H960.881V265.891ZM931.37 277.063H956.665V285.442H931.37V277.063ZM931.37 288.235H956.665V296.614H931.37V288.235ZM960.881 288.235H986.176V296.614H960.881V288.235ZM990.392 299.407H1015.69V307.786H990.392V299.407ZM960.881 299.407H986.176V307.786H960.881V299.407ZM1019.9 299.407H1045.2V307.786H1019.9V299.407ZM1049.41 288.235H1074.71V296.614H1049.41V288.235ZM1049.41 277.063H1074.71V285.442H1049.41V277.063ZM1078.93 288.235H1104.22V296.614H1078.93V288.235ZM1078.93 299.407H1104.22V307.786H1078.93V299.407ZM960.881 277.063H986.176V285.442H960.881V277.063ZM990.392 265.891H1015.69V274.27H990.392V265.891ZM960.881 254.719H986.176V263.098H960.881V254.719ZM931.37 254.719H956.665V263.098H931.37V254.719Z" fill="#6B6F80"/>
</g>
<g clip-path="url(#clip44_4930_57397)">
<path fill-rule="evenodd" clip-rule="evenodd" d="M1108.44 243.547H1133.73V251.926H1108.44V243.547ZM1167.46 254.719H1192.75V263.098H1167.46V254.719ZM1196.97 243.547H1222.27V251.926H1196.97V243.547ZM1226.48 243.547H1251.78V251.926H1226.48V243.547ZM1226.48 254.719H1251.78V263.098H1226.48V254.719ZM1196.97 254.719H1222.27V263.098H1196.97V254.719ZM1196.97 277.063H1222.27V285.442H1196.97V277.063ZM1226.48 265.891H1251.78V274.27H1226.48V265.891ZM1255.99 265.891H1281.29V274.27H1255.99V265.891ZM1255.99 243.547H1281.29V251.926H1255.99V243.547ZM1167.46 288.235H1192.75V296.614H1167.46V288.235ZM1137.95 265.891H1163.24V274.27H1137.95V265.891ZM1108.44 277.063H1133.73V285.442H1108.44V277.063ZM1108.44 288.235H1133.73V296.614H1108.44V288.235ZM1137.95 288.235H1163.24V296.614H1137.95V288.235ZM1167.46 299.407H1192.75V307.786H1167.46V299.407ZM1137.95 299.407H1163.24V307.786H1137.95V299.407ZM1196.97 299.407H1222.27V307.786H1196.97V299.407ZM1226.48 288.235H1251.78V296.614H1226.48V288.235ZM1226.48 277.063H1251.78V285.442H1226.48V277.063ZM1255.99 288.235H1281.29V296.614H1255.99V288.235ZM1255.99 299.407H1281.29V307.786H1255.99V299.407ZM1137.95 277.063H1163.24V285.442H1137.95V277.063ZM1167.46 265.891H1192.75V274.27H1167.46V265.891ZM1137.95 254.719H1163.24V263.098H1137.95V254.719ZM1108.44 254.719H1133.73V263.098H1108.44V254.719Z" fill="#6B6F80"/>
</g>
<g clip-path="url(#clip45_4930_57397)">
<path fill-rule="evenodd" clip-rule="evenodd" d="M1285.5 243.547H1310.8V251.926H1285.5V243.547ZM1344.53 254.719H1369.82V263.098H1344.53V254.719ZM1374.04 243.547H1399.33V251.926H1374.04V243.547ZM1403.55 243.547H1428.84V251.926H1403.55V243.547ZM1403.55 254.719H1428.84V263.098H1403.55V254.719ZM1374.04 254.719H1399.33V263.098H1374.04V254.719ZM1374.04 277.063H1399.33V285.442H1374.04V277.063ZM1403.55 265.891H1428.84V274.27H1403.55V265.891ZM1433.06 265.891H1458.35V274.27H1433.06V265.891ZM1433.06 243.547H1458.35V251.926H1433.06V243.547ZM1344.53 288.235H1369.82V296.614H1344.53V288.235ZM1315.01 265.891H1340.31V274.27H1315.01V265.891ZM1285.5 277.063H1310.8V285.442H1285.5V277.063ZM1285.5 288.235H1310.8V296.614H1285.5V288.235ZM1315.01 288.235H1340.31V296.614H1315.01V288.235ZM1344.53 299.407H1369.82V307.786H1344.53V299.407ZM1315.01 299.407H1340.31V307.786H1315.01V299.407ZM1374.04 299.407H1399.33V307.786H1374.04V299.407ZM1403.55 288.235H1428.84V296.614H1403.55V288.235ZM1403.55 277.063H1428.84V285.442H1403.55V277.063ZM1433.06 288.235H1458.35V296.614H1433.06V288.235ZM1433.06 299.407H1458.35V307.786H1433.06V299.407ZM1315.01 277.063H1340.31V285.442H1315.01V277.063ZM1344.53 265.891H1369.82V274.27H1344.53V265.891ZM1315.01 254.719H1340.31V263.098H1315.01V254.719ZM1285.5 254.719H1310.8V263.098H1285.5V254.719Z" fill="#6B6F80"/>
</g>
</g>
</g>
<defs>
<clipPath id="clip0_4930_57397">
<rect width="1328" height="286" fill="white"/>
</clipPath>
<clipPath id="clip1_4930_57397">
<rect width="177.067" height="67.0313" fill="white" transform="translate(-131.03 -24.5781)"/>
</clipPath>
<clipPath id="clip2_4930_57397">
<rect width="177.067" height="67.0313" fill="white" transform="translate(46.0374 -24.5781)"/>
</clipPath>
<clipPath id="clip3_4930_57397">
<rect width="177.067" height="67.0313" fill="white" transform="translate(223.103 -24.5781)"/>
</clipPath>
<clipPath id="clip4_4930_57397">
<rect width="177.067" height="67.0313" fill="white" transform="translate(-131.03 42.4521)"/>
</clipPath>
<clipPath id="clip5_4930_57397">
<rect width="177.067" height="67.0313" fill="white" transform="translate(46.0369 42.4521)"/>
</clipPath>
<clipPath id="clip6_4930_57397">
<rect width="177.067" height="67.0313" fill="white" transform="translate(223.104 42.4521)"/>
</clipPath>
<clipPath id="clip7_4930_57397">
<rect width="177.067" height="67.0313" fill="white" transform="translate(-131.03 109.482)"/>
</clipPath>
<clipPath id="clip8_4930_57397">
<rect width="177.067" height="67.0313" fill="white" transform="translate(46.0369 109.483)"/>
</clipPath>
<clipPath id="clip9_4930_57397">
<rect width="177.067" height="67.0313" fill="white" transform="translate(223.104 109.483)"/>
</clipPath>
<clipPath id="clip10_4930_57397">
<rect width="177.067" height="67.0313" fill="white" transform="translate(-131.03 176.515)"/>
</clipPath>
<clipPath id="clip11_4930_57397">
<rect width="177.067" height="67.0313" fill="white" transform="translate(46.0374 176.515)"/>
</clipPath>
<clipPath id="clip12_4930_57397">
<rect width="177.067" height="67.0313" fill="white" transform="translate(223.103 176.515)"/>
</clipPath>
<clipPath id="clip13_4930_57397">
<rect width="177.067" height="67.0313" fill="white" transform="translate(-131.03 243.547)"/>
</clipPath>
<clipPath id="clip14_4930_57397">
<rect width="177.067" height="67.0313" fill="white" transform="translate(46.0369 243.547)"/>
</clipPath>
<clipPath id="clip15_4930_57397">
<rect width="177.067" height="67.0313" fill="white" transform="translate(223.104 243.547)"/>
</clipPath>
<clipPath id="clip16_4930_57397">
<rect width="177.067" height="67.0313" fill="white" transform="translate(400.17 -24.5781)"/>
</clipPath>
<clipPath id="clip17_4930_57397">
<rect width="177.067" height="67.0313" fill="white" transform="translate(577.237 -24.5781)"/>
</clipPath>
<clipPath id="clip18_4930_57397">
<rect width="177.067" height="67.0313" fill="white" transform="translate(754.303 -24.5781)"/>
</clipPath>
<clipPath id="clip19_4930_57397">
<rect width="177.067" height="67.0313" fill="white" transform="translate(400.17 42.4521)"/>
</clipPath>
<clipPath id="clip20_4930_57397">
<rect width="177.067" height="67.0313" fill="white" transform="translate(577.237 42.4521)"/>
</clipPath>
<clipPath id="clip21_4930_57397">
<rect width="177.067" height="67.0313" fill="white" transform="translate(754.303 42.4521)"/>
</clipPath>
<clipPath id="clip22_4930_57397">
<rect width="177.067" height="67.0313" fill="white" transform="translate(400.17 109.482)"/>
</clipPath>
<clipPath id="clip23_4930_57397">
<rect width="177.067" height="67.0313" fill="white" transform="translate(577.237 109.483)"/>
</clipPath>
<clipPath id="clip24_4930_57397">
<rect width="177.067" height="67.0313" fill="white" transform="translate(754.303 109.483)"/>
</clipPath>
<clipPath id="clip25_4930_57397">
<rect width="177.067" height="67.0313" fill="white" transform="translate(400.17 176.515)"/>
</clipPath>
<clipPath id="clip26_4930_57397">
<rect width="177.067" height="67.0313" fill="white" transform="translate(577.237 176.515)"/>
</clipPath>
<clipPath id="clip27_4930_57397">
<rect width="177.067" height="67.0313" fill="white" transform="translate(754.303 176.515)"/>
</clipPath>
<clipPath id="clip28_4930_57397">
<rect width="177.067" height="67.0313" fill="white" transform="translate(400.17 243.547)"/>
</clipPath>
<clipPath id="clip29_4930_57397">
<rect width="177.067" height="67.0313" fill="white" transform="translate(577.237 243.547)"/>
</clipPath>
<clipPath id="clip30_4930_57397">
<rect width="177.067" height="67.0313" fill="white" transform="translate(754.303 243.547)"/>
</clipPath>
<clipPath id="clip31_4930_57397">
<rect width="177.067" height="67.0313" fill="white" transform="translate(931.37 -24.5781)"/>
</clipPath>
<clipPath id="clip32_4930_57397">
<rect width="177.067" height="67.0313" fill="white" transform="translate(1108.44 -24.5781)"/>
</clipPath>
<clipPath id="clip33_4930_57397">
<rect width="177.067" height="67.0313" fill="white" transform="translate(1285.5 -24.5781)"/>
</clipPath>
<clipPath id="clip34_4930_57397">
<rect width="177.067" height="67.0313" fill="white" transform="translate(931.37 42.4521)"/>
</clipPath>
<clipPath id="clip35_4930_57397">
<rect width="177.067" height="67.0313" fill="white" transform="translate(1108.44 42.4521)"/>
</clipPath>
<clipPath id="clip36_4930_57397">
<rect width="177.067" height="67.0313" fill="white" transform="translate(1285.5 42.4521)"/>
</clipPath>
<clipPath id="clip37_4930_57397">
<rect width="177.067" height="67.0313" fill="white" transform="translate(931.37 109.482)"/>
</clipPath>
<clipPath id="clip38_4930_57397">
<rect width="177.067" height="67.0313" fill="white" transform="translate(1108.44 109.483)"/>
</clipPath>
<clipPath id="clip39_4930_57397">
<rect width="177.067" height="67.0313" fill="white" transform="translate(1285.5 109.483)"/>
</clipPath>
<clipPath id="clip40_4930_57397">
<rect width="177.067" height="67.0313" fill="white" transform="translate(931.37 176.515)"/>
</clipPath>
<clipPath id="clip41_4930_57397">
<rect width="177.067" height="67.0313" fill="white" transform="translate(1108.44 176.515)"/>
</clipPath>
<clipPath id="clip42_4930_57397">
<rect width="177.067" height="67.0313" fill="white" transform="translate(1285.5 176.515)"/>
</clipPath>
<clipPath id="clip43_4930_57397">
<rect width="177.067" height="67.0313" fill="white" transform="translate(931.37 243.547)"/>
</clipPath>
<clipPath id="clip44_4930_57397">
<rect width="177.067" height="67.0313" fill="white" transform="translate(1108.44 243.547)"/>
</clipPath>
<clipPath id="clip45_4930_57397">
<rect width="177.067" height="67.0313" fill="white" transform="translate(1285.5 243.547)"/>
</clipPath>
</defs>
</svg>
