<svg width="990" height="337" viewBox="0 0 990 337" fill="none" xmlns="http://www.w3.org/2000/svg">
<g clip-path="url(#clip0_2625_4989)">
<rect width="990" height="337" transform="matrix(-1 0 0 1 990 0)" fill="#D72D36"/>
<g opacity="0.1">
<g clip-path="url(#clip1_2625_4989)">
<path d="M965.277 6.94106C958.406 4.04895 951.694 -0.59836 942.903 -7.69898C933.24 -15.4777 928.607 -18.7887 921.618 -22.1396C912.331 -26.6473 902.055 -28.9609 889.68 -28.9609V-16.6745C892.135 -16.8939 894.769 -16.9936 897.6 -16.9936C916.588 -16.9936 925.776 -12.5457 943.398 1.63554C945.932 3.68993 948.13 5.4252 950.13 6.94106H965.277ZM1012.08 6.94106H1043.09C1045.07 5.4252 1047.25 3.68993 1049.82 1.63554C1064.77 -10.4116 1073.66 -15.4379 1087.68 -16.6745V-28.9609C1075.31 -28.9609 1065.03 -26.6473 1055.72 -22.1396C1048.73 -18.7488 1044.1 -15.4578 1034.48 -7.69898C1025.67 -0.59836 1018.95 4.0689 1012.08 6.94106ZM965.277 -28.9609H950.11C954.608 -25.39 959.482 -22.3266 964.643 -19.8259C973.949 -15.3182 984.225 -13.0045 996.6 -13.0045C1008.98 -13.0045 1019.25 -15.3182 1028.56 -19.8259C1033.72 -22.3266 1038.59 -25.39 1043.09 -28.9609L1012.08 -28.9609C1005.21 -26.0888 998.164 -24.9718 988.68 -24.9718C979.176 -24.9718 972.147 -26.0888 965.277 -28.9609Z" fill="black"/>
</g>
<g clip-path="url(#clip2_2625_4989)">
<path d="M767.277 6.94106C760.406 4.04895 753.694 -0.59836 744.903 -7.69898C735.24 -15.4777 730.607 -18.7887 723.618 -22.1396C714.331 -26.6473 704.055 -28.9609 691.68 -28.9609V-16.6745C694.135 -16.8939 696.769 -16.9936 699.6 -16.9936C718.588 -16.9936 727.776 -12.5457 745.398 1.63554C747.932 3.68993 750.13 5.4252 752.13 6.94106H767.277ZM814.084 6.94106H845.091C847.071 5.4252 849.249 3.68993 851.823 1.63554C866.772 -10.4116 875.662 -15.4379 889.68 -16.6745V-28.9609C877.305 -28.9609 867.029 -26.6473 857.723 -22.1396C850.734 -18.7488 846.1 -15.4578 836.478 -7.69898C827.667 -0.59836 820.954 4.0689 814.084 6.94106ZM767.277 -28.9609H752.11C756.608 -25.39 761.482 -22.3266 766.643 -19.8259C775.949 -15.3182 786.225 -13.0045 798.6 -13.0045C810.975 -13.0045 821.251 -15.3182 830.557 -19.8259C835.719 -22.3266 840.592 -25.39 845.091 -28.9609L814.084 -28.9609C807.213 -26.0888 800.164 -24.9718 790.68 -24.9718C781.176 -24.9718 774.147 -26.0888 767.277 -28.9609Z" fill="black"/>
</g>
<g clip-path="url(#clip3_2625_4989)">
<path d="M965.277 42.8441C958.406 39.952 951.694 35.3047 942.903 28.2041C933.24 20.4253 928.607 17.1144 921.618 13.7635C912.331 9.25582 902.055 6.94214 889.68 6.94214V19.2286C892.135 19.0092 894.769 18.9095 897.6 18.9095C916.588 18.9095 925.776 23.3573 943.398 37.5386C945.932 39.593 948.13 41.3283 950.13 42.8441H965.277ZM1012.08 42.8441H1043.09C1045.07 41.3283 1047.25 39.593 1049.82 37.5386C1064.77 25.4915 1073.66 20.4652 1087.68 19.2286V6.94214C1075.31 6.94214 1065.03 9.25582 1055.72 13.7635C1048.73 17.1543 1044.1 20.4453 1034.48 28.2041C1025.67 35.3047 1018.95 39.972 1012.08 42.8441ZM965.277 6.94214H950.11C954.608 10.5131 959.482 13.5764 964.643 16.0772C973.949 20.5849 984.225 22.8986 996.6 22.8986C1008.98 22.8986 1019.25 20.5849 1028.56 16.0772C1033.72 13.5764 1038.59 10.5131 1043.09 6.94214L1012.08 6.94214C1005.21 9.8143 998.164 10.9312 988.68 10.9312C979.176 10.9312 972.147 9.8143 965.277 6.94214Z" fill="black"/>
</g>
<g clip-path="url(#clip4_2625_4989)">
<path d="M767.277 42.8441C760.406 39.952 753.694 35.3047 744.903 28.2041C735.24 20.4253 730.607 17.1144 723.618 13.7635C714.331 9.25582 704.055 6.94214 691.68 6.94214V19.2286C694.135 19.0092 696.769 18.9095 699.6 18.9095C718.588 18.9095 727.776 23.3573 745.398 37.5386C747.932 39.593 750.13 41.3283 752.13 42.8441H767.277ZM814.084 42.8441H845.091C847.071 41.3283 849.249 39.593 851.823 37.5386C866.772 25.4915 875.662 20.4652 889.68 19.2286V6.94214C877.305 6.94214 867.029 9.25582 857.723 13.7635C850.734 17.1543 846.1 20.4453 836.478 28.2041C827.667 35.3047 820.954 39.972 814.084 42.8441ZM767.277 6.94214H752.11C756.608 10.5131 761.482 13.5764 766.643 16.0772C775.949 20.5849 786.225 22.8986 798.6 22.8986C810.975 22.8986 821.251 20.5849 830.557 16.0772C835.719 13.5764 840.592 10.5131 845.091 6.94214L814.084 6.94214C807.213 9.8143 800.164 10.9312 790.68 10.9312C781.176 10.9312 774.147 9.8143 767.277 6.94214Z" fill="black"/>
</g>
<g clip-path="url(#clip5_2625_4989)">
<path d="M767.277 78.7433C760.406 75.8512 753.694 71.2039 744.903 64.1033C735.24 56.3245 730.607 53.0135 723.618 49.6627C714.331 45.155 704.055 42.8413 691.68 42.8413V55.1278C694.135 54.9084 696.769 54.8086 699.6 54.8086C718.588 54.8086 727.776 59.2565 745.398 73.4378C747.932 75.4922 750.13 77.2274 752.13 78.7433H767.277ZM814.084 78.7433H845.091C847.071 77.2274 849.249 75.4922 851.823 73.4378C866.772 61.3907 875.662 56.3644 889.68 55.1278V42.8413C877.305 42.8413 867.029 45.155 857.723 49.6627C850.734 53.0534 846.1 56.3444 836.478 64.1033C827.667 71.2039 820.954 75.8711 814.084 78.7433ZM767.277 42.8413H752.11C756.608 46.4123 761.482 49.4756 766.643 51.9764C775.949 56.4841 786.225 58.7977 798.6 58.7977C810.975 58.7977 821.251 56.4841 830.557 51.9764C835.719 49.4756 840.592 46.4123 845.091 42.8413L814.084 42.8413C807.213 45.7135 800.164 46.8304 790.68 46.8304C781.176 46.8304 774.147 45.7135 767.277 42.8413Z" fill="black"/>
</g>
<g clip-path="url(#clip6_2625_4989)">
<path d="M767.277 114.647C760.406 111.755 753.694 107.107 744.903 100.007C735.24 92.2278 730.607 88.9169 723.618 85.566C714.331 81.0583 704.055 78.7446 691.68 78.7446V91.0311C694.135 90.8117 696.769 90.712 699.6 90.712C718.588 90.712 727.776 95.1598 745.398 109.341C747.932 111.396 750.13 113.131 752.13 114.647H767.277ZM814.084 114.647H845.091C847.071 113.131 849.249 111.396 851.823 109.341C866.772 97.294 875.662 92.2677 889.68 91.0311V78.7446C877.305 78.7446 867.029 81.0583 857.723 85.566C850.734 88.9568 846.1 92.2478 836.478 100.007C827.667 107.107 820.954 111.774 814.084 114.647ZM767.277 78.7446H752.11C756.608 82.3156 761.482 85.3789 766.643 87.8797C775.949 92.3874 786.225 94.7011 798.6 94.7011C810.975 94.7011 821.251 92.3874 830.557 87.8797C835.719 85.3789 840.592 82.3156 845.091 78.7446H814.084C807.213 81.6168 800.164 82.7337 790.68 82.7337C781.176 82.7337 774.147 81.6168 767.277 78.7446Z" fill="black"/>
</g>
<g clip-path="url(#clip7_2625_4989)">
<path d="M767.277 150.549C760.406 147.657 753.694 143.01 744.903 135.909C735.24 128.13 730.607 124.819 723.618 121.469C714.331 116.961 704.055 114.647 691.68 114.647V126.934C694.135 126.714 696.769 126.615 699.6 126.615C718.588 126.615 727.776 131.062 745.398 145.244C747.932 147.298 750.13 149.033 752.13 150.549H767.277ZM814.084 150.549H845.091C847.071 149.033 849.249 147.298 851.823 145.244C866.772 133.197 875.662 128.17 889.68 126.934V114.647C877.305 114.647 867.029 116.961 857.723 121.469C850.734 124.859 846.1 128.15 836.478 135.909C827.667 143.01 820.954 147.677 814.084 150.549ZM767.277 114.647H752.11C756.608 118.218 761.482 121.282 766.643 123.782C775.949 128.29 786.225 130.604 798.6 130.604C810.975 130.604 821.251 128.29 830.557 123.782C835.719 121.282 840.592 118.218 845.091 114.647H814.084C807.213 117.519 800.164 118.636 790.68 118.636C781.176 118.636 774.147 117.519 767.277 114.647Z" fill="black"/>
</g>
<g clip-path="url(#clip8_2625_4989)">
<path d="M767.277 186.453C760.406 183.561 753.694 178.914 744.903 171.813C735.24 164.034 730.607 160.723 723.618 157.372C714.331 152.865 704.055 150.551 691.68 150.551V162.837C694.135 162.618 696.769 162.518 699.6 162.518C718.588 162.518 727.776 166.966 745.398 181.148C747.932 183.202 750.13 184.937 752.13 186.453H767.277ZM814.084 186.453H845.091C847.071 184.937 849.249 183.202 851.823 181.148C866.772 169.1 875.662 164.074 889.68 162.837V150.551C877.305 150.551 867.029 152.865 857.723 157.372C850.734 160.763 846.1 164.054 836.478 171.813C827.667 178.914 820.954 183.581 814.084 186.453ZM767.277 150.551H752.11C756.608 154.122 761.482 157.185 766.643 159.686C775.949 164.194 786.225 166.507 798.6 166.507C810.975 166.507 821.251 164.194 830.557 159.686C835.719 157.185 840.592 154.122 845.091 150.551H814.084C807.213 153.423 800.164 154.54 790.68 154.54C781.176 154.54 774.147 153.423 767.277 150.551Z" fill="black"/>
</g>
<g clip-path="url(#clip9_2625_4989)">
<path d="M767.277 222.352C760.406 219.46 753.694 214.813 744.903 207.712C735.24 199.933 730.607 196.622 723.618 193.272C714.331 188.764 704.055 186.45 691.68 186.45V198.737C694.135 198.517 696.769 198.418 699.6 198.418C718.588 198.418 727.776 202.865 745.398 217.047C747.932 219.101 750.13 220.836 752.13 222.352H767.277ZM814.084 222.352H845.091C847.071 220.836 849.249 219.101 851.823 217.047C866.772 205 875.662 199.973 889.68 198.737V186.45C877.305 186.45 867.029 188.764 857.723 193.272C850.734 196.662 846.1 199.953 836.478 207.712C827.667 214.813 820.954 219.48 814.084 222.352ZM767.277 186.45H752.11C756.608 190.021 761.482 193.084 766.643 195.585C775.949 200.093 786.225 202.407 798.6 202.407C810.975 202.407 821.251 200.093 830.557 195.585C835.719 193.084 840.592 190.021 845.091 186.45H814.084C807.213 189.322 800.164 190.439 790.68 190.439C781.176 190.439 774.147 189.322 767.277 186.45Z" fill="black"/>
</g>
<g clip-path="url(#clip10_2625_4989)">
<path d="M767.277 258.256C760.406 255.363 753.694 250.716 744.903 243.615C735.24 235.837 730.607 232.526 723.618 229.175C714.331 224.667 704.055 222.354 691.68 222.354V234.64C694.135 234.421 696.769 234.321 699.6 234.321C718.588 234.321 727.776 238.769 745.398 252.95C747.932 255.004 750.13 256.74 752.13 258.256H767.277ZM814.084 258.256H845.091C847.071 256.74 849.249 255.004 851.823 252.95C866.772 240.903 875.662 235.877 889.68 234.64V222.354C877.305 222.354 867.029 224.667 857.723 229.175C850.734 232.566 846.1 235.857 836.478 243.615C827.667 250.716 820.954 255.383 814.084 258.256ZM767.277 222.354H752.11C756.608 225.924 761.482 228.988 766.643 231.489C775.949 235.996 786.225 238.31 798.6 238.31C810.975 238.31 821.251 235.996 830.557 231.489C835.719 228.988 840.592 225.924 845.091 222.354H814.084C807.213 225.226 800.164 226.343 790.68 226.343C781.176 226.343 774.147 225.226 767.277 222.354Z" fill="black"/>
</g>
<g clip-path="url(#clip11_2625_4989)">
<path d="M767.277 294.158C760.406 291.266 753.694 286.619 744.903 279.518C735.24 271.74 730.607 268.429 723.618 265.078C714.331 260.57 704.055 258.256 691.68 258.256V270.543C694.135 270.323 696.769 270.224 699.6 270.224C718.588 270.224 727.776 274.672 745.398 288.853C747.932 290.907 750.13 292.642 752.13 294.158H767.277ZM814.084 294.158H845.091C847.071 292.642 849.249 290.907 851.823 288.853C866.772 276.806 875.662 271.779 889.68 270.543V258.256C877.305 258.256 867.029 260.57 857.723 265.078C850.734 268.468 846.1 271.759 836.478 279.518C827.667 286.619 820.954 291.286 814.084 294.158ZM767.277 258.256H752.11C756.608 261.827 761.482 264.891 766.643 267.391C775.949 271.899 786.225 274.213 798.6 274.213C810.975 274.213 821.251 271.899 830.557 267.391C835.719 264.891 840.592 261.827 845.091 258.256H814.084C807.213 261.129 800.164 262.245 790.68 262.245C781.176 262.245 774.147 261.129 767.277 258.256Z" fill="black"/>
</g>
<g clip-path="url(#clip12_2625_4989)">
<path d="M767.277 330.06C760.406 327.168 753.694 322.52 744.903 315.42C735.24 307.641 730.607 304.33 723.618 300.979C714.331 296.471 704.055 294.158 691.68 294.158V306.444C694.135 306.225 696.769 306.125 699.6 306.125C718.588 306.125 727.776 310.573 745.398 324.754C747.932 326.809 750.13 328.544 752.13 330.06H767.277ZM814.084 330.06H845.091C847.071 328.544 849.249 326.809 851.823 324.754C866.772 312.707 875.662 307.681 889.68 306.444V294.158C877.305 294.158 867.029 296.471 857.723 300.979C850.734 304.37 846.1 307.661 836.478 315.42C827.667 322.52 820.954 327.188 814.084 330.06ZM767.277 294.158H752.11C756.608 297.729 761.482 300.792 766.643 303.293C775.949 307.8 786.225 310.114 798.6 310.114C810.975 310.114 821.251 307.8 830.557 303.293C835.719 300.792 840.592 297.729 845.091 294.158H814.084C807.213 297.03 800.164 298.147 790.68 298.147C781.176 298.147 774.147 297.03 767.277 294.158Z" fill="black"/>
</g>
<g clip-path="url(#clip13_2625_4989)">
<path d="M965.277 78.7433C958.406 75.8512 951.694 71.2039 942.903 64.1033C933.24 56.3245 928.607 53.0135 921.618 49.6627C912.331 45.155 902.055 42.8413 889.68 42.8413V55.1278C892.135 54.9084 894.769 54.8086 897.6 54.8086C916.588 54.8086 925.776 59.2565 943.398 73.4378C945.932 75.4922 948.13 77.2274 950.13 78.7433H965.277ZM1012.08 78.7433H1043.09C1045.07 77.2274 1047.25 75.4922 1049.82 73.4378C1064.77 61.3907 1073.66 56.3644 1087.68 55.1278V42.8413C1075.31 42.8413 1065.03 45.155 1055.72 49.6627C1048.73 53.0534 1044.1 56.3444 1034.48 64.1033C1025.67 71.2039 1018.95 75.8711 1012.08 78.7433ZM965.277 42.8413H950.11C954.608 46.4123 959.482 49.4756 964.643 51.9764C973.949 56.4841 984.225 58.7977 996.6 58.7977C1008.98 58.7977 1019.25 56.4841 1028.56 51.9764C1033.72 49.4756 1038.59 46.4123 1043.09 42.8413L1012.08 42.8413C1005.21 45.7135 998.164 46.8304 988.68 46.8304C979.176 46.8304 972.147 45.7135 965.277 42.8413Z" fill="black"/>
</g>
<g clip-path="url(#clip14_2625_4989)">
<path d="M965.277 114.647C958.406 111.755 951.694 107.107 942.903 100.007C933.24 92.2278 928.607 88.9169 921.618 85.566C912.331 81.0583 902.055 78.7446 889.68 78.7446V91.0311C892.135 90.8117 894.769 90.712 897.6 90.712C916.588 90.712 925.776 95.1598 943.398 109.341C945.932 111.395 948.13 113.131 950.13 114.647H965.277ZM1012.08 114.647H1043.09C1045.07 113.131 1047.25 111.395 1049.82 109.341C1064.77 97.294 1073.66 92.2677 1087.68 91.0311V78.7446C1075.31 78.7446 1065.03 81.0583 1055.72 85.566C1048.73 88.9567 1044.1 92.2478 1034.48 100.007C1025.67 107.107 1018.95 111.774 1012.08 114.647ZM965.277 78.7446H950.11C954.608 82.3156 959.482 85.3789 964.643 87.8797C973.949 92.3874 984.225 94.7011 996.6 94.7011C1008.98 94.7011 1019.25 92.3874 1028.56 87.8797C1033.72 85.3789 1038.59 82.3156 1043.09 78.7446H1012.08C1005.21 81.6168 998.164 82.7337 988.68 82.7337C979.176 82.7337 972.147 81.6168 965.277 78.7446Z" fill="black"/>
</g>
<g clip-path="url(#clip15_2625_4989)">
<path d="M965.277 150.549C958.406 147.657 951.694 143.01 942.903 135.909C933.24 128.13 928.607 124.819 921.618 121.469C912.331 116.961 902.055 114.647 889.68 114.647V126.934C892.135 126.714 894.769 126.615 897.6 126.615C916.588 126.615 925.776 131.062 943.398 145.244C945.932 147.298 948.13 149.033 950.13 150.549H965.277ZM1012.08 150.549H1043.09C1045.07 149.033 1047.25 147.298 1049.82 145.244C1064.77 133.197 1073.66 128.17 1087.68 126.934V114.647C1075.31 114.647 1065.03 116.961 1055.72 121.469C1048.73 124.859 1044.1 128.15 1034.48 135.909C1025.67 143.01 1018.95 147.677 1012.08 150.549ZM965.277 114.647H950.11C954.608 118.218 959.482 121.282 964.643 123.782C973.949 128.29 984.225 130.604 996.6 130.604C1008.98 130.604 1019.25 128.29 1028.56 123.782C1033.72 121.282 1038.59 118.218 1043.09 114.647H1012.08C1005.21 117.519 998.164 118.636 988.68 118.636C979.176 118.636 972.147 117.519 965.277 114.647Z" fill="black"/>
</g>
<g clip-path="url(#clip16_2625_4989)">
<path d="M965.277 186.453C958.406 183.561 951.694 178.914 942.903 171.813C933.24 164.034 928.607 160.723 921.618 157.372C912.331 152.865 902.055 150.551 889.68 150.551V162.837C892.135 162.618 894.769 162.518 897.6 162.518C916.588 162.518 925.776 166.966 943.398 181.148C945.932 183.202 948.13 184.937 950.13 186.453H965.277ZM1012.08 186.453H1043.09C1045.07 184.937 1047.25 183.202 1049.82 181.148C1064.77 169.1 1073.66 164.074 1087.68 162.837V150.551C1075.31 150.551 1065.03 152.865 1055.72 157.372C1048.73 160.763 1044.1 164.054 1034.48 171.813C1025.67 178.914 1018.95 183.581 1012.08 186.453ZM965.277 150.551H950.11C954.608 154.122 959.482 157.185 964.643 159.686C973.949 164.194 984.225 166.507 996.6 166.507C1008.98 166.507 1019.25 164.194 1028.56 159.686C1033.72 157.185 1038.59 154.122 1043.09 150.551H1012.08C1005.21 153.423 998.164 154.54 988.68 154.54C979.176 154.54 972.147 153.423 965.277 150.551Z" fill="black"/>
</g>
<g clip-path="url(#clip17_2625_4989)">
<path d="M965.277 222.352C958.406 219.46 951.694 214.813 942.903 207.712C933.24 199.933 928.607 196.622 921.618 193.272C912.331 188.764 902.055 186.45 889.68 186.45V198.737C892.135 198.517 894.769 198.418 897.6 198.418C916.588 198.418 925.776 202.865 943.398 217.047C945.932 219.101 948.13 220.836 950.13 222.352H965.277ZM1012.08 222.352H1043.09C1045.07 220.836 1047.25 219.101 1049.82 217.047C1064.77 205 1073.66 199.973 1087.68 198.737V186.45C1075.31 186.45 1065.03 188.764 1055.72 193.272C1048.73 196.662 1044.1 199.953 1034.48 207.712C1025.67 214.813 1018.95 219.48 1012.08 222.352ZM965.277 186.45H950.11C954.608 190.021 959.482 193.084 964.643 195.585C973.949 200.093 984.225 202.407 996.6 202.407C1008.98 202.407 1019.25 200.093 1028.56 195.585C1033.72 193.084 1038.59 190.021 1043.09 186.45H1012.08C1005.21 189.322 998.164 190.439 988.68 190.439C979.176 190.439 972.147 189.322 965.277 186.45Z" fill="black"/>
</g>
<g clip-path="url(#clip18_2625_4989)">
<path d="M965.277 258.256C958.406 255.363 951.694 250.716 942.903 243.615C933.24 235.837 928.607 232.526 921.618 229.175C912.331 224.667 902.055 222.354 889.68 222.354V234.64C892.135 234.421 894.769 234.321 897.6 234.321C916.588 234.321 925.776 238.769 943.398 252.95C945.932 255.004 948.13 256.74 950.13 258.256H965.277ZM1012.08 258.256H1043.09C1045.07 256.74 1047.25 255.004 1049.82 252.95C1064.77 240.903 1073.66 235.877 1087.68 234.64V222.354C1075.31 222.354 1065.03 224.667 1055.72 229.175C1048.73 232.566 1044.1 235.857 1034.48 243.615C1025.67 250.716 1018.95 255.383 1012.08 258.256ZM965.277 222.354H950.11C954.608 225.924 959.482 228.988 964.643 231.489C973.949 235.996 984.225 238.31 996.6 238.31C1008.98 238.31 1019.25 235.996 1028.56 231.489C1033.72 228.988 1038.59 225.924 1043.09 222.354H1012.08C1005.21 225.226 998.164 226.343 988.68 226.343C979.176 226.343 972.147 225.226 965.277 222.354Z" fill="black"/>
</g>
<g clip-path="url(#clip19_2625_4989)">
<path d="M965.277 294.158C958.406 291.266 951.694 286.619 942.903 279.518C933.24 271.74 928.607 268.429 921.618 265.078C912.331 260.57 902.055 258.256 889.68 258.256V270.543C892.135 270.323 894.769 270.224 897.6 270.224C916.588 270.224 925.776 274.672 943.398 288.853C945.932 290.907 948.13 292.642 950.13 294.158H965.277ZM1012.08 294.158H1043.09C1045.07 292.642 1047.25 290.907 1049.82 288.853C1064.77 276.806 1073.66 271.779 1087.68 270.543V258.256C1075.31 258.256 1065.03 260.57 1055.72 265.078C1048.73 268.468 1044.1 271.759 1034.48 279.518C1025.67 286.619 1018.95 291.286 1012.08 294.158ZM965.277 258.256H950.11C954.608 261.827 959.482 264.891 964.643 267.391C973.949 271.899 984.225 274.213 996.6 274.213C1008.98 274.213 1019.25 271.899 1028.56 267.391C1033.72 264.891 1038.59 261.827 1043.09 258.256H1012.08C1005.21 261.129 998.164 262.245 988.68 262.245C979.176 262.245 972.147 261.129 965.277 258.256Z" fill="black"/>
</g>
<g clip-path="url(#clip20_2625_4989)">
<path d="M965.277 330.06C958.406 327.168 951.694 322.52 942.903 315.42C933.24 307.641 928.607 304.33 921.618 300.979C912.331 296.471 902.055 294.158 889.68 294.158V306.444C892.135 306.225 894.769 306.125 897.6 306.125C916.588 306.125 925.776 310.573 943.398 324.754C945.932 326.809 948.13 328.544 950.13 330.06H965.277ZM1012.08 330.06H1043.09C1045.07 328.544 1047.25 326.809 1049.82 324.754C1064.77 312.707 1073.66 307.681 1087.68 306.444V294.158C1075.31 294.158 1065.03 296.471 1055.72 300.979C1048.73 304.37 1044.1 307.661 1034.48 315.42C1025.67 322.52 1018.95 327.188 1012.08 330.06ZM965.277 294.158H950.11C954.608 297.729 959.482 300.792 964.643 303.293C973.949 307.8 984.225 310.114 996.6 310.114C1008.98 310.114 1019.25 307.8 1028.56 303.293C1033.72 300.792 1038.59 297.729 1043.09 294.158H1012.08C1005.21 297.03 998.164 298.147 988.68 298.147C979.176 298.147 972.147 297.03 965.277 294.158Z" fill="black"/>
</g>
<g clip-path="url(#clip21_2625_4989)">
<path d="M767.277 365.961C760.406 363.069 753.694 358.421 744.903 351.321C735.24 343.542 730.607 340.231 723.618 336.88C714.331 332.373 704.055 330.059 691.68 330.059V342.345C694.135 342.126 696.769 342.026 699.6 342.026C718.588 342.026 727.776 346.474 745.398 360.655C747.932 362.71 750.13 364.445 752.13 365.961H767.277ZM814.084 365.961H845.091C847.071 364.445 849.249 362.71 851.823 360.655C866.772 348.608 875.662 343.582 889.68 342.345V330.059C877.305 330.059 867.029 332.373 857.723 336.88C850.734 340.271 846.1 343.562 836.478 351.321C827.667 358.421 820.954 363.089 814.084 365.961ZM767.277 330.059H752.11C756.608 333.63 761.482 336.693 766.643 339.194C775.949 343.702 786.225 346.015 798.6 346.015C810.975 346.015 821.251 343.702 830.557 339.194C835.719 336.693 840.592 333.63 845.091 330.059H814.084C807.213 332.931 800.164 334.048 790.68 334.048C781.176 334.048 774.147 332.931 767.277 330.059Z" fill="black"/>
</g>
<g clip-path="url(#clip22_2625_4989)">
<path d="M965.277 365.961C958.406 363.069 951.694 358.421 942.903 351.321C933.24 343.542 928.607 340.231 921.618 336.88C912.331 332.373 902.055 330.059 889.68 330.059V342.345C892.135 342.126 894.769 342.026 897.6 342.026C916.588 342.026 925.776 346.474 943.398 360.655C945.932 362.71 948.13 364.445 950.13 365.961H965.277ZM1012.08 365.961H1043.09C1045.07 364.445 1047.25 362.71 1049.82 360.655C1064.77 348.608 1073.66 343.582 1087.68 342.345V330.059C1075.31 330.059 1065.03 332.373 1055.72 336.88C1048.73 340.271 1044.1 343.562 1034.48 351.321C1025.67 358.421 1018.95 363.089 1012.08 365.961ZM965.277 330.059H950.11C954.608 333.63 959.482 336.693 964.643 339.194C973.949 343.702 984.225 346.015 996.6 346.015C1008.98 346.015 1019.25 343.702 1028.56 339.194C1033.72 336.693 1038.59 333.63 1043.09 330.059H1012.08C1005.21 332.931 998.164 334.048 988.68 334.048C979.176 334.048 972.147 332.931 965.277 330.059Z" fill="black"/>
</g>
<g clip-path="url(#clip23_2625_4989)">
<path d="M569.277 6.94106C562.406 4.04895 555.694 -0.59836 546.903 -7.69898C537.24 -15.4777 532.607 -18.7887 525.618 -22.1396C516.331 -26.6473 506.055 -28.9609 493.68 -28.9609V-16.6745C496.135 -16.8939 498.769 -16.9936 501.6 -16.9936C520.588 -16.9936 529.776 -12.5457 547.398 1.63554C549.932 3.68993 552.13 5.4252 554.13 6.94106H569.277ZM616.084 6.94106H647.091C649.071 5.4252 651.249 3.68993 653.823 1.63554C668.772 -10.4116 677.662 -15.4379 691.68 -16.6745V-28.9609C679.305 -28.9609 669.029 -26.6473 659.723 -22.1396C652.734 -18.7488 648.1 -15.4578 638.478 -7.69898C629.667 -0.59836 622.954 4.0689 616.084 6.94106ZM569.277 -28.9609H554.11C558.608 -25.39 563.482 -22.3266 568.643 -19.8259C577.949 -15.3182 588.225 -13.0045 600.6 -13.0045C612.975 -13.0045 623.251 -15.3182 632.557 -19.8259C637.719 -22.3266 642.592 -25.39 647.091 -28.9609L616.084 -28.9609C609.213 -26.0888 602.164 -24.9718 592.68 -24.9718C583.176 -24.9718 576.147 -26.0888 569.277 -28.9609Z" fill="black"/>
</g>
<g clip-path="url(#clip24_2625_4989)">
<path d="M371.277 6.94106C364.406 4.04895 357.694 -0.59836 348.903 -7.69898C339.24 -15.4777 334.607 -18.7887 327.618 -22.1396C318.331 -26.6473 308.055 -28.9609 295.68 -28.9609V-16.6745C298.135 -16.8939 300.769 -16.9936 303.6 -16.9936C322.588 -16.9936 331.776 -12.5457 349.398 1.63554C351.932 3.68993 354.13 5.4252 356.13 6.94106H371.277ZM418.084 6.94106H449.091C451.071 5.4252 453.249 3.68993 455.823 1.63554C470.772 -10.4116 479.662 -15.4379 493.68 -16.6745V-28.9609C481.305 -28.9609 471.029 -26.6473 461.723 -22.1396C454.734 -18.7488 450.1 -15.4578 440.478 -7.69898C431.667 -0.59836 424.954 4.0689 418.084 6.94106ZM371.277 -28.9609H356.11C360.608 -25.39 365.482 -22.3266 370.643 -19.8259C379.949 -15.3182 390.225 -13.0045 402.6 -13.0045C414.975 -13.0045 425.251 -15.3182 434.557 -19.8259C439.719 -22.3266 444.592 -25.39 449.091 -28.9609L418.084 -28.9609C411.213 -26.0888 404.164 -24.9718 394.68 -24.9718C385.176 -24.9718 378.147 -26.0888 371.277 -28.9609Z" fill="black"/>
</g>
<g clip-path="url(#clip25_2625_4989)">
<path d="M569.277 42.8441C562.406 39.952 555.694 35.3047 546.903 28.2041C537.24 20.4253 532.607 17.1144 525.618 13.7635C516.331 9.25582 506.055 6.94214 493.68 6.94214V19.2286C496.135 19.0092 498.769 18.9095 501.6 18.9095C520.588 18.9095 529.776 23.3573 547.398 37.5386C549.932 39.593 552.13 41.3283 554.13 42.8441H569.277ZM616.084 42.8441H647.091C649.071 41.3283 651.249 39.593 653.823 37.5386C668.772 25.4915 677.662 20.4652 691.68 19.2286V6.94214C679.305 6.94214 669.029 9.25582 659.723 13.7635C652.734 17.1543 648.1 20.4453 638.478 28.2041C629.667 35.3047 622.954 39.972 616.084 42.8441ZM569.277 6.94214H554.11C558.608 10.5131 563.482 13.5764 568.643 16.0772C577.949 20.5849 588.225 22.8986 600.6 22.8986C612.975 22.8986 623.251 20.5849 632.557 16.0772C637.719 13.5764 642.592 10.5131 647.091 6.94214L616.084 6.94214C609.213 9.8143 602.164 10.9312 592.68 10.9312C583.176 10.9312 576.147 9.8143 569.277 6.94214Z" fill="black"/>
</g>
<g clip-path="url(#clip26_2625_4989)">
<path d="M371.277 42.8441C364.406 39.952 357.694 35.3047 348.903 28.2041C339.24 20.4253 334.607 17.1144 327.618 13.7635C318.331 9.25582 308.055 6.94214 295.68 6.94214V19.2286C298.135 19.0092 300.769 18.9095 303.6 18.9095C322.588 18.9095 331.776 23.3573 349.398 37.5386C351.932 39.593 354.13 41.3283 356.13 42.8441H371.277ZM418.084 42.8441H449.091C451.071 41.3283 453.249 39.593 455.823 37.5386C470.772 25.4915 479.662 20.4652 493.68 19.2286V6.94214C481.305 6.94214 471.029 9.25582 461.723 13.7635C454.734 17.1543 450.1 20.4453 440.478 28.2041C431.667 35.3047 424.954 39.972 418.084 42.8441ZM371.277 6.94214H356.11C360.608 10.5131 365.482 13.5764 370.643 16.0772C379.949 20.5849 390.225 22.8986 402.6 22.8986C414.975 22.8986 425.251 20.5849 434.557 16.0772C439.719 13.5764 444.592 10.5131 449.091 6.94214L418.084 6.94214C411.213 9.8143 404.164 10.9312 394.68 10.9312C385.176 10.9312 378.147 9.8143 371.277 6.94214Z" fill="black"/>
</g>
<g clip-path="url(#clip27_2625_4989)">
<path d="M371.277 78.7433C364.406 75.8512 357.694 71.2039 348.903 64.1033C339.24 56.3245 334.607 53.0135 327.618 49.6627C318.331 45.155 308.055 42.8413 295.68 42.8413V55.1278C298.135 54.9084 300.769 54.8086 303.6 54.8086C322.588 54.8086 331.776 59.2565 349.398 73.4378C351.932 75.4922 354.13 77.2274 356.13 78.7433H371.277ZM418.084 78.7433H449.091C451.071 77.2274 453.249 75.4922 455.823 73.4378C470.772 61.3907 479.662 56.3644 493.68 55.1278V42.8413C481.305 42.8413 471.029 45.155 461.723 49.6627C454.734 53.0534 450.1 56.3444 440.478 64.1033C431.667 71.2039 424.954 75.8711 418.084 78.7433ZM371.277 42.8413H356.11C360.608 46.4123 365.482 49.4756 370.643 51.9764C379.949 56.4841 390.225 58.7977 402.6 58.7977C414.975 58.7977 425.251 56.4841 434.557 51.9764C439.719 49.4756 444.592 46.4123 449.091 42.8413L418.084 42.8413C411.213 45.7135 404.164 46.8304 394.68 46.8304C385.176 46.8304 378.147 45.7135 371.277 42.8413Z" fill="black"/>
</g>
<g clip-path="url(#clip28_2625_4989)">
<path d="M371.277 114.647C364.406 111.755 357.694 107.107 348.903 100.007C339.24 92.2278 334.607 88.9169 327.618 85.566C318.331 81.0583 308.055 78.7446 295.68 78.7446V91.0311C298.135 90.8117 300.769 90.712 303.6 90.712C322.588 90.712 331.776 95.1598 349.398 109.341C351.932 111.396 354.13 113.131 356.13 114.647H371.277ZM418.084 114.647H449.091C451.071 113.131 453.249 111.396 455.823 109.341C470.772 97.294 479.662 92.2677 493.68 91.0311V78.7446C481.305 78.7446 471.029 81.0583 461.723 85.566C454.734 88.9568 450.1 92.2478 440.478 100.007C431.667 107.107 424.954 111.774 418.084 114.647ZM371.277 78.7446H356.11C360.608 82.3156 365.482 85.3789 370.643 87.8797C379.949 92.3874 390.225 94.7011 402.6 94.7011C414.975 94.7011 425.251 92.3874 434.557 87.8797C439.719 85.3789 444.592 82.3156 449.091 78.7446H418.084C411.213 81.6168 404.164 82.7337 394.68 82.7337C385.176 82.7337 378.147 81.6168 371.277 78.7446Z" fill="black"/>
</g>
<g clip-path="url(#clip29_2625_4989)">
<path d="M371.277 150.549C364.406 147.657 357.694 143.01 348.903 135.909C339.24 128.13 334.607 124.819 327.618 121.469C318.331 116.961 308.055 114.647 295.68 114.647V126.934C298.135 126.714 300.769 126.615 303.6 126.615C322.588 126.615 331.776 131.062 349.398 145.244C351.932 147.298 354.13 149.033 356.13 150.549H371.277ZM418.084 150.549H449.091C451.071 149.033 453.249 147.298 455.823 145.244C470.772 133.197 479.662 128.17 493.68 126.934V114.647C481.305 114.647 471.029 116.961 461.723 121.469C454.734 124.859 450.1 128.15 440.478 135.909C431.667 143.01 424.954 147.677 418.084 150.549ZM371.277 114.647H356.11C360.608 118.218 365.482 121.282 370.643 123.782C379.949 128.29 390.225 130.604 402.6 130.604C414.975 130.604 425.251 128.29 434.557 123.782C439.719 121.282 444.592 118.218 449.091 114.647H418.084C411.213 117.519 404.164 118.636 394.68 118.636C385.176 118.636 378.147 117.519 371.277 114.647Z" fill="black"/>
</g>
<g clip-path="url(#clip30_2625_4989)">
<path d="M371.277 186.453C364.406 183.561 357.694 178.914 348.903 171.813C339.24 164.034 334.607 160.723 327.618 157.372C318.331 152.865 308.055 150.551 295.68 150.551V162.837C298.135 162.618 300.769 162.518 303.6 162.518C322.588 162.518 331.776 166.966 349.398 181.148C351.932 183.202 354.13 184.937 356.13 186.453H371.277ZM418.084 186.453H449.091C451.071 184.937 453.249 183.202 455.823 181.148C470.772 169.1 479.662 164.074 493.68 162.837V150.551C481.305 150.551 471.029 152.865 461.723 157.372C454.734 160.763 450.1 164.054 440.478 171.813C431.667 178.914 424.954 183.581 418.084 186.453ZM371.277 150.551H356.11C360.608 154.122 365.482 157.185 370.643 159.686C379.949 164.194 390.225 166.507 402.6 166.507C414.975 166.507 425.251 164.194 434.557 159.686C439.719 157.185 444.592 154.122 449.091 150.551H418.084C411.213 153.423 404.164 154.54 394.68 154.54C385.176 154.54 378.147 153.423 371.277 150.551Z" fill="black"/>
</g>
<g clip-path="url(#clip31_2625_4989)">
<path d="M371.277 222.352C364.406 219.46 357.694 214.813 348.903 207.712C339.24 199.933 334.607 196.622 327.618 193.272C318.331 188.764 308.055 186.45 295.68 186.45V198.737C298.135 198.517 300.769 198.418 303.6 198.418C322.588 198.418 331.776 202.865 349.398 217.047C351.932 219.101 354.13 220.836 356.13 222.352H371.277ZM418.084 222.352H449.091C451.071 220.836 453.249 219.101 455.823 217.047C470.772 205 479.662 199.973 493.68 198.737V186.45C481.305 186.45 471.029 188.764 461.723 193.272C454.734 196.662 450.1 199.953 440.478 207.712C431.667 214.813 424.954 219.48 418.084 222.352ZM371.277 186.45H356.11C360.608 190.021 365.482 193.084 370.643 195.585C379.949 200.093 390.225 202.407 402.6 202.407C414.975 202.407 425.251 200.093 434.557 195.585C439.719 193.084 444.592 190.021 449.091 186.45H418.084C411.213 189.322 404.164 190.439 394.68 190.439C385.176 190.439 378.147 189.322 371.277 186.45Z" fill="black"/>
</g>
<g clip-path="url(#clip32_2625_4989)">
<path d="M371.277 258.256C364.406 255.363 357.694 250.716 348.903 243.615C339.24 235.837 334.607 232.526 327.618 229.175C318.331 224.667 308.055 222.354 295.68 222.354V234.64C298.135 234.421 300.769 234.321 303.6 234.321C322.588 234.321 331.776 238.769 349.398 252.95C351.932 255.004 354.13 256.74 356.13 258.256H371.277ZM418.084 258.256H449.091C451.071 256.74 453.249 255.004 455.823 252.95C470.772 240.903 479.662 235.877 493.68 234.64V222.354C481.305 222.354 471.029 224.667 461.723 229.175C454.734 232.566 450.1 235.857 440.478 243.615C431.667 250.716 424.954 255.383 418.084 258.256ZM371.277 222.354H356.11C360.608 225.924 365.482 228.988 370.643 231.489C379.949 235.996 390.225 238.31 402.6 238.31C414.975 238.31 425.251 235.996 434.557 231.489C439.719 228.988 444.592 225.924 449.091 222.354H418.084C411.213 225.226 404.164 226.343 394.68 226.343C385.176 226.343 378.147 225.226 371.277 222.354Z" fill="black"/>
</g>
<g clip-path="url(#clip33_2625_4989)">
<path d="M371.277 294.158C364.406 291.266 357.694 286.619 348.903 279.518C339.24 271.74 334.607 268.429 327.618 265.078C318.331 260.57 308.055 258.256 295.68 258.256V270.543C298.135 270.323 300.769 270.224 303.6 270.224C322.588 270.224 331.776 274.672 349.398 288.853C351.932 290.907 354.13 292.642 356.13 294.158H371.277ZM418.084 294.158H449.091C451.071 292.642 453.249 290.907 455.823 288.853C470.772 276.806 479.662 271.779 493.68 270.543V258.256C481.305 258.256 471.029 260.57 461.723 265.078C454.734 268.468 450.1 271.759 440.478 279.518C431.667 286.619 424.954 291.286 418.084 294.158ZM371.277 258.256H356.11C360.608 261.827 365.482 264.891 370.643 267.391C379.949 271.899 390.225 274.213 402.6 274.213C414.975 274.213 425.251 271.899 434.557 267.391C439.719 264.891 444.592 261.827 449.091 258.256H418.084C411.213 261.129 404.164 262.245 394.68 262.245C385.176 262.245 378.147 261.129 371.277 258.256Z" fill="black"/>
</g>
<g clip-path="url(#clip34_2625_4989)">
<path d="M371.277 330.06C364.406 327.168 357.694 322.52 348.903 315.42C339.24 307.641 334.607 304.33 327.618 300.979C318.331 296.471 308.055 294.158 295.68 294.158V306.444C298.135 306.225 300.769 306.125 303.6 306.125C322.588 306.125 331.776 310.573 349.398 324.754C351.932 326.809 354.13 328.544 356.13 330.06H371.277ZM418.084 330.06H449.091C451.071 328.544 453.249 326.809 455.823 324.754C470.772 312.707 479.662 307.681 493.68 306.444V294.158C481.305 294.158 471.029 296.471 461.723 300.979C454.734 304.37 450.1 307.661 440.478 315.42C431.667 322.52 424.954 327.188 418.084 330.06ZM371.277 294.158H356.11C360.608 297.729 365.482 300.792 370.643 303.293C379.949 307.8 390.225 310.114 402.6 310.114C414.975 310.114 425.251 307.8 434.557 303.293C439.719 300.792 444.592 297.729 449.091 294.158H418.084C411.213 297.03 404.164 298.147 394.68 298.147C385.176 298.147 378.147 297.03 371.277 294.158Z" fill="black"/>
</g>
<g clip-path="url(#clip35_2625_4989)">
<path d="M569.277 78.7433C562.406 75.8512 555.694 71.2039 546.903 64.1033C537.24 56.3245 532.607 53.0135 525.618 49.6627C516.331 45.155 506.055 42.8413 493.68 42.8413V55.1278C496.135 54.9084 498.769 54.8086 501.6 54.8086C520.588 54.8086 529.776 59.2565 547.398 73.4378C549.932 75.4922 552.13 77.2274 554.13 78.7433H569.277ZM616.084 78.7433H647.091C649.071 77.2274 651.249 75.4922 653.823 73.4378C668.772 61.3907 677.662 56.3644 691.68 55.1278V42.8413C679.305 42.8413 669.029 45.155 659.723 49.6627C652.734 53.0534 648.1 56.3444 638.478 64.1033C629.667 71.2039 622.954 75.8711 616.084 78.7433ZM569.277 42.8413H554.11C558.608 46.4123 563.482 49.4756 568.643 51.9764C577.949 56.4841 588.225 58.7977 600.6 58.7977C612.975 58.7977 623.251 56.4841 632.557 51.9764C637.719 49.4756 642.592 46.4123 647.091 42.8413L616.084 42.8413C609.213 45.7135 602.164 46.8304 592.68 46.8304C583.176 46.8304 576.147 45.7135 569.277 42.8413Z" fill="black"/>
</g>
<g clip-path="url(#clip36_2625_4989)">
<path d="M569.277 114.647C562.406 111.755 555.694 107.107 546.903 100.007C537.24 92.2278 532.607 88.9169 525.618 85.566C516.331 81.0583 506.055 78.7446 493.68 78.7446V91.0311C496.135 90.8117 498.769 90.712 501.6 90.712C520.588 90.712 529.776 95.1598 547.398 109.341C549.932 111.395 552.13 113.131 554.13 114.647H569.277ZM616.084 114.647H647.091C649.071 113.131 651.249 111.395 653.823 109.341C668.772 97.294 677.662 92.2677 691.68 91.0311V78.7446C679.305 78.7446 669.029 81.0583 659.723 85.566C652.734 88.9567 648.1 92.2478 638.478 100.007C629.667 107.107 622.954 111.774 616.084 114.647ZM569.277 78.7446H554.11C558.608 82.3156 563.482 85.3789 568.643 87.8797C577.949 92.3874 588.225 94.7011 600.6 94.7011C612.975 94.7011 623.251 92.3874 632.557 87.8797C637.719 85.3789 642.592 82.3156 647.091 78.7446H616.084C609.213 81.6168 602.164 82.7337 592.68 82.7337C583.176 82.7337 576.147 81.6168 569.277 78.7446Z" fill="black"/>
</g>
<g clip-path="url(#clip37_2625_4989)">
<path d="M569.277 150.549C562.406 147.657 555.694 143.01 546.903 135.909C537.24 128.13 532.607 124.819 525.618 121.469C516.331 116.961 506.055 114.647 493.68 114.647V126.934C496.135 126.714 498.769 126.615 501.6 126.615C520.588 126.615 529.776 131.062 547.398 145.244C549.932 147.298 552.13 149.033 554.13 150.549H569.277ZM616.084 150.549H647.091C649.071 149.033 651.249 147.298 653.823 145.244C668.772 133.197 677.662 128.17 691.68 126.934V114.647C679.305 114.647 669.029 116.961 659.723 121.469C652.734 124.859 648.1 128.15 638.478 135.909C629.667 143.01 622.954 147.677 616.084 150.549ZM569.277 114.647H554.11C558.608 118.218 563.482 121.282 568.643 123.782C577.949 128.29 588.225 130.604 600.6 130.604C612.975 130.604 623.251 128.29 632.557 123.782C637.719 121.282 642.592 118.218 647.091 114.647H616.084C609.213 117.519 602.164 118.636 592.68 118.636C583.176 118.636 576.147 117.519 569.277 114.647Z" fill="black"/>
</g>
<g clip-path="url(#clip38_2625_4989)">
<path d="M569.277 186.453C562.406 183.561 555.694 178.914 546.903 171.813C537.24 164.034 532.607 160.723 525.618 157.372C516.331 152.865 506.055 150.551 493.68 150.551V162.837C496.135 162.618 498.769 162.518 501.6 162.518C520.588 162.518 529.776 166.966 547.398 181.148C549.932 183.202 552.13 184.937 554.13 186.453H569.277ZM616.084 186.453H647.091C649.071 184.937 651.249 183.202 653.823 181.148C668.772 169.1 677.662 164.074 691.68 162.837V150.551C679.305 150.551 669.029 152.865 659.723 157.372C652.734 160.763 648.1 164.054 638.478 171.813C629.667 178.914 622.954 183.581 616.084 186.453ZM569.277 150.551H554.11C558.608 154.122 563.482 157.185 568.643 159.686C577.949 164.194 588.225 166.507 600.6 166.507C612.975 166.507 623.251 164.194 632.557 159.686C637.719 157.185 642.592 154.122 647.091 150.551H616.084C609.213 153.423 602.164 154.54 592.68 154.54C583.176 154.54 576.147 153.423 569.277 150.551Z" fill="black"/>
</g>
<g clip-path="url(#clip39_2625_4989)">
<path d="M569.277 222.352C562.406 219.46 555.694 214.813 546.903 207.712C537.24 199.933 532.607 196.622 525.618 193.272C516.331 188.764 506.055 186.45 493.68 186.45V198.737C496.135 198.517 498.769 198.418 501.6 198.418C520.588 198.418 529.776 202.865 547.398 217.047C549.932 219.101 552.13 220.836 554.13 222.352H569.277ZM616.084 222.352H647.091C649.071 220.836 651.249 219.101 653.823 217.047C668.772 205 677.662 199.973 691.68 198.737V186.45C679.305 186.45 669.029 188.764 659.723 193.272C652.734 196.662 648.1 199.953 638.478 207.712C629.667 214.813 622.954 219.48 616.084 222.352ZM569.277 186.45H554.11C558.608 190.021 563.482 193.084 568.643 195.585C577.949 200.093 588.225 202.407 600.6 202.407C612.975 202.407 623.251 200.093 632.557 195.585C637.719 193.084 642.592 190.021 647.091 186.45H616.084C609.213 189.322 602.164 190.439 592.68 190.439C583.176 190.439 576.147 189.322 569.277 186.45Z" fill="black"/>
</g>
<g clip-path="url(#clip40_2625_4989)">
<path d="M569.277 258.256C562.406 255.363 555.694 250.716 546.903 243.615C537.24 235.837 532.607 232.526 525.618 229.175C516.331 224.667 506.055 222.354 493.68 222.354V234.64C496.135 234.421 498.769 234.321 501.6 234.321C520.588 234.321 529.776 238.769 547.398 252.95C549.932 255.004 552.13 256.74 554.13 258.256H569.277ZM616.084 258.256H647.091C649.071 256.74 651.249 255.004 653.823 252.95C668.772 240.903 677.662 235.877 691.68 234.64V222.354C679.305 222.354 669.029 224.667 659.723 229.175C652.734 232.566 648.1 235.857 638.478 243.615C629.667 250.716 622.954 255.383 616.084 258.256ZM569.277 222.354H554.11C558.608 225.924 563.482 228.988 568.643 231.489C577.949 235.996 588.225 238.31 600.6 238.31C612.975 238.31 623.251 235.996 632.557 231.489C637.719 228.988 642.592 225.924 647.091 222.354H616.084C609.213 225.226 602.164 226.343 592.68 226.343C583.176 226.343 576.147 225.226 569.277 222.354Z" fill="black"/>
</g>
<g clip-path="url(#clip41_2625_4989)">
<path d="M569.277 294.158C562.406 291.266 555.694 286.619 546.903 279.518C537.24 271.74 532.607 268.429 525.618 265.078C516.331 260.57 506.055 258.256 493.68 258.256V270.543C496.135 270.323 498.769 270.224 501.6 270.224C520.588 270.224 529.776 274.672 547.398 288.853C549.932 290.907 552.13 292.642 554.13 294.158H569.277ZM616.084 294.158H647.091C649.071 292.642 651.249 290.907 653.823 288.853C668.772 276.806 677.662 271.779 691.68 270.543V258.256C679.305 258.256 669.029 260.57 659.723 265.078C652.734 268.468 648.1 271.759 638.478 279.518C629.667 286.619 622.954 291.286 616.084 294.158ZM569.277 258.256H554.11C558.608 261.827 563.482 264.891 568.643 267.391C577.949 271.899 588.225 274.213 600.6 274.213C612.975 274.213 623.251 271.899 632.557 267.391C637.719 264.891 642.592 261.827 647.091 258.256H616.084C609.213 261.129 602.164 262.245 592.68 262.245C583.176 262.245 576.147 261.129 569.277 258.256Z" fill="black"/>
</g>
<g clip-path="url(#clip42_2625_4989)">
<path d="M569.277 330.06C562.406 327.168 555.694 322.52 546.903 315.42C537.24 307.641 532.607 304.33 525.618 300.979C516.331 296.471 506.055 294.158 493.68 294.158V306.444C496.135 306.225 498.769 306.125 501.6 306.125C520.588 306.125 529.776 310.573 547.398 324.754C549.932 326.809 552.13 328.544 554.13 330.06H569.277ZM616.084 330.06H647.091C649.071 328.544 651.249 326.809 653.823 324.754C668.772 312.707 677.662 307.681 691.68 306.444V294.158C679.305 294.158 669.029 296.471 659.723 300.979C652.734 304.37 648.1 307.661 638.478 315.42C629.667 322.52 622.954 327.188 616.084 330.06ZM569.277 294.158H554.11C558.608 297.729 563.482 300.792 568.643 303.293C577.949 307.8 588.225 310.114 600.6 310.114C612.975 310.114 623.251 307.8 632.557 303.293C637.719 300.792 642.592 297.729 647.091 294.158H616.084C609.213 297.03 602.164 298.147 592.68 298.147C583.176 298.147 576.147 297.03 569.277 294.158Z" fill="black"/>
</g>
<g clip-path="url(#clip43_2625_4989)">
<path d="M371.277 365.961C364.406 363.069 357.694 358.421 348.903 351.321C339.24 343.542 334.607 340.231 327.618 336.88C318.331 332.373 308.055 330.059 295.68 330.059V342.345C298.135 342.126 300.769 342.026 303.6 342.026C322.588 342.026 331.776 346.474 349.398 360.655C351.932 362.71 354.13 364.445 356.13 365.961H371.277ZM418.084 365.961H449.091C451.071 364.445 453.249 362.71 455.823 360.655C470.772 348.608 479.662 343.582 493.68 342.345V330.059C481.305 330.059 471.029 332.373 461.723 336.88C454.734 340.271 450.1 343.562 440.478 351.321C431.667 358.421 424.954 363.089 418.084 365.961ZM371.277 330.059H356.11C360.608 333.63 365.482 336.693 370.643 339.194C379.949 343.702 390.225 346.015 402.6 346.015C414.975 346.015 425.251 343.702 434.557 339.194C439.719 336.693 444.592 333.63 449.091 330.059H418.084C411.213 332.931 404.164 334.048 394.68 334.048C385.176 334.048 378.147 332.931 371.277 330.059Z" fill="black"/>
</g>
<g clip-path="url(#clip44_2625_4989)">
<path d="M569.277 365.961C562.406 363.069 555.694 358.421 546.903 351.321C537.24 343.542 532.607 340.231 525.618 336.88C516.331 332.373 506.055 330.059 493.68 330.059V342.345C496.135 342.126 498.769 342.026 501.6 342.026C520.588 342.026 529.776 346.474 547.398 360.655C549.932 362.71 552.13 364.445 554.13 365.961H569.277ZM616.084 365.961H647.091C649.071 364.445 651.249 362.71 653.823 360.655C668.772 348.608 677.662 343.582 691.68 342.345V330.059C679.305 330.059 669.029 332.373 659.723 336.88C652.734 340.271 648.1 343.562 638.478 351.321C629.667 358.421 622.954 363.089 616.084 365.961ZM569.277 330.059H554.11C558.608 333.63 563.482 336.693 568.643 339.194C577.949 343.702 588.225 346.015 600.6 346.015C612.975 346.015 623.251 343.702 632.557 339.194C637.719 336.693 642.592 333.63 647.091 330.059H616.084C609.213 332.931 602.164 334.048 592.68 334.048C583.176 334.048 576.147 332.931 569.277 330.059Z" fill="black"/>
</g>
<g clip-path="url(#clip45_2625_4989)">
<path d="M173.277 6.94106C166.406 4.04895 159.694 -0.59836 150.903 -7.69898C141.24 -15.4777 136.607 -18.7887 129.618 -22.1396C120.331 -26.6473 110.055 -28.9609 97.6802 -28.9609V-16.6745C100.135 -16.8939 102.769 -16.9936 105.6 -16.9936C124.588 -16.9936 133.776 -12.5457 151.398 1.63554C153.932 3.68993 156.13 5.4252 158.13 6.94106H173.277ZM220.084 6.94106H251.091C253.071 5.4252 255.249 3.68993 257.823 1.63554C272.772 -10.4116 281.662 -15.4379 295.68 -16.6745V-28.9609C283.305 -28.9609 273.029 -26.6473 263.723 -22.1396C256.734 -18.7488 252.1 -15.4578 242.478 -7.69898C233.667 -0.59836 226.954 4.0689 220.084 6.94106ZM173.277 -28.9609H158.11C162.608 -25.39 167.482 -22.3266 172.643 -19.8259C181.949 -15.3182 192.225 -13.0045 204.6 -13.0045C216.975 -13.0045 227.251 -15.3182 236.557 -19.8259C241.719 -22.3266 246.592 -25.39 251.091 -28.9609L220.084 -28.9609C213.213 -26.0888 206.164 -24.9718 196.68 -24.9718C187.176 -24.9718 180.147 -26.0888 173.277 -28.9609Z" fill="black"/>
</g>
<g clip-path="url(#clip46_2625_4989)">
<path d="M-24.7234 6.94106C-31.594 4.04895 -38.3062 -0.59836 -47.0974 -7.69898C-56.7598 -15.4777 -61.393 -18.7887 -68.3824 -22.1396C-77.6686 -26.6473 -87.9448 -28.9609 -100.32 -28.9609V-16.6745C-97.8646 -16.8939 -95.2312 -16.9936 -92.3998 -16.9936C-73.4116 -16.9936 -64.2244 -12.5457 -46.6024 1.63554C-44.068 3.68993 -41.8702 5.4252 -39.8704 6.94106H-24.7234ZM22.0838 6.94106H53.0906C55.0706 5.4252 57.2486 3.68993 59.8226 1.63554C74.7716 -10.4116 83.6618 -15.4379 97.6802 -16.6745V-28.9609C85.3052 -28.9609 75.029 -26.6473 65.723 -22.1396C58.7336 -18.7488 54.1004 -15.4578 44.4776 -7.69898C35.6666 -0.59836 28.9544 4.0689 22.0838 6.94106ZM-24.7234 -28.9609H-39.8902C-35.3918 -25.39 -30.5183 -22.3266 -25.357 -19.8259C-16.051 -15.3182 -5.77483 -13.0045 6.60017 -13.0045C18.9752 -13.0045 29.2514 -15.3182 38.5574 -19.8259C43.7187 -22.3266 48.5922 -25.39 53.0906 -28.9609L22.0838 -28.9609C15.2132 -26.0888 8.16438 -24.9718 -1.31982 -24.9718C-10.8238 -24.9718 -17.8528 -26.0888 -24.7234 -28.9609Z" fill="black"/>
</g>
<g clip-path="url(#clip47_2625_4989)">
<path d="M173.277 42.8441C166.406 39.952 159.694 35.3047 150.903 28.2041C141.24 20.4253 136.607 17.1144 129.618 13.7635C120.331 9.25582 110.055 6.94214 97.6802 6.94214V19.2286C100.135 19.0092 102.769 18.9095 105.6 18.9095C124.588 18.9095 133.776 23.3573 151.398 37.5386C153.932 39.593 156.13 41.3283 158.13 42.8441H173.277ZM220.084 42.8441H251.091C253.071 41.3283 255.249 39.593 257.823 37.5386C272.772 25.4915 281.662 20.4652 295.68 19.2286V6.94214C283.305 6.94214 273.029 9.25582 263.723 13.7635C256.734 17.1543 252.1 20.4453 242.478 28.2041C233.667 35.3047 226.954 39.972 220.084 42.8441ZM173.277 6.94214H158.11C162.608 10.5131 167.482 13.5764 172.643 16.0772C181.949 20.5849 192.225 22.8986 204.6 22.8986C216.975 22.8986 227.251 20.5849 236.557 16.0772C241.719 13.5764 246.592 10.5131 251.091 6.94214L220.084 6.94214C213.213 9.8143 206.164 10.9312 196.68 10.9312C187.176 10.9312 180.147 9.8143 173.277 6.94214Z" fill="black"/>
</g>
<g clip-path="url(#clip48_2625_4989)">
<path d="M-24.7234 42.8441C-31.594 39.952 -38.3062 35.3047 -47.0974 28.2041C-56.7598 20.4253 -61.393 17.1144 -68.3824 13.7635C-77.6686 9.25582 -87.9448 6.94214 -100.32 6.94214V19.2286C-97.8646 19.0092 -95.2312 18.9095 -92.3998 18.9095C-73.4116 18.9095 -64.2244 23.3573 -46.6024 37.5386C-44.068 39.593 -41.8702 41.3283 -39.8704 42.8441H-24.7234ZM22.0838 42.8441H53.0906C55.0706 41.3283 57.2486 39.593 59.8226 37.5386C74.7716 25.4915 83.6618 20.4652 97.6802 19.2286V6.94214C85.3052 6.94214 75.029 9.25582 65.723 13.7635C58.7336 17.1543 54.1004 20.4453 44.4776 28.2041C35.6666 35.3047 28.9544 39.972 22.0838 42.8441ZM-24.7234 6.94214H-39.8902C-35.3918 10.5131 -30.5183 13.5764 -25.357 16.0772C-16.051 20.5849 -5.77483 22.8986 6.60017 22.8986C18.9752 22.8986 29.2514 20.5849 38.5574 16.0772C43.7187 13.5764 48.5922 10.5131 53.0906 6.94214L22.0838 6.94214C15.2132 9.8143 8.16438 10.9312 -1.31982 10.9312C-10.8238 10.9312 -17.8528 9.8143 -24.7234 6.94214Z" fill="black"/>
</g>
<g clip-path="url(#clip49_2625_4989)">
<path d="M-24.7234 78.7433C-31.594 75.8512 -38.3062 71.2039 -47.0974 64.1033C-56.7598 56.3245 -61.393 53.0135 -68.3824 49.6627C-77.6686 45.155 -87.9448 42.8413 -100.32 42.8413V55.1278C-97.8646 54.9084 -95.2312 54.8086 -92.3998 54.8086C-73.4116 54.8086 -64.2244 59.2565 -46.6024 73.4378C-44.068 75.4922 -41.8702 77.2274 -39.8704 78.7433H-24.7234ZM22.0838 78.7433H53.0906C55.0706 77.2274 57.2486 75.4922 59.8226 73.4378C74.7716 61.3907 83.6618 56.3644 97.6802 55.1278V42.8413C85.3052 42.8413 75.029 45.155 65.723 49.6627C58.7336 53.0534 54.1004 56.3444 44.4776 64.1033C35.6666 71.2039 28.9544 75.8711 22.0838 78.7433ZM-24.7234 42.8413H-39.8902C-35.3918 46.4123 -30.5183 49.4756 -25.357 51.9764C-16.051 56.4841 -5.77483 58.7977 6.60017 58.7977C18.9752 58.7977 29.2514 56.4841 38.5574 51.9764C43.7187 49.4756 48.5922 46.4123 53.0906 42.8413L22.0838 42.8413C15.2132 45.7135 8.16438 46.8304 -1.31982 46.8304C-10.8238 46.8304 -17.8528 45.7135 -24.7234 42.8413Z" fill="black"/>
</g>
<g clip-path="url(#clip50_2625_4989)">
<path d="M-24.7234 114.647C-31.594 111.755 -38.3062 107.107 -47.0974 100.007C-56.7598 92.2278 -61.393 88.9169 -68.3824 85.566C-77.6686 81.0583 -87.9448 78.7446 -100.32 78.7446V91.0311C-97.8646 90.8117 -95.2312 90.712 -92.3998 90.712C-73.4116 90.712 -64.2244 95.1598 -46.6024 109.341C-44.068 111.396 -41.8702 113.131 -39.8704 114.647H-24.7234ZM22.0838 114.647H53.0906C55.0706 113.131 57.2486 111.396 59.8226 109.341C74.7716 97.294 83.6618 92.2677 97.6802 91.0311V78.7446C85.3052 78.7446 75.029 81.0583 65.723 85.566C58.7336 88.9568 54.1004 92.2478 44.4776 100.007C35.6666 107.107 28.9544 111.774 22.0838 114.647ZM-24.7234 78.7446H-39.8902C-35.3918 82.3156 -30.5183 85.3789 -25.357 87.8797C-16.051 92.3874 -5.77483 94.7011 6.60017 94.7011C18.9752 94.7011 29.2514 92.3874 38.5574 87.8797C43.7187 85.3789 48.5922 82.3156 53.0906 78.7446H22.0838C15.2132 81.6168 8.16438 82.7337 -1.31982 82.7337C-10.8238 82.7337 -17.8528 81.6168 -24.7234 78.7446Z" fill="black"/>
</g>
<g clip-path="url(#clip51_2625_4989)">
<path d="M-24.7234 150.549C-31.594 147.657 -38.3062 143.01 -47.0974 135.909C-56.7598 128.13 -61.393 124.819 -68.3824 121.469C-77.6686 116.961 -87.9448 114.647 -100.32 114.647V126.934C-97.8646 126.714 -95.2312 126.615 -92.3998 126.615C-73.4116 126.615 -64.2244 131.062 -46.6024 145.244C-44.068 147.298 -41.8702 149.033 -39.8704 150.549H-24.7234ZM22.0838 150.549H53.0906C55.0706 149.033 57.2486 147.298 59.8226 145.244C74.7716 133.197 83.6618 128.17 97.6802 126.934V114.647C85.3052 114.647 75.029 116.961 65.723 121.469C58.7336 124.859 54.1004 128.15 44.4776 135.909C35.6666 143.01 28.9544 147.677 22.0838 150.549ZM-24.7234 114.647H-39.8902C-35.3918 118.218 -30.5183 121.282 -25.357 123.782C-16.051 128.29 -5.77483 130.604 6.60017 130.604C18.9752 130.604 29.2514 128.29 38.5574 123.782C43.7187 121.282 48.5922 118.218 53.0906 114.647H22.0838C15.2132 117.519 8.16438 118.636 -1.31982 118.636C-10.8238 118.636 -17.8528 117.519 -24.7234 114.647Z" fill="black"/>
</g>
<g clip-path="url(#clip52_2625_4989)">
<path d="M-24.7234 186.453C-31.594 183.561 -38.3062 178.914 -47.0974 171.813C-56.7598 164.034 -61.393 160.723 -68.3824 157.372C-77.6686 152.865 -87.9448 150.551 -100.32 150.551V162.837C-97.8646 162.618 -95.2312 162.518 -92.3998 162.518C-73.4116 162.518 -64.2244 166.966 -46.6024 181.148C-44.068 183.202 -41.8702 184.937 -39.8704 186.453H-24.7234ZM22.0838 186.453H53.0906C55.0706 184.937 57.2486 183.202 59.8226 181.148C74.7716 169.1 83.6618 164.074 97.6802 162.837V150.551C85.3052 150.551 75.029 152.865 65.723 157.372C58.7336 160.763 54.1004 164.054 44.4776 171.813C35.6666 178.914 28.9544 183.581 22.0838 186.453ZM-24.7234 150.551H-39.8902C-35.3918 154.122 -30.5183 157.185 -25.357 159.686C-16.051 164.194 -5.77483 166.507 6.60017 166.507C18.9752 166.507 29.2514 164.194 38.5574 159.686C43.7187 157.185 48.5922 154.122 53.0906 150.551H22.0838C15.2132 153.423 8.16438 154.54 -1.31982 154.54C-10.8238 154.54 -17.8528 153.423 -24.7234 150.551Z" fill="black"/>
</g>
<g clip-path="url(#clip53_2625_4989)">
<path d="M-24.7234 222.352C-31.594 219.46 -38.3062 214.813 -47.0974 207.712C-56.7598 199.933 -61.393 196.622 -68.3824 193.272C-77.6686 188.764 -87.9448 186.45 -100.32 186.45V198.737C-97.8646 198.517 -95.2312 198.418 -92.3998 198.418C-73.4116 198.418 -64.2244 202.865 -46.6024 217.047C-44.068 219.101 -41.8702 220.836 -39.8704 222.352H-24.7234ZM22.0838 222.352H53.0906C55.0706 220.836 57.2486 219.101 59.8226 217.047C74.7716 205 83.6618 199.973 97.6802 198.737V186.45C85.3052 186.45 75.029 188.764 65.723 193.272C58.7336 196.662 54.1004 199.953 44.4776 207.712C35.6666 214.813 28.9544 219.48 22.0838 222.352ZM-24.7234 186.45H-39.8902C-35.3918 190.021 -30.5183 193.084 -25.357 195.585C-16.051 200.093 -5.77483 202.407 6.60017 202.407C18.9752 202.407 29.2514 200.093 38.5574 195.585C43.7187 193.084 48.5922 190.021 53.0906 186.45H22.0838C15.2132 189.322 8.16438 190.439 -1.31982 190.439C-10.8238 190.439 -17.8528 189.322 -24.7234 186.45Z" fill="black"/>
</g>
<g clip-path="url(#clip54_2625_4989)">
<path d="M-24.7234 258.256C-31.594 255.363 -38.3062 250.716 -47.0974 243.615C-56.7598 235.837 -61.393 232.526 -68.3824 229.175C-77.6686 224.667 -87.9448 222.354 -100.32 222.354V234.64C-97.8646 234.421 -95.2312 234.321 -92.3998 234.321C-73.4116 234.321 -64.2244 238.769 -46.6024 252.95C-44.068 255.004 -41.8702 256.74 -39.8704 258.256H-24.7234ZM22.0838 258.256H53.0906C55.0706 256.74 57.2486 255.004 59.8226 252.95C74.7716 240.903 83.6618 235.877 97.6802 234.64V222.354C85.3052 222.354 75.029 224.667 65.723 229.175C58.7336 232.566 54.1004 235.857 44.4776 243.615C35.6666 250.716 28.9544 255.383 22.0838 258.256ZM-24.7234 222.354H-39.8902C-35.3918 225.924 -30.5183 228.988 -25.357 231.489C-16.051 235.996 -5.77483 238.31 6.60017 238.31C18.9752 238.31 29.2514 235.996 38.5574 231.489C43.7187 228.988 48.5922 225.924 53.0906 222.354H22.0838C15.2132 225.226 8.16438 226.343 -1.31982 226.343C-10.8238 226.343 -17.8528 225.226 -24.7234 222.354Z" fill="black"/>
</g>
<g clip-path="url(#clip55_2625_4989)">
<path d="M-24.7234 294.158C-31.594 291.266 -38.3062 286.619 -47.0974 279.518C-56.7598 271.74 -61.393 268.429 -68.3824 265.078C-77.6686 260.57 -87.9448 258.256 -100.32 258.256V270.543C-97.8646 270.323 -95.2312 270.224 -92.3998 270.224C-73.4116 270.224 -64.2244 274.672 -46.6024 288.853C-44.068 290.907 -41.8702 292.642 -39.8704 294.158H-24.7234ZM22.0838 294.158H53.0906C55.0706 292.642 57.2486 290.907 59.8226 288.853C74.7716 276.806 83.6618 271.779 97.6802 270.543V258.256C85.3052 258.256 75.029 260.57 65.723 265.078C58.7336 268.468 54.1004 271.759 44.4776 279.518C35.6666 286.619 28.9544 291.286 22.0838 294.158ZM-24.7234 258.256H-39.8902C-35.3918 261.827 -30.5183 264.891 -25.357 267.391C-16.051 271.899 -5.77483 274.213 6.60017 274.213C18.9752 274.213 29.2514 271.899 38.5574 267.391C43.7187 264.891 48.5922 261.827 53.0906 258.256H22.0838C15.2132 261.129 8.16438 262.245 -1.31982 262.245C-10.8238 262.245 -17.8528 261.129 -24.7234 258.256Z" fill="black"/>
</g>
<g clip-path="url(#clip56_2625_4989)">
<path d="M-24.7234 330.06C-31.594 327.168 -38.3062 322.52 -47.0974 315.42C-56.7598 307.641 -61.393 304.33 -68.3824 300.979C-77.6686 296.471 -87.9448 294.158 -100.32 294.158V306.444C-97.8646 306.225 -95.2312 306.125 -92.3998 306.125C-73.4116 306.125 -64.2244 310.573 -46.6024 324.754C-44.068 326.809 -41.8702 328.544 -39.8704 330.06H-24.7234ZM22.0838 330.06H53.0906C55.0706 328.544 57.2486 326.809 59.8226 324.754C74.7716 312.707 83.6618 307.681 97.6802 306.444V294.158C85.3052 294.158 75.029 296.471 65.723 300.979C58.7336 304.37 54.1004 307.661 44.4776 315.42C35.6666 322.52 28.9544 327.188 22.0838 330.06ZM-24.7234 294.158H-39.8902C-35.3918 297.729 -30.5183 300.792 -25.357 303.293C-16.051 307.8 -5.77483 310.114 6.60017 310.114C18.9752 310.114 29.2514 307.8 38.5574 303.293C43.7187 300.792 48.5922 297.729 53.0906 294.158H22.0838C15.2132 297.03 8.16438 298.147 -1.31982 298.147C-10.8238 298.147 -17.8528 297.03 -24.7234 294.158Z" fill="black"/>
</g>
<g clip-path="url(#clip57_2625_4989)">
<path d="M173.277 78.7433C166.406 75.8512 159.694 71.2039 150.903 64.1033C141.24 56.3245 136.607 53.0135 129.618 49.6627C120.331 45.155 110.055 42.8413 97.6802 42.8413V55.1278C100.135 54.9084 102.769 54.8086 105.6 54.8086C124.588 54.8086 133.776 59.2565 151.398 73.4378C153.932 75.4922 156.13 77.2274 158.13 78.7433H173.277ZM220.084 78.7433H251.091C253.071 77.2274 255.249 75.4922 257.823 73.4378C272.772 61.3907 281.662 56.3644 295.68 55.1278V42.8413C283.305 42.8413 273.029 45.155 263.723 49.6627C256.734 53.0534 252.1 56.3444 242.478 64.1033C233.667 71.2039 226.954 75.8711 220.084 78.7433ZM173.277 42.8413H158.11C162.608 46.4123 167.482 49.4756 172.643 51.9764C181.949 56.4841 192.225 58.7977 204.6 58.7977C216.975 58.7977 227.251 56.4841 236.557 51.9764C241.719 49.4756 246.592 46.4123 251.091 42.8413L220.084 42.8413C213.213 45.7135 206.164 46.8304 196.68 46.8304C187.176 46.8304 180.147 45.7135 173.277 42.8413Z" fill="black"/>
</g>
<g clip-path="url(#clip58_2625_4989)">
<path d="M173.277 114.647C166.406 111.755 159.694 107.107 150.903 100.007C141.24 92.2278 136.607 88.9169 129.618 85.566C120.331 81.0583 110.055 78.7446 97.6802 78.7446V91.0311C100.135 90.8117 102.769 90.712 105.6 90.712C124.588 90.712 133.776 95.1598 151.398 109.341C153.932 111.395 156.13 113.131 158.13 114.647H173.277ZM220.084 114.647H251.091C253.071 113.131 255.249 111.395 257.823 109.341C272.772 97.294 281.662 92.2677 295.68 91.0311V78.7446C283.305 78.7446 273.029 81.0583 263.723 85.566C256.734 88.9567 252.1 92.2478 242.478 100.007C233.667 107.107 226.954 111.774 220.084 114.647ZM173.277 78.7446H158.11C162.608 82.3156 167.482 85.3789 172.643 87.8797C181.949 92.3874 192.225 94.7011 204.6 94.7011C216.975 94.7011 227.251 92.3874 236.557 87.8797C241.719 85.3789 246.592 82.3156 251.091 78.7446H220.084C213.213 81.6168 206.164 82.7337 196.68 82.7337C187.176 82.7337 180.147 81.6168 173.277 78.7446Z" fill="black"/>
</g>
<g clip-path="url(#clip59_2625_4989)">
<path d="M173.277 150.549C166.406 147.657 159.694 143.01 150.903 135.909C141.24 128.13 136.607 124.819 129.618 121.469C120.331 116.961 110.055 114.647 97.6802 114.647V126.934C100.135 126.714 102.769 126.615 105.6 126.615C124.588 126.615 133.776 131.062 151.398 145.244C153.932 147.298 156.13 149.033 158.13 150.549H173.277ZM220.084 150.549H251.091C253.071 149.033 255.249 147.298 257.823 145.244C272.772 133.197 281.662 128.17 295.68 126.934V114.647C283.305 114.647 273.029 116.961 263.723 121.469C256.734 124.859 252.1 128.15 242.478 135.909C233.667 143.01 226.954 147.677 220.084 150.549ZM173.277 114.647H158.11C162.608 118.218 167.482 121.282 172.643 123.782C181.949 128.29 192.225 130.604 204.6 130.604C216.975 130.604 227.251 128.29 236.557 123.782C241.719 121.282 246.592 118.218 251.091 114.647H220.084C213.213 117.519 206.164 118.636 196.68 118.636C187.176 118.636 180.147 117.519 173.277 114.647Z" fill="black"/>
</g>
<g clip-path="url(#clip60_2625_4989)">
<path d="M173.277 186.453C166.406 183.561 159.694 178.914 150.903 171.813C141.24 164.034 136.607 160.723 129.618 157.372C120.331 152.865 110.055 150.551 97.6802 150.551V162.837C100.135 162.618 102.769 162.518 105.6 162.518C124.588 162.518 133.776 166.966 151.398 181.148C153.932 183.202 156.13 184.937 158.13 186.453H173.277ZM220.084 186.453H251.091C253.071 184.937 255.249 183.202 257.823 181.148C272.772 169.1 281.662 164.074 295.68 162.837V150.551C283.305 150.551 273.029 152.865 263.723 157.372C256.734 160.763 252.1 164.054 242.478 171.813C233.667 178.914 226.954 183.581 220.084 186.453ZM173.277 150.551H158.11C162.608 154.122 167.482 157.185 172.643 159.686C181.949 164.194 192.225 166.507 204.6 166.507C216.975 166.507 227.251 164.194 236.557 159.686C241.719 157.185 246.592 154.122 251.091 150.551H220.084C213.213 153.423 206.164 154.54 196.68 154.54C187.176 154.54 180.147 153.423 173.277 150.551Z" fill="black"/>
</g>
<g clip-path="url(#clip61_2625_4989)">
<path d="M173.277 222.352C166.406 219.46 159.694 214.813 150.903 207.712C141.24 199.933 136.607 196.622 129.618 193.272C120.331 188.764 110.055 186.45 97.6802 186.45V198.737C100.135 198.517 102.769 198.418 105.6 198.418C124.588 198.418 133.776 202.865 151.398 217.047C153.932 219.101 156.13 220.836 158.13 222.352H173.277ZM220.084 222.352H251.091C253.071 220.836 255.249 219.101 257.823 217.047C272.772 205 281.662 199.973 295.68 198.737V186.45C283.305 186.45 273.029 188.764 263.723 193.272C256.734 196.662 252.1 199.953 242.478 207.712C233.667 214.813 226.954 219.48 220.084 222.352ZM173.277 186.45H158.11C162.608 190.021 167.482 193.084 172.643 195.585C181.949 200.093 192.225 202.407 204.6 202.407C216.975 202.407 227.251 200.093 236.557 195.585C241.719 193.084 246.592 190.021 251.091 186.45H220.084C213.213 189.322 206.164 190.439 196.68 190.439C187.176 190.439 180.147 189.322 173.277 186.45Z" fill="black"/>
</g>
<g clip-path="url(#clip62_2625_4989)">
<path d="M173.277 258.256C166.406 255.363 159.694 250.716 150.903 243.615C141.24 235.837 136.607 232.526 129.618 229.175C120.331 224.667 110.055 222.354 97.6802 222.354V234.64C100.135 234.421 102.769 234.321 105.6 234.321C124.588 234.321 133.776 238.769 151.398 252.95C153.932 255.004 156.13 256.74 158.13 258.256H173.277ZM220.084 258.256H251.091C253.071 256.74 255.249 255.004 257.823 252.95C272.772 240.903 281.662 235.877 295.68 234.64V222.354C283.305 222.354 273.029 224.667 263.723 229.175C256.734 232.566 252.1 235.857 242.478 243.615C233.667 250.716 226.954 255.383 220.084 258.256ZM173.277 222.354H158.11C162.608 225.924 167.482 228.988 172.643 231.489C181.949 235.996 192.225 238.31 204.6 238.31C216.975 238.31 227.251 235.996 236.557 231.489C241.719 228.988 246.592 225.924 251.091 222.354H220.084C213.213 225.226 206.164 226.343 196.68 226.343C187.176 226.343 180.147 225.226 173.277 222.354Z" fill="black"/>
</g>
<g clip-path="url(#clip63_2625_4989)">
<path d="M173.277 294.158C166.406 291.266 159.694 286.619 150.903 279.518C141.24 271.74 136.607 268.429 129.618 265.078C120.331 260.57 110.055 258.256 97.6802 258.256V270.543C100.135 270.323 102.769 270.224 105.6 270.224C124.588 270.224 133.776 274.672 151.398 288.853C153.932 290.907 156.13 292.642 158.13 294.158H173.277ZM220.084 294.158H251.091C253.071 292.642 255.249 290.907 257.823 288.853C272.772 276.806 281.662 271.779 295.68 270.543V258.256C283.305 258.256 273.029 260.57 263.723 265.078C256.734 268.468 252.1 271.759 242.478 279.518C233.667 286.619 226.954 291.286 220.084 294.158ZM173.277 258.256H158.11C162.608 261.827 167.482 264.891 172.643 267.391C181.949 271.899 192.225 274.213 204.6 274.213C216.975 274.213 227.251 271.899 236.557 267.391C241.719 264.891 246.592 261.827 251.091 258.256H220.084C213.213 261.129 206.164 262.245 196.68 262.245C187.176 262.245 180.147 261.129 173.277 258.256Z" fill="black"/>
</g>
<g clip-path="url(#clip64_2625_4989)">
<path d="M173.277 330.06C166.406 327.168 159.694 322.52 150.903 315.42C141.24 307.641 136.607 304.33 129.618 300.979C120.331 296.471 110.055 294.158 97.6802 294.158V306.444C100.135 306.225 102.769 306.125 105.6 306.125C124.588 306.125 133.776 310.573 151.398 324.754C153.932 326.809 156.13 328.544 158.13 330.06H173.277ZM220.084 330.06H251.091C253.071 328.544 255.249 326.809 257.823 324.754C272.772 312.707 281.662 307.681 295.68 306.444V294.158C283.305 294.158 273.029 296.471 263.723 300.979C256.734 304.37 252.1 307.661 242.478 315.42C233.667 322.52 226.954 327.188 220.084 330.06ZM173.277 294.158H158.11C162.608 297.729 167.482 300.792 172.643 303.293C181.949 307.8 192.225 310.114 204.6 310.114C216.975 310.114 227.251 307.8 236.557 303.293C241.719 300.792 246.592 297.729 251.091 294.158H220.084C213.213 297.03 206.164 298.147 196.68 298.147C187.176 298.147 180.147 297.03 173.277 294.158Z" fill="black"/>
</g>
<g clip-path="url(#clip65_2625_4989)">
<path d="M-24.7234 365.961C-31.594 363.069 -38.3062 358.421 -47.0974 351.321C-56.7598 343.542 -61.393 340.231 -68.3824 336.88C-77.6686 332.373 -87.9448 330.059 -100.32 330.059V342.345C-97.8646 342.126 -95.2312 342.026 -92.3998 342.026C-73.4116 342.026 -64.2244 346.474 -46.6024 360.655C-44.068 362.71 -41.8702 364.445 -39.8704 365.961H-24.7234ZM22.0838 365.961H53.0906C55.0706 364.445 57.2486 362.71 59.8226 360.655C74.7716 348.608 83.6618 343.582 97.6802 342.345V330.059C85.3052 330.059 75.029 332.373 65.723 336.88C58.7336 340.271 54.1004 343.562 44.4776 351.321C35.6666 358.421 28.9544 363.089 22.0838 365.961ZM-24.7234 330.059H-39.8902C-35.3918 333.63 -30.5183 336.693 -25.357 339.194C-16.051 343.702 -5.77483 346.015 6.60017 346.015C18.9752 346.015 29.2514 343.702 38.5574 339.194C43.7187 336.693 48.5922 333.63 53.0906 330.059H22.0838C15.2132 332.931 8.16438 334.048 -1.31982 334.048C-10.8238 334.048 -17.8528 332.931 -24.7234 330.059Z" fill="black"/>
</g>
<g clip-path="url(#clip66_2625_4989)">
<path d="M173.277 365.961C166.406 363.069 159.694 358.421 150.903 351.321C141.24 343.542 136.607 340.231 129.618 336.88C120.331 332.373 110.055 330.059 97.6802 330.059V342.345C100.135 342.126 102.769 342.026 105.6 342.026C124.588 342.026 133.776 346.474 151.398 360.655C153.932 362.71 156.13 364.445 158.13 365.961H173.277ZM220.084 365.961H251.091C253.071 364.445 255.249 362.71 257.823 360.655C272.772 348.608 281.662 343.582 295.68 342.345V330.059C283.305 330.059 273.029 332.373 263.723 336.88C256.734 340.271 252.1 343.562 242.478 351.321C233.667 358.421 226.954 363.089 220.084 365.961ZM173.277 330.059H158.11C162.608 333.63 167.482 336.693 172.643 339.194C181.949 343.702 192.225 346.015 204.6 346.015C216.975 346.015 227.251 343.702 236.557 339.194C241.719 336.693 246.592 333.63 251.091 330.059H220.084C213.213 332.931 206.164 334.048 196.68 334.048C187.176 334.048 180.147 332.931 173.277 330.059Z" fill="black"/>
</g>
</g>
</g>
<defs>
<clipPath id="clip0_2625_4989">
<rect width="990" height="337" rx="8" transform="matrix(-1 0 0 1 990 0)" fill="white"/>
</clipPath>
<clipPath id="clip1_2625_4989">
<rect width="198" height="35.902" fill="white" transform="matrix(-1 0 0 1 1087.68 -28.9609)"/>
</clipPath>
<clipPath id="clip2_2625_4989">
<rect width="198" height="35.902" fill="white" transform="matrix(-1 0 0 1 889.68 -28.9609)"/>
</clipPath>
<clipPath id="clip3_2625_4989">
<rect width="198" height="35.902" fill="white" transform="matrix(-1 0 0 1 1087.68 6.94214)"/>
</clipPath>
<clipPath id="clip4_2625_4989">
<rect width="198" height="35.902" fill="white" transform="matrix(-1 0 0 1 889.68 6.94214)"/>
</clipPath>
<clipPath id="clip5_2625_4989">
<rect width="198" height="35.902" fill="white" transform="matrix(-1 0 0 1 889.68 42.8413)"/>
</clipPath>
<clipPath id="clip6_2625_4989">
<rect width="198" height="35.902" fill="white" transform="matrix(-1 0 0 1 889.68 78.7446)"/>
</clipPath>
<clipPath id="clip7_2625_4989">
<rect width="198" height="35.902" fill="white" transform="matrix(-1 0 0 1 889.68 114.647)"/>
</clipPath>
<clipPath id="clip8_2625_4989">
<rect width="198" height="35.902" fill="white" transform="matrix(-1 0 0 1 889.68 150.551)"/>
</clipPath>
<clipPath id="clip9_2625_4989">
<rect width="198" height="35.902" fill="white" transform="matrix(-1 0 0 1 889.68 186.45)"/>
</clipPath>
<clipPath id="clip10_2625_4989">
<rect width="198" height="35.902" fill="white" transform="matrix(-1 0 0 1 889.68 222.354)"/>
</clipPath>
<clipPath id="clip11_2625_4989">
<rect width="198" height="35.902" fill="white" transform="matrix(-1 0 0 1 889.68 258.256)"/>
</clipPath>
<clipPath id="clip12_2625_4989">
<rect width="198" height="35.902" fill="white" transform="matrix(-1 0 0 1 889.68 294.158)"/>
</clipPath>
<clipPath id="clip13_2625_4989">
<rect width="198" height="35.902" fill="white" transform="matrix(-1 0 0 1 1087.68 42.8413)"/>
</clipPath>
<clipPath id="clip14_2625_4989">
<rect width="198" height="35.902" fill="white" transform="matrix(-1 0 0 1 1087.68 78.7446)"/>
</clipPath>
<clipPath id="clip15_2625_4989">
<rect width="198" height="35.902" fill="white" transform="matrix(-1 0 0 1 1087.68 114.647)"/>
</clipPath>
<clipPath id="clip16_2625_4989">
<rect width="198" height="35.902" fill="white" transform="matrix(-1 0 0 1 1087.68 150.551)"/>
</clipPath>
<clipPath id="clip17_2625_4989">
<rect width="198" height="35.902" fill="white" transform="matrix(-1 0 0 1 1087.68 186.45)"/>
</clipPath>
<clipPath id="clip18_2625_4989">
<rect width="198" height="35.902" fill="white" transform="matrix(-1 0 0 1 1087.68 222.354)"/>
</clipPath>
<clipPath id="clip19_2625_4989">
<rect width="198" height="35.902" fill="white" transform="matrix(-1 0 0 1 1087.68 258.256)"/>
</clipPath>
<clipPath id="clip20_2625_4989">
<rect width="198" height="35.902" fill="white" transform="matrix(-1 0 0 1 1087.68 294.158)"/>
</clipPath>
<clipPath id="clip21_2625_4989">
<rect width="198" height="35.902" fill="white" transform="matrix(-1 0 0 1 889.68 330.059)"/>
</clipPath>
<clipPath id="clip22_2625_4989">
<rect width="198" height="35.902" fill="white" transform="matrix(-1 0 0 1 1087.68 330.059)"/>
</clipPath>
<clipPath id="clip23_2625_4989">
<rect width="198" height="35.902" fill="white" transform="matrix(-1 0 0 1 691.68 -28.9609)"/>
</clipPath>
<clipPath id="clip24_2625_4989">
<rect width="198" height="35.902" fill="white" transform="matrix(-1 0 0 1 493.68 -28.9609)"/>
</clipPath>
<clipPath id="clip25_2625_4989">
<rect width="198" height="35.902" fill="white" transform="matrix(-1 0 0 1 691.68 6.94214)"/>
</clipPath>
<clipPath id="clip26_2625_4989">
<rect width="198" height="35.902" fill="white" transform="matrix(-1 0 0 1 493.68 6.94214)"/>
</clipPath>
<clipPath id="clip27_2625_4989">
<rect width="198" height="35.902" fill="white" transform="matrix(-1 0 0 1 493.68 42.8413)"/>
</clipPath>
<clipPath id="clip28_2625_4989">
<rect width="198" height="35.902" fill="white" transform="matrix(-1 0 0 1 493.68 78.7446)"/>
</clipPath>
<clipPath id="clip29_2625_4989">
<rect width="198" height="35.902" fill="white" transform="matrix(-1 0 0 1 493.68 114.647)"/>
</clipPath>
<clipPath id="clip30_2625_4989">
<rect width="198" height="35.902" fill="white" transform="matrix(-1 0 0 1 493.68 150.551)"/>
</clipPath>
<clipPath id="clip31_2625_4989">
<rect width="198" height="35.902" fill="white" transform="matrix(-1 0 0 1 493.68 186.45)"/>
</clipPath>
<clipPath id="clip32_2625_4989">
<rect width="198" height="35.902" fill="white" transform="matrix(-1 0 0 1 493.68 222.354)"/>
</clipPath>
<clipPath id="clip33_2625_4989">
<rect width="198" height="35.902" fill="white" transform="matrix(-1 0 0 1 493.68 258.256)"/>
</clipPath>
<clipPath id="clip34_2625_4989">
<rect width="198" height="35.902" fill="white" transform="matrix(-1 0 0 1 493.68 294.158)"/>
</clipPath>
<clipPath id="clip35_2625_4989">
<rect width="198" height="35.902" fill="white" transform="matrix(-1 0 0 1 691.68 42.8413)"/>
</clipPath>
<clipPath id="clip36_2625_4989">
<rect width="198" height="35.902" fill="white" transform="matrix(-1 0 0 1 691.68 78.7446)"/>
</clipPath>
<clipPath id="clip37_2625_4989">
<rect width="198" height="35.902" fill="white" transform="matrix(-1 0 0 1 691.68 114.647)"/>
</clipPath>
<clipPath id="clip38_2625_4989">
<rect width="198" height="35.902" fill="white" transform="matrix(-1 0 0 1 691.68 150.551)"/>
</clipPath>
<clipPath id="clip39_2625_4989">
<rect width="198" height="35.902" fill="white" transform="matrix(-1 0 0 1 691.68 186.45)"/>
</clipPath>
<clipPath id="clip40_2625_4989">
<rect width="198" height="35.902" fill="white" transform="matrix(-1 0 0 1 691.68 222.354)"/>
</clipPath>
<clipPath id="clip41_2625_4989">
<rect width="198" height="35.902" fill="white" transform="matrix(-1 0 0 1 691.68 258.256)"/>
</clipPath>
<clipPath id="clip42_2625_4989">
<rect width="198" height="35.902" fill="white" transform="matrix(-1 0 0 1 691.68 294.158)"/>
</clipPath>
<clipPath id="clip43_2625_4989">
<rect width="198" height="35.902" fill="white" transform="matrix(-1 0 0 1 493.68 330.059)"/>
</clipPath>
<clipPath id="clip44_2625_4989">
<rect width="198" height="35.902" fill="white" transform="matrix(-1 0 0 1 691.68 330.059)"/>
</clipPath>
<clipPath id="clip45_2625_4989">
<rect width="198" height="35.902" fill="white" transform="matrix(-1 0 0 1 295.68 -28.9609)"/>
</clipPath>
<clipPath id="clip46_2625_4989">
<rect width="198" height="35.902" fill="white" transform="matrix(-1 0 0 1 97.6802 -28.9609)"/>
</clipPath>
<clipPath id="clip47_2625_4989">
<rect width="198" height="35.902" fill="white" transform="matrix(-1 0 0 1 295.68 6.94214)"/>
</clipPath>
<clipPath id="clip48_2625_4989">
<rect width="198" height="35.902" fill="white" transform="matrix(-1 0 0 1 97.6802 6.94214)"/>
</clipPath>
<clipPath id="clip49_2625_4989">
<rect width="198" height="35.902" fill="white" transform="matrix(-1 0 0 1 97.6802 42.8413)"/>
</clipPath>
<clipPath id="clip50_2625_4989">
<rect width="198" height="35.902" fill="white" transform="matrix(-1 0 0 1 97.6802 78.7446)"/>
</clipPath>
<clipPath id="clip51_2625_4989">
<rect width="198" height="35.902" fill="white" transform="matrix(-1 0 0 1 97.6802 114.647)"/>
</clipPath>
<clipPath id="clip52_2625_4989">
<rect width="198" height="35.902" fill="white" transform="matrix(-1 0 0 1 97.6802 150.551)"/>
</clipPath>
<clipPath id="clip53_2625_4989">
<rect width="198" height="35.902" fill="white" transform="matrix(-1 0 0 1 97.6802 186.45)"/>
</clipPath>
<clipPath id="clip54_2625_4989">
<rect width="198" height="35.902" fill="white" transform="matrix(-1 0 0 1 97.6802 222.354)"/>
</clipPath>
<clipPath id="clip55_2625_4989">
<rect width="198" height="35.902" fill="white" transform="matrix(-1 0 0 1 97.6802 258.256)"/>
</clipPath>
<clipPath id="clip56_2625_4989">
<rect width="198" height="35.902" fill="white" transform="matrix(-1 0 0 1 97.6802 294.158)"/>
</clipPath>
<clipPath id="clip57_2625_4989">
<rect width="198" height="35.902" fill="white" transform="matrix(-1 0 0 1 295.68 42.8413)"/>
</clipPath>
<clipPath id="clip58_2625_4989">
<rect width="198" height="35.902" fill="white" transform="matrix(-1 0 0 1 295.68 78.7446)"/>
</clipPath>
<clipPath id="clip59_2625_4989">
<rect width="198" height="35.902" fill="white" transform="matrix(-1 0 0 1 295.68 114.647)"/>
</clipPath>
<clipPath id="clip60_2625_4989">
<rect width="198" height="35.902" fill="white" transform="matrix(-1 0 0 1 295.68 150.551)"/>
</clipPath>
<clipPath id="clip61_2625_4989">
<rect width="198" height="35.902" fill="white" transform="matrix(-1 0 0 1 295.68 186.45)"/>
</clipPath>
<clipPath id="clip62_2625_4989">
<rect width="198" height="35.902" fill="white" transform="matrix(-1 0 0 1 295.68 222.354)"/>
</clipPath>
<clipPath id="clip63_2625_4989">
<rect width="198" height="35.902" fill="white" transform="matrix(-1 0 0 1 295.68 258.256)"/>
</clipPath>
<clipPath id="clip64_2625_4989">
<rect width="198" height="35.902" fill="white" transform="matrix(-1 0 0 1 295.68 294.158)"/>
</clipPath>
<clipPath id="clip65_2625_4989">
<rect width="198" height="35.902" fill="white" transform="matrix(-1 0 0 1 97.6802 330.059)"/>
</clipPath>
<clipPath id="clip66_2625_4989">
<rect width="198" height="35.902" fill="white" transform="matrix(-1 0 0 1 295.68 330.059)"/>
</clipPath>
</defs>
</svg>
