<svg viewBox="0 0 16 16" fill="none" xmlns="http://www.w3.org/2000/svg">
<path d="M13.3335 3.99984H8.00016L6.66683 2.6665H2.66683C1.9335 2.6665 1.3335 3.2665 1.3335 3.99984V11.9998C1.3335 12.7332 1.9335 13.3332 2.66683 13.3332H13.3335C14.0668 13.3332 14.6668 12.7332 14.6668 11.9998V5.33317C14.6668 4.59984 14.0668 3.99984 13.3335 3.99984ZM13.3335 11.9998H2.66683V3.99984H6.1135L7.44683 5.33317H13.3335V11.9998ZM8.72016 9.35984L8.26016 11.3332L10.0002 10.3132L11.7402 11.3332L11.2802 9.35984L12.8135 8.03317L10.7935 7.85984L10.0002 5.99984L9.20683 7.85984L7.18683 8.03317L8.72016 9.35984Z" fill="currentColor"/>
</svg>
