<svg width="23" height="23" viewBox="0 0 23 23" fill="none" xmlns="http://www.w3.org/2000/svg">
<path d="M18.5712 3.71436H3.71408C2.68336 3.71436 1.86622 4.54078 1.86622 5.5715L1.85693 16.7144C1.85693 17.7451 2.68336 18.5715 3.71408 18.5715H18.5712C19.6019 18.5715 20.4284 17.7451 20.4284 16.7144V5.5715C20.4284 4.54078 19.6019 3.71436 18.5712 3.71436ZM11.1426 9.28578H7.42836V10.2144H10.2141C10.7248 10.2144 11.1426 10.6322 11.1426 11.1429V13.9286C11.1426 14.4394 10.7248 14.8572 10.2141 14.8572H9.28551V15.7858H7.42836V14.8572H5.57122V13.0001H9.28551V12.0715H6.49979C5.98908 12.0715 5.57122 11.6536 5.57122 11.1429V8.35721C5.57122 7.8465 5.98908 7.42864 6.49979 7.42864H7.42836V6.50007H9.28551V7.42864H11.1426V9.28578ZM14.8569 15.0894L12.9998 13.2322H16.7141L14.8569 15.0894ZM12.9998 9.28578L14.8569 7.42864L16.7141 9.28578H12.9998Z" fill="#D72D36"/>
</svg>
