<svg viewBox="0 0 40 40" fill="none" xmlns="http://www.w3.org/2000/svg">
<g clip-path="url(#clip0_5025_6740)">
<path d="M6.66667 21.6667C8.5 21.6667 10 20.1667 10 18.3333C10 16.5 8.5 15 6.66667 15C4.83333 15 3.33333 16.5 3.33333 18.3333C3.33333 20.1667 4.83333 21.6667 6.66667 21.6667ZM8.55 23.5C7.93333 23.4 7.31667 23.3333 6.66667 23.3333C5.01667 23.3333 3.45 23.6833 2.03333 24.3C0.8 24.8333 0 26.0333 0 27.3833V30H7.5V27.3167C7.5 25.9333 7.88333 24.6333 8.55 23.5ZM33.3333 21.6667C35.1667 21.6667 36.6667 20.1667 36.6667 18.3333C36.6667 16.5 35.1667 15 33.3333 15C31.5 15 30 16.5 30 18.3333C30 20.1667 31.5 21.6667 33.3333 21.6667ZM40 27.3833C40 26.0333 39.2 24.8333 37.9667 24.3C36.55 23.6833 34.9833 23.3333 33.3333 23.3333C32.6833 23.3333 32.0667 23.4 31.45 23.5C32.1167 24.6333 32.5 25.9333 32.5 27.3167V30H40V27.3833ZM27.0667 22.75C25.1167 21.8833 22.7167 21.25 20 21.25C17.2833 21.25 14.8833 21.9 12.9333 22.75C11.1333 23.55 10 25.35 10 27.3167V30H30V27.3167C30 25.35 28.8667 23.55 27.0667 22.75ZM13.45 26.6667C13.6 26.2833 13.6667 26.0167 14.9667 25.5167C16.5833 24.8833 18.2833 24.5833 20 24.5833C21.7167 24.5833 23.4167 24.8833 25.0333 25.5167C26.3167 26.0167 26.3833 26.2833 26.55 26.6667H13.45ZM20 13.3333C20.9167 13.3333 21.6667 14.0833 21.6667 15C21.6667 15.9167 20.9167 16.6667 20 16.6667C19.0833 16.6667 18.3333 15.9167 18.3333 15C18.3333 14.0833 19.0833 13.3333 20 13.3333ZM20 10C17.2333 10 15 12.2333 15 15C15 17.7667 17.2333 20 20 20C22.7667 20 25 17.7667 25 15C25 12.2333 22.7667 10 20 10Z" fill="currentColor"/>
</g>
<defs>
<clipPath id="clip0_5025_6740">
<rect width="40" height="40" fill="white"/>
</clipPath>
</defs>
</svg>
