<svg viewBox="0 0 24 24" fill="none" xmlns="http://www.w3.org/2000/svg">
<path d="M18 21L12.7045 15.78L12.0682 16.41C11.7197 16.755 11.322 17.0175 10.875 17.1975C10.428 17.3775 9.9697 17.4675 9.5 17.4675C9.0303 17.4675 8.56818 17.3775 8.11364 17.1975C7.65909 17.0175 7.25758 16.755 6.90909 16.41L3.06818 12.585C2.7197 12.24 2.45455 11.8463 2.27273 11.4038C2.09091 10.9613 2 10.5075 2 10.0425C2 9.5775 2.09091 9.12375 2.27273 8.68125C2.45455 8.23875 2.7197 7.845 3.06818 7.5L5.63636 4.9575C5.98485 4.6125 6.38258 4.35 6.82955 4.17C7.27652 3.99 7.73485 3.9 8.20455 3.9C8.67424 3.9 9.13258 3.99 9.57955 4.17C10.0265 4.35 10.4242 4.6125 10.7727 4.9575L14.6364 8.76C14.9848 9.105 15.25 9.5025 15.4318 9.9525C15.6136 10.4025 15.7045 10.86 15.7045 11.325C15.7045 11.79 15.6136 12.2437 15.4318 12.6862C15.25 13.1287 14.9848 13.5225 14.6364 13.8675L14 14.4975L19.2727 19.74L18 21ZM9.5 15.6675C9.72727 15.6675 9.95076 15.6262 10.1705 15.5437C10.3902 15.4612 10.5909 15.33 10.7727 15.15L13.3636 12.585C13.5455 12.42 13.678 12.225 13.7614 12C13.8447 11.775 13.8864 11.55 13.8864 11.325C13.8864 11.1 13.8447 10.875 13.7614 10.65C13.678 10.425 13.5455 10.2225 13.3636 10.0425L9.5 6.24C9.33333 6.06 9.13636 5.925 8.90909 5.835C8.68182 5.745 8.45455 5.7 8.22727 5.7C8 5.7 7.77273 5.745 7.54545 5.835C7.31818 5.925 7.11364 6.06 6.93182 6.24L4.36364 8.7825C4.18182 8.9625 4.04924 9.16125 3.96591 9.37875C3.88258 9.59625 3.84091 9.8175 3.84091 10.0425C3.84091 10.2675 3.88258 10.4925 3.96591 10.7175C4.04924 10.9425 4.18182 11.145 4.36364 11.325L8.22727 15.15C8.39394 15.33 8.59091 15.4612 8.81818 15.5437C9.04545 15.6262 9.27273 15.6675 9.5 15.6675ZM5.79545 11.19C5.99242 11.19 6.1553 11.1262 6.28409 10.9987C6.41288 10.8712 6.47727 10.71 6.47727 10.515C6.47727 10.32 6.41288 10.1587 6.28409 10.0312C6.1553 9.90375 5.99242 9.84 5.79545 9.84C5.59849 9.84 5.43561 9.90375 5.30682 10.0312C5.17803 10.1587 5.11364 10.32 5.11364 10.515C5.11364 10.71 5.17803 10.8712 5.30682 10.9987C5.43561 11.1262 5.59849 11.19 5.79545 11.19ZM7.25 9.7725C7.44697 9.7725 7.60985 9.70875 7.73864 9.58125C7.86742 9.45375 7.93182 9.2925 7.93182 9.0975C7.93182 8.9025 7.86742 8.74125 7.73864 8.61375C7.60985 8.48625 7.44697 8.4225 7.25 8.4225C7.05303 8.4225 6.89015 8.48625 6.76136 8.61375C6.63258 8.74125 6.56818 8.9025 6.56818 9.0975C6.56818 9.2925 6.63258 9.45375 6.76136 9.58125C6.89015 9.70875 7.05303 9.7725 7.25 9.7725ZM7.40909 12.7875C7.60606 12.7875 7.76894 12.7238 7.89773 12.5963C8.02652 12.4688 8.09091 12.3075 8.09091 12.1125C8.09091 11.9175 8.02652 11.7563 7.89773 11.6287C7.76894 11.5013 7.60606 11.4375 7.40909 11.4375C7.21212 11.4375 7.04924 11.5013 6.92045 11.6287C6.79167 11.7563 6.72727 11.9175 6.72727 12.1125C6.72727 12.3075 6.79167 12.4688 6.92045 12.5963C7.04924 12.7238 7.21212 12.7875 7.40909 12.7875ZM8.68182 8.3325C8.87879 8.3325 9.04167 8.26875 9.17045 8.14125C9.29924 8.01375 9.36364 7.8525 9.36364 7.6575C9.36364 7.4625 9.29924 7.30125 9.17045 7.17375C9.04167 7.04625 8.87879 6.9825 8.68182 6.9825C8.48485 6.9825 8.32197 7.04625 8.19318 7.17375C8.06439 7.30125 8 7.4625 8 7.6575C8 7.8525 8.06439 8.01375 8.19318 8.14125C8.32197 8.26875 8.48485 8.3325 8.68182 8.3325ZM8.86364 11.37C9.06061 11.37 9.22349 11.3063 9.35227 11.1788C9.48106 11.0513 9.54545 10.89 9.54545 10.695C9.54545 10.5 9.48106 10.3387 9.35227 10.2112C9.22349 10.0837 9.06061 10.02 8.86364 10.02C8.66667 10.02 8.50379 10.0837 8.375 10.2112C8.24621 10.3387 8.18182 10.5 8.18182 10.695C8.18182 10.89 8.24621 11.0513 8.375 11.1788C8.50379 11.3063 8.66667 11.37 8.86364 11.37ZM9 14.385C9.19697 14.385 9.35985 14.3212 9.48864 14.1937C9.61742 14.0662 9.68182 13.905 9.68182 13.71C9.68182 13.515 9.61742 13.3538 9.48864 13.2262C9.35985 13.0988 9.19697 13.035 9 13.035C8.80303 13.035 8.64015 13.0988 8.51136 13.2262C8.38258 13.3538 8.31818 13.515 8.31818 13.71C8.31818 13.905 8.38258 14.0662 8.51136 14.1937C8.64015 14.3212 8.80303 14.385 9 14.385ZM10.2955 9.93C10.4924 9.93 10.6553 9.86625 10.7841 9.73875C10.9129 9.61125 10.9773 9.45 10.9773 9.255C10.9773 9.06 10.9129 8.89875 10.7841 8.77125C10.6553 8.64375 10.4924 8.58 10.2955 8.58C10.0985 8.58 9.93561 8.64375 9.80682 8.77125C9.67803 8.89875 9.61364 9.06 9.61364 9.255C9.61364 9.45 9.67803 9.61125 9.80682 9.73875C9.93561 9.86625 10.0985 9.93 10.2955 9.93ZM10.4545 12.945C10.6515 12.945 10.8144 12.8813 10.9432 12.7537C11.072 12.6263 11.1364 12.465 11.1364 12.27C11.1364 12.075 11.072 11.9137 10.9432 11.7862C10.8144 11.6587 10.6515 11.595 10.4545 11.595C10.2576 11.595 10.0947 11.6587 9.96591 11.7862C9.83712 11.9137 9.77273 12.075 9.77273 12.27C9.77273 12.465 9.83712 12.6263 9.96591 12.7537C10.0947 12.8813 10.2576 12.945 10.4545 12.945ZM11.9091 11.505C12.1061 11.505 12.2689 11.4412 12.3977 11.3138C12.5265 11.1862 12.5909 11.025 12.5909 10.83C12.5909 10.635 12.5265 10.4738 12.3977 10.3463C12.2689 10.2188 12.1061 10.155 11.9091 10.155C11.7121 10.155 11.5492 10.2188 11.4205 10.3463C11.2917 10.4738 11.2273 10.635 11.2273 10.83C11.2273 11.025 11.2917 11.1862 11.4205 11.3138C11.5492 11.4412 11.7121 11.505 11.9091 11.505ZM18.8182 9.3C17.9394 9.3 17.1894 8.9925 16.5682 8.3775C15.947 7.7625 15.6364 7.02 15.6364 6.15C15.6364 5.28 15.947 4.5375 16.5682 3.9225C17.1894 3.3075 17.9394 3 18.8182 3C19.697 3 20.447 3.3075 21.0682 3.9225C21.6894 4.5375 22 5.28 22 6.15C22 7.02 21.6894 7.7625 21.0682 8.3775C20.447 8.9925 19.697 9.3 18.8182 9.3ZM18.8182 7.5C19.197 7.5 19.5189 7.36875 19.7841 7.10625C20.0492 6.84375 20.1818 6.525 20.1818 6.15C20.1818 5.775 20.0492 5.45625 19.7841 5.19375C19.5189 4.93125 19.197 4.8 18.8182 4.8C18.4394 4.8 18.1174 4.93125 17.8523 5.19375C17.5871 5.45625 17.4545 5.775 17.4545 6.15C17.4545 6.525 17.5871 6.84375 17.8523 7.10625C18.1174 7.36875 18.4394 7.5 18.8182 7.5Z" fill="currentColor"/>
</svg>
