<svg viewBox="0 0 468 226" fill="none" xmlns="http://www.w3.org/2000/svg">
<path fill-rule="evenodd" clip-rule="evenodd" d="M260.457 155.791C263.315 155.791 264.759 157.471 264.76 159.09C264.76 160.481 263.548 161.912 261.919 162.555L263.214 163.881L264.781 162.428H268.226V163.111L265.156 166.099C265.825 166.931 266.283 167.263 266.763 167.263C267.054 167.263 267.534 167.18 268.393 166.454L269.834 169.048C268.851 170.002 267.724 170.768 266.345 170.768C265.156 170.768 264.13 170.291 263.381 169.67L263.385 169.665C262.258 170.413 260.923 170.764 259.311 170.764C256.303 170.764 253.78 169.105 253.78 166.366C253.78 164.375 255.325 162.735 257.453 162.074C256.449 161.47 255.656 160.416 255.656 159.357C255.656 156.972 257.598 155.791 260.457 155.791ZM258.915 164.581C258.061 165.058 257.827 165.784 257.827 166.156L257.832 166.16C257.832 166.887 258.457 167.486 259.523 167.486C259.963 167.486 260.589 167.359 261.047 166.965L258.915 164.581ZM260.232 158.591C259.461 158.591 259.228 159.173 259.228 159.606C259.228 160.145 259.541 160.438 259.999 160.831H260.003C260.774 160.499 261.298 160.21 261.298 159.606C261.298 159.086 260.795 158.591 260.232 158.591Z" fill="white"/>
<path d="M291.49 155.787C293.912 155.787 295.564 156.74 297.127 158.11L294.644 160.932C293.661 159.834 292.494 159.523 291.49 159.523C289.213 159.523 287.733 161.181 287.733 163.277C287.733 165.373 289.217 167.031 291.49 167.031C292.494 167.031 293.661 166.721 294.644 165.623L297.127 168.444C295.56 169.814 293.912 170.768 291.49 170.768C286.561 170.768 283.346 167.324 283.346 163.281C283.346 159.239 286.561 155.791 291.49 155.791V155.787Z" fill="white"/>
<path d="M386.36 155.787C388.783 155.787 390.435 156.74 391.998 158.11L389.514 160.932C388.532 159.834 387.364 159.523 386.36 159.523C384.083 159.523 382.604 161.181 382.604 163.277C382.604 165.373 384.088 167.031 386.36 167.031C387.364 167.031 388.532 166.721 389.514 165.623L391.998 168.444C390.43 169.814 388.783 170.768 386.36 170.768C381.432 170.768 378.217 167.324 378.217 163.281C378.217 159.239 381.432 155.791 386.36 155.791V155.787Z" fill="white"/>
<path fill-rule="evenodd" clip-rule="evenodd" d="M309.592 155.787C314.52 155.787 317.484 159.23 317.484 163.277C317.484 167.324 314.52 170.764 309.592 170.764C304.663 170.764 301.699 167.32 301.699 163.277C301.699 159.23 304.663 155.787 309.592 155.787ZM309.596 159.523C307.363 159.523 306.09 161.243 306.09 163.277C306.09 165.312 307.363 167.031 309.596 167.031C311.829 167.031 313.102 165.307 313.102 163.277C313.102 161.243 311.829 159.523 309.596 159.523Z" fill="white"/>
<path fill-rule="evenodd" clip-rule="evenodd" d="M181.521 156.014C184.925 156.014 186.74 158.399 186.74 161.177C186.74 163.955 184.903 166.095 181.521 166.095H178.808V170.536H174.421V156.014H181.521ZM178.808 162.634H181.063C181.816 162.634 182.358 161.929 182.358 161.225C182.358 160.459 181.816 159.75 181.063 159.75H178.808V162.634Z" fill="white"/>
<path d="M196.954 166.799H203.512L203.508 166.804V170.536H192.567V156.014H196.954V166.799Z" fill="white"/>
<path fill-rule="evenodd" clip-rule="evenodd" d="M223.301 170.536H218.645L217.707 168.108H213.365L212.488 170.536H207.956L213.616 156.014H217.496L223.301 170.536ZM214.048 164.703H216.972L215.571 160.617L214.048 164.703Z" fill="white"/>
<path d="M232.986 160.993L236.078 156.014H240.879V156.618L235.18 164.603V170.536H230.793V164.686L225.094 156.618V156.014H229.916L232.986 160.993Z" fill="white"/>
<path d="M331.763 162.818V156.014H336.15V170.536H332.746L327.861 163.61V170.536H323.47V156.014H326.897L331.763 162.818Z" fill="white"/>
<path d="M351.16 162.818V156.014H355.547V170.536H352.143L347.258 163.61V170.536H342.867V156.014H346.294L351.16 162.818Z" fill="white"/>
<path d="M408.946 159.75H404.982V170.536H400.679V159.75H396.794V156.019H408.946V159.75Z" fill="white"/>
<path d="M372.892 159.746H366.646V161.632H372.095V164.953H366.646V166.799H372.892V170.532H362.264V156.014H372.892V159.746Z" fill="white"/>
<path d="M343.907 109.653L362.295 88.8569H378.904L378.547 90.8562L357.64 112.252L362.485 122.95C364.18 126.45 365.797 127.548 368.712 127.548C369.818 127.548 372.526 127.049 374.566 125.75L378.34 136.246C372.985 140.346 367.99 141.247 363.964 141.247C358.128 141.247 353.129 139.348 350.051 133.45L342.63 116.854L338.493 140.149H323.497L336.327 67.8595H351.323L343.907 109.653Z" fill="white"/>
<path d="M303.007 87.7584C308.341 87.7584 315.093 88.8567 322.796 95.3584L314.018 106.258C309.786 101.76 303.954 101.16 301.338 101.16C292.582 101.161 285.769 106.66 284.386 114.457C283.003 122.254 287.861 127.753 296.621 127.754C299.237 127.754 305.284 127.154 311.111 122.657L316.023 133.556C306.011 140.053 298.871 141.155 293.538 141.155C275.823 141.155 266.693 129.657 269.388 114.461C272.084 99.2657 285.297 87.7674 303.012 87.7674L303.007 87.7584Z" fill="white"/>
<path fill-rule="evenodd" clip-rule="evenodd" d="M220.178 70.1609C234.77 70.1609 240.945 80.758 238.761 93.0571C236.576 105.356 226.631 115.455 212.14 115.455H196.844L192.462 140.149H176.861L189.286 70.1609H220.178ZM199.011 103.256H212.294C217.831 103.256 222.015 98.9552 223.081 92.9567C224.182 86.7569 221.522 82.4602 215.986 82.4601H202.702L199.011 103.256Z" fill="white"/>
<path d="M254.96 140.149H239.963L249.067 88.8569H264.064L254.96 140.149Z" fill="white"/>
<path d="M398.887 140.149H383.89L392.994 88.8569H407.99L398.887 140.149Z" fill="white"/>
<path d="M260.637 66.7614C265.971 66.7615 269.578 70.2617 268.688 75.2583C267.82 80.1586 262.989 83.5582 257.655 83.5582C252.322 83.5582 248.798 80.1586 249.666 75.2583C250.551 70.2573 255.202 66.7614 260.637 66.7614Z" fill="white"/>
<path d="M404.564 66.7614C409.897 66.7614 413.505 70.2617 412.615 75.2583C411.747 80.1586 406.916 83.5582 401.582 83.5582C396.248 83.5582 392.725 80.1587 393.593 75.2583C394.478 70.2573 399.129 66.7615 404.564 66.7614Z" fill="white"/>
<path fill-rule="evenodd" clip-rule="evenodd" d="M109.315 60.7181C110.216 60.7181 111.105 60.779 111.97 60.8964C121.637 62.1811 129.091 70.4083 129.091 80.3635C129.091 91.213 120.237 100.009 109.315 100.009C99.1454 100.009 90.7683 92.3837 89.6659 82.5725C89.582 81.8488 89.54 81.11 89.5399 80.3635C89.5399 69.514 98.3939 60.7181 109.315 60.7181ZM109.315 95.6428C107.793 95.6429 106.561 96.2834 106.561 97.0754C106.561 97.8674 107.793 98.5079 109.315 98.508C110.834 98.508 112.07 97.8636 112.07 97.0754C112.07 96.2872 110.838 95.6428 109.315 95.6428ZM99.3629 89.6365C98.8135 88.2268 97.4594 87.4348 96.3379 87.8668C95.2164 88.2988 94.7548 89.7918 95.3041 91.2016C95.8535 92.6112 97.2076 93.4032 98.3291 92.9713C99.4506 92.5393 99.9122 91.0462 99.3629 89.6365ZM122.293 87.8668C121.172 87.4348 119.817 88.2268 119.268 89.6365C118.719 91.0462 119.181 92.5393 120.302 92.9713C121.424 93.4032 122.778 92.6112 123.327 91.2016C123.876 89.7919 123.415 88.2989 122.293 87.8668ZM109.315 86.3321C107.896 86.3322 106.748 87.5561 106.748 89.0681C106.748 90.58 107.896 91.804 109.315 91.804C110.734 91.804 111.883 90.5801 111.883 89.0681C111.883 87.556 110.735 86.3321 109.315 86.3321ZM92.4621 77.6313C91.6648 77.6313 91.02 78.8552 91.02 80.3672C91.02 80.6476 91.0429 80.9167 91.0848 81.1744C91.2641 82.2923 91.8136 83.1032 92.4621 83.1032C93.2555 83.1032 93.9041 81.8792 93.9042 80.3672C93.9042 79.7382 93.7935 79.1583 93.6028 78.696C93.3396 78.0479 92.9237 77.6313 92.4621 77.6313ZM102.659 77.6313C101.137 77.6313 99.9045 78.8552 99.9045 80.3672C99.9046 81.8792 101.137 83.1032 102.659 83.1032C104.177 83.1031 105.413 81.8792 105.413 80.3672C105.413 78.8552 104.181 77.6313 102.659 77.6313ZM115.976 77.6313C114.454 77.6313 113.222 78.8552 113.222 80.3672C113.222 81.8792 114.454 83.1031 115.976 83.1032C117.494 83.1032 118.73 81.8792 118.73 80.3672C118.73 78.8552 117.498 77.6313 115.976 77.6313ZM126.169 77.6313C125.372 77.6313 124.727 78.8552 124.727 80.3672C124.727 81.8792 125.372 83.1032 126.169 83.1032C126.963 83.1031 127.611 81.8791 127.611 80.3672C127.611 78.8553 126.966 77.6314 126.169 77.6313ZM109.315 68.9263C107.896 68.9264 106.748 70.1507 106.748 71.6627C106.748 73.1746 107.896 74.3986 109.315 74.3986C110.734 74.3986 111.883 73.1746 111.883 71.6627C111.883 70.1506 110.735 68.9263 109.315 68.9263ZM98.3291 67.7632C97.2076 67.3312 95.8535 68.1232 95.3041 69.5329C94.7549 70.9426 95.2164 72.4356 96.3379 72.8676C97.4594 73.2996 98.8135 72.5076 99.3629 71.0979C99.9122 69.6882 99.4506 68.1952 98.3291 67.7632ZM123.327 69.5329C122.778 68.1232 121.424 67.3313 120.302 67.7632C119.181 68.1952 118.719 69.6882 119.268 71.0979C119.817 72.5076 121.172 73.2996 122.293 72.8676C123.415 72.4356 123.876 70.9426 123.327 69.5329ZM109.315 62.2228C107.794 62.2228 106.561 62.863 106.561 63.655C106.561 64.159 107.061 64.6024 107.816 64.8525C108.247 65.0041 108.762 65.0875 109.315 65.0875C110.834 65.0875 112.07 64.447 112.07 63.655C112.07 63.0715 111.395 62.5677 110.433 62.3479C110.094 62.2683 109.712 62.2228 109.315 62.2228Z" fill="white"/>
<path fill-rule="evenodd" clip-rule="evenodd" d="M114.633 58.4066C121.446 52.366 129.48 50.6682 138.227 54.181C140.852 55.2345 143.293 57.1104 145.376 59.0734C151.327 64.6744 156.874 70.7038 162.905 76.2139C172.827 85.2785 171.126 100.228 164.354 108.175C160.956 112.166 157.11 115.788 153.437 119.544C148.386 124.705 143.293 129.825 138.239 134.986C132.284 141.065 125.208 144.513 116.453 144.547H116.449C112.203 143.85 107.923 143.304 103.716 142.425C96.7994 140.974 91.024 142.585 86.0534 147.708C78.3782 155.621 70.497 163.329 62.7035 171.128C60.8495 172.981 58.6444 174.383 56.0694 173.185C52.5866 171.563 49.9584 168.827 48.9094 165.072C48.2762 162.817 49.6303 160.937 51.2019 159.357C55.4515 155.094 59.7166 150.849 63.9738 146.594C67.3765 143.187 70.8135 139.814 74.1667 136.358C79.5149 130.844 81.1094 124.41 78.9351 117.016C77.1116 110.82 76.2266 104.567 78.4277 98.2426C80.0108 93.6951 82.4676 89.6555 85.8932 86.2866C86.29 85.8963 86.6867 85.5057 87.0835 85.1116C86.7516 83.5844 86.5798 81.9967 86.5798 80.3672C86.5798 67.8958 96.7574 57.7812 109.315 57.7811C111.146 57.7811 112.928 57.9973 114.633 58.4066ZM109.315 59.2022C97.5699 59.2023 88.0141 68.6955 88.0141 80.3635C88.0141 81.5686 88.1172 82.751 88.3117 83.9029C90.0131 93.8922 98.7831 101.524 109.315 101.524C121.061 101.524 130.617 92.0316 130.617 80.3635C130.617 70.0673 123.178 61.4687 113.359 59.5852C112.051 59.3351 110.7 59.2022 109.315 59.2022Z" fill="white"/>
</svg>
