<svg width="35" height="35" viewBox="0 0 35 35" fill="none" xmlns="http://www.w3.org/2000/svg">
<path fill-rule="evenodd" clip-rule="evenodd" d="M17.0826 2.36402C17.3365 2.36402 17.5872 2.38127 17.8314 2.41453C20.5579 2.77833 22.6603 5.10816 22.6603 7.92734C22.6602 10.9998 20.163 13.4906 17.0826 13.4906C14.2141 13.4905 11.8513 11.3313 11.5404 8.55289C11.5167 8.34795 11.5049 8.13871 11.5049 7.92734C11.5049 4.85491 14.0021 2.36404 17.0826 2.36402ZM17.0826 12.2542C16.6533 12.2542 16.3058 12.4356 16.3058 12.6599C16.3058 12.8842 16.6533 13.0656 17.0826 13.0656C17.5108 13.0656 17.8595 12.8831 17.8595 12.6599C17.8595 12.4367 17.5119 12.2542 17.0826 12.2542ZM14.2754 10.5533C14.1205 10.1541 13.7386 9.92983 13.4222 10.0522C13.1059 10.1745 12.9757 10.5973 13.1307 10.9965C13.2856 11.3957 13.6675 11.62 13.9838 11.4977C14.3002 11.3753 14.4304 10.9525 14.2754 10.5533ZM20.743 10.0522C20.4267 9.92982 20.0446 10.1541 19.8897 10.5533C19.7348 10.9525 19.8651 11.3753 20.1814 11.4977C20.4977 11.62 20.8796 11.3957 21.0346 10.9965C21.1895 10.5973 21.0593 10.1745 20.743 10.0522ZM17.0826 9.61755C16.6823 9.61758 16.3585 9.96417 16.3585 10.3923C16.3585 10.8205 16.6823 11.1671 17.0826 11.1671C17.4828 11.1671 17.8067 10.8205 17.8067 10.3923C17.8067 9.96415 17.4828 9.61755 17.0826 9.61755ZM12.3291 7.1536C12.1042 7.1536 11.9223 7.5002 11.9223 7.92838C11.9223 8.00779 11.9288 8.08399 11.9406 8.15695C11.9912 8.47353 12.1461 8.70317 12.3291 8.70317C12.5528 8.70317 12.7358 8.35656 12.7358 7.92838C12.7358 7.75025 12.7046 7.58603 12.6508 7.45511C12.5765 7.2716 12.4592 7.1536 12.3291 7.1536ZM15.2051 7.1536C14.7758 7.1536 14.4282 7.5002 14.4282 7.92838C14.4282 8.35656 14.7758 8.70317 15.2051 8.70317C15.6333 8.70315 15.9819 8.35655 15.9819 7.92838C15.9819 7.50021 15.6344 7.15362 15.2051 7.1536ZM18.9612 7.1536C18.5319 7.15362 18.1844 7.50021 18.1844 7.92838C18.1844 8.35655 18.5319 8.70315 18.9612 8.70317C19.3894 8.70317 19.7381 8.35656 19.7381 7.92838C19.7381 7.5002 19.3905 7.1536 18.9612 7.1536ZM21.8362 7.1536C21.6113 7.1536 21.4294 7.5002 21.4294 7.92838C21.4294 8.35656 21.6113 8.70317 21.8362 8.70317C22.0599 8.70313 22.2428 8.35654 22.2428 7.92838C22.2428 7.50022 22.061 7.15363 21.8362 7.1536ZM17.0826 4.68849C16.6823 4.68851 16.3585 5.0352 16.3585 5.46338C16.3585 5.89153 16.6823 6.23815 17.0826 6.23817C17.4828 6.23817 17.8067 5.89154 17.8067 5.46338C17.8067 5.03519 17.4828 4.68849 17.0826 4.68849ZM13.9838 4.3591C13.6675 4.23676 13.2856 4.46104 13.1307 4.86025C12.9757 5.25946 13.1059 5.68227 13.4222 5.80461C13.7385 5.92693 14.1205 5.70264 14.2754 5.30345C14.4304 4.90424 14.3002 4.48144 13.9838 4.3591ZM21.0346 4.86025C20.8796 4.46105 20.4977 4.23678 20.1814 4.3591C19.865 4.48144 19.7348 4.90424 19.8897 5.30345C20.0446 5.70266 20.4267 5.92695 20.743 5.80461C21.0593 5.68227 21.1895 5.25945 21.0346 4.86025ZM17.0826 2.79013C16.6533 2.79014 16.3058 2.97145 16.3058 3.19571C16.3058 3.33844 16.4467 3.46402 16.6597 3.53484C16.7813 3.57777 16.9266 3.60139 17.0826 3.60139C17.5108 3.60139 17.8595 3.42 17.8595 3.19571C17.8594 3.03047 17.669 2.8878 17.3979 2.82556C17.3021 2.80302 17.1945 2.79013 17.0826 2.79013Z" fill="#D72D36"/>
<path fill-rule="evenodd" clip-rule="evenodd" d="M18.5825 1.70943C20.5041 -0.0011614 22.77 -0.481971 25.2372 0.512825C25.9774 0.811161 26.6661 1.34239 27.2535 1.89828C28.932 3.48441 30.4965 5.19185 32.1975 6.75221C34.9961 9.3192 34.5162 13.5528 32.6064 15.8032C31.6477 16.9332 30.5631 17.9591 29.527 19.0226C28.1024 20.4843 26.6661 21.9341 25.2404 23.3957C23.5609 25.1171 21.565 26.0936 19.0957 26.1033H19.0946C17.8971 25.9058 16.6899 25.7513 15.5031 25.5023C13.5524 25.0913 11.9234 25.5475 10.5215 26.9984C8.35667 29.2391 6.13376 31.4219 3.9356 33.6304C3.41269 34.1552 2.79072 34.5522 2.06445 34.2131C1.08213 33.7538 0.340832 32.979 0.0449488 31.9155C-0.133649 31.277 0.248281 30.7447 0.691569 30.2972C1.89017 29.0899 3.09314 27.888 4.2939 26.6828C5.25363 25.718 6.22305 24.7629 7.1688 23.7842C8.67728 22.2228 9.12702 20.4006 8.51374 18.3069C7.99944 16.5523 7.74981 14.7815 8.37063 12.9904C8.81715 11.7027 9.51009 10.5587 10.4763 9.60466C10.5882 9.49413 10.7001 9.38353 10.812 9.27192C10.7184 8.83945 10.6699 8.38983 10.6699 7.92838C10.6699 4.39665 13.5406 1.53234 17.0826 1.53232C17.599 1.53232 18.1015 1.59353 18.5825 1.70943ZM17.0826 1.93475C13.7697 1.93477 11.0745 4.62311 11.0745 7.92734C11.0745 8.26858 11.1036 8.60342 11.1584 8.92965C11.6383 11.7585 14.1119 13.9198 17.0826 13.9198C20.3954 13.9198 23.0906 11.2316 23.0906 7.92734C23.0906 5.01159 20.9926 2.57659 18.2231 2.04322C17.8541 1.97239 17.4731 1.93475 17.0826 1.93475Z" fill="#D72D36"/>
</svg>
