<svg viewBox="0 0 12 12" fill="none" xmlns="http://www.w3.org/2000/svg">
<path d="M6 1C3.24 1 1 3.24 1 6C1 8.76 3.24 11 6 11C8.76 11 11 8.76 11 6C11 3.24 8.76 1 6 1ZM6.44 8.88V9.5H5.565V8.855C5.195 8.765 4.37 8.47 4.055 7.375L4.88 7.04C4.91 7.15 5.17 8.085 6.08 8.085C6.545 8.085 7.07 7.845 7.07 7.28C7.07 6.8 6.72 6.55 5.93 6.265C5.38 6.07 4.255 5.75 4.255 4.61C4.255 4.56 4.26 3.41 5.565 3.13V2.5H6.44V3.12C7.36 3.28 7.695 4.015 7.77 4.235L6.98 4.57C6.925 4.395 6.685 3.9 6.03 3.9C5.68 3.9 5.125 4.085 5.125 4.595C5.125 5.07 5.555 5.25 6.445 5.545C7.645 5.96 7.95 6.57 7.95 7.27C7.95 8.585 6.7 8.835 6.44 8.88Z" fill="currentColor"/>
</svg>
