<svg width="23" height="23" viewBox="0 0 23 23" fill="none" xmlns="http://www.w3.org/2000/svg">
<path d="M7.03834 3.5565L5.71048 2.22864C3.48191 3.92793 2.01477 6.5465 1.88477 9.51793H3.74191C3.88119 7.05721 5.14405 4.90293 7.03834 3.5565ZM18.5433 9.51793H20.4005C20.2612 6.5465 18.7941 3.92793 16.5748 2.22864L15.2562 3.5565C17.1319 4.90293 18.404 7.05721 18.5433 9.51793ZM16.7141 9.98221C16.7141 7.1315 15.1912 4.74507 12.5355 4.11364V3.48221C12.5355 2.7115 11.9133 2.08936 11.1426 2.08936C10.3719 2.08936 9.74977 2.7115 9.74977 3.48221V4.11364C7.08477 4.74507 5.57119 7.12221 5.57119 9.98221V14.6251L3.71405 16.4822V17.4108H18.5712V16.4822L16.7141 14.6251V9.98221ZM11.1426 20.1965C11.2726 20.1965 11.3933 20.1872 11.5141 20.1594C12.1176 20.0294 12.6098 19.6208 12.8512 19.0636C12.9441 18.8408 12.9905 18.5994 12.9905 18.3394H9.27619C9.28548 19.3608 10.1119 20.1965 11.1426 20.1965Z" fill="currentColor"/>
</svg>
