<svg viewBox="0 0 20 20" fill="none" xmlns="http://www.w3.org/2000/svg">
<path d="M8.74984 10.8333V7.5C8.74984 7.04167 8.37484 6.66667 7.9165 6.66667H4.58317V5H8.74984V3.33333H6.6665V2.5H4.99984V3.33333H3.74984C3.2915 3.33333 2.9165 3.70833 2.9165 4.16667V7.5C2.9165 7.95833 3.2915 8.33333 3.74984 8.33333H7.08317V10H2.9165V11.6667H4.99984V12.5H6.6665V11.6667H7.9165C8.37484 11.6667 8.74984 11.2917 8.74984 10.8333Z" fill="currentColor"/>
<path d="M15.9082 10.4333L11.1915 15.1417L8.83317 12.7833L7.65817 13.9667L11.1915 17.5L17.0832 11.6083L15.9082 10.4333Z" fill="currentColor"/>
</svg>
