<svg viewBox="0 0 24 24" fill="none" xmlns="http://www.w3.org/2000/svg">
<path d="M15.8684 7.86377C16.2019 7.86377 16.5354 7.86377 16.8696 7.86377C16.8642 9.81383 16.8642 11.7647 16.8696 13.7147C16.5431 13.6689 15.9998 13.8777 15.8769 13.4439C15.8567 11.5846 15.8754 9.72381 15.8684 7.86377Z" fill="currentColor"/>
<path d="M5.67036 7.933C7.22202 7.93144 8.77212 7.92136 10.323 7.93222C10.3121 8.23563 10.295 8.5662 10.0913 8.81142C9.03099 10.129 7.99318 11.4637 6.93361 12.7814C8.06004 12.7884 9.18647 12.7837 10.3129 12.7837C10.2919 13.0468 10.3844 13.3533 10.2134 13.5814C10.1061 13.7289 9.91177 13.7157 9.75085 13.7172C8.34145 13.7095 6.93206 13.7242 5.52344 13.7095C5.52732 13.4123 5.53043 13.0832 5.73877 12.8466C6.78668 11.5344 7.84704 10.2315 8.89028 8.91617C7.81827 8.91773 6.74548 8.90919 5.67347 8.92083C5.66648 8.59181 5.66881 8.26202 5.67036 7.933Z" fill="currentColor"/>
<path d="M19.3552 9.22408C20.4715 8.97499 21.6827 9.70674 21.9882 10.804C22.3714 11.9455 21.6718 13.3027 20.5158 13.6503C19.534 13.9956 18.3586 13.5448 17.8494 12.6415C17.4498 11.9742 17.4257 11.1004 17.7888 10.4137C18.0966 9.80762 18.6913 9.36453 19.3552 9.22408ZM19.3365 10.2127C18.6556 10.4525 18.2886 11.2797 18.5545 11.9478C18.7745 12.5795 19.5153 12.9659 20.159 12.7719C20.8936 12.5965 21.3375 11.7375 21.0771 11.0337C20.8594 10.3368 20.016 9.93488 19.3365 10.2127Z" fill="currentColor"/>
<path d="M11.0819 10.0368C11.619 9.37258 12.5597 9.04512 13.3883 9.28179C13.662 9.35086 13.91 9.48743 14.1494 9.63254C14.1471 9.5596 14.1416 9.41449 14.1393 9.34154C14.4526 9.33999 14.7651 9.34077 15.0784 9.33922C15.0768 10.7981 15.0753 12.2569 15.0792 13.7166C14.8491 13.7104 14.6151 13.7375 14.3888 13.691C14.2303 13.6266 14.1813 13.4535 14.1183 13.3123C13.2539 13.9827 11.8958 13.8306 11.1775 13.0143C10.4117 12.2236 10.3721 10.8764 11.0819 10.0368ZM12.3474 10.2324C11.6276 10.4854 11.2785 11.4111 11.6431 12.0785C11.9541 12.7287 12.8294 13.0019 13.4552 12.6434C14.0359 12.3392 14.3041 11.5842 14.0546 10.9804C13.8128 10.3239 12.9973 9.95613 12.3474 10.2324Z" fill="currentColor"/>
<path d="M6.9498 0.00876028L6.87851 0.07419C5.79012 0.785806 4.88721 1.76338 4.23496 2.88474C2.92753 5.12963 2.45116 7.7843 2.55918 10.3574C2.66646 12.4526 3.17072 14.5595 4.23886 16.3808C4.41764 16.7067 4.71458 16.9949 4.71933 17.3906C4.75276 18.2396 4.33235 19.0396 3.76328 19.6465C3.80052 19.6852 3.83737 19.7239 3.87461 19.7627C4.92059 19.8481 5.97417 19.6407 6.92929 19.2168C8.79968 20.4335 11.0227 21.0089 13.2281 21.1982C15.4335 21.3658 17.6808 21.1357 19.7789 20.4218C21.336 19.8802 22.8254 19.0426 23.9332 17.8056L23.9947 17.7392C24.0266 18.9521 23.8947 20.2175 23.2984 21.2968C22.6051 22.5631 21.3478 23.5035 19.9332 23.8047C19.1395 23.9684 18.3247 24.0052 17.5162 23.9951C15.0296 23.9959 12.5429 23.9953 10.0562 23.9961C9.3415 23.9844 8.62511 24.0176 7.91269 23.9804C6.66021 23.9991 5.39258 24.0576 4.15488 23.8242C2.59645 23.5222 1.21317 22.4435 0.552341 21.0019C0.152033 20.1686 0.0317031 19.2365 0.000583042 18.3232C-0.000194363 14.1064 -0.000194332 9.88986 0.000583042 5.6738C0.0176863 4.26454 0.391806 2.78942 1.38535 1.74411C2.17207 0.858817 3.28617 0.283054 4.45761 0.120088C5.28079 -0.00949093 6.11807 -0.00985682 6.9498 0.00876028Z" fill="currentColor"/>
</svg>
