<svg width="68" height="30" viewBox="0 0 68 30" fill="none" xmlns="http://www.w3.org/2000/svg">
<path fill-rule="evenodd" clip-rule="evenodd" d="M24.2665 25.2119C25.0727 25.2119 25.4801 25.6877 25.4801 26.1461C25.4801 26.5401 25.1385 26.9453 24.6788 27.1274L25.0441 27.5029L25.4863 27.0915H26.4578V27.2848L25.592 28.1311C25.7808 28.3665 25.9099 28.4607 26.0453 28.4607C26.1273 28.4607 26.2628 28.4371 26.505 28.2314L26.9113 28.9661C26.6343 29.2362 26.3162 29.4531 25.9274 29.4532C25.592 29.4532 25.3025 29.3181 25.0913 29.1422L25.0925 29.1409C24.7745 29.3527 24.3981 29.4519 23.9434 29.4519C23.095 29.4519 22.3832 28.9822 22.3832 28.2066C22.3832 27.6429 22.8192 27.1783 23.4192 26.9912C23.136 26.8202 22.9124 26.5216 22.9124 26.2217C22.9124 25.5465 23.4603 25.2119 24.2665 25.2119ZM23.8317 27.7011C23.5907 27.8361 23.5248 28.0419 23.5248 28.1472L23.5261 28.1484C23.5261 28.3541 23.7025 28.5239 24.0031 28.5239C24.1273 28.5239 24.3037 28.4879 24.4329 28.3764L23.8317 27.7011ZM24.203 26.0049C23.9857 26.0049 23.9199 26.1697 23.9199 26.2924C23.9199 26.4448 24.0081 26.5278 24.1373 26.6393H24.1385C24.3559 26.5451 24.5038 26.4634 24.5038 26.2924C24.5038 26.145 24.3621 26.0049 24.203 26.0049Z" fill="#D72D36"/>
<path d="M33.0195 25.2107C33.7027 25.2107 34.1686 25.4807 34.6096 25.8685L33.909 26.6677C33.6319 26.3568 33.3027 26.2688 33.0195 26.2688C32.3772 26.2688 31.9598 26.7384 31.9598 27.3319C31.9598 27.9254 32.3785 28.395 33.0195 28.395C33.3027 28.395 33.6319 28.3071 33.909 27.9961L34.6096 28.7952C34.1673 29.183 33.7027 29.4531 33.0195 29.4532C31.6294 29.4532 30.7225 28.478 30.7225 27.3331C30.7225 26.1883 31.6294 25.2119 33.0195 25.2119V25.2107Z" fill="#D72D36"/>
<path d="M59.7778 25.2107C60.461 25.2107 60.927 25.4807 61.368 25.8685L60.6673 26.6677C60.3902 26.3568 60.061 26.2688 59.7778 26.2688C59.1355 26.2688 58.7182 26.7384 58.7182 27.3319C58.7182 27.9254 59.1368 28.395 59.7778 28.395C60.061 28.395 60.3902 28.307 60.6673 27.9961L61.368 28.7952C60.9257 29.183 60.461 29.4532 59.7778 29.4532C58.3877 29.4531 57.4809 28.478 57.4809 27.3331C57.4809 26.1883 58.3877 25.2119 59.7778 25.2119V25.2107Z" fill="#D72D36"/>
<path fill-rule="evenodd" clip-rule="evenodd" d="M38.1251 25.2107C39.5152 25.2107 40.3513 26.1858 40.3513 27.3319C40.3513 28.478 39.5152 29.4519 38.1251 29.4519C36.735 29.4519 35.899 28.4768 35.899 27.3319C35.899 26.1858 36.735 25.2107 38.1251 25.2107ZM38.1263 26.2688C37.4965 26.2688 37.1375 26.7558 37.1375 27.3319C37.1375 27.908 37.4965 28.395 38.1263 28.395C38.7562 28.395 39.1152 27.9068 39.1152 27.3319C39.1152 26.7558 38.7562 26.2688 38.1263 26.2688Z" fill="#D72D36"/>
<path fill-rule="evenodd" clip-rule="evenodd" d="M2.00254 25.2752C2.96281 25.2752 3.4747 25.9504 3.4747 26.7372C3.47468 27.524 2.95659 28.1298 2.00254 28.1298H1.23741V29.3875H0V25.2752H2.00254ZM1.23741 27.1498H1.87334C2.08577 27.1498 2.23862 26.9502 2.23862 26.7507C2.23861 26.5339 2.08576 26.3332 1.87334 26.3332H1.23741V27.1498Z" fill="#D72D36"/>
<path d="M6.35544 28.3293H8.20525L8.20392 28.3305V29.3875H5.11815V25.2752H6.35544V28.3293Z" fill="#D72D36"/>
<path fill-rule="evenodd" clip-rule="evenodd" d="M13.7867 29.3875H12.4736L12.209 28.6998H10.9842L10.737 29.3875H9.45868L11.0549 25.2752H12.1494L13.7867 29.3875ZM11.1767 27.7358H12.0016L11.6066 26.5786L11.1767 27.7358Z" fill="#D72D36"/>
<path d="M16.5185 26.6852L17.3905 25.2752H18.7446V25.4461L17.1371 27.7074V29.3875H15.8998V27.7308L14.2923 25.4461V25.2752H15.6525L16.5185 26.6852Z" fill="#D72D36"/>
<path d="M44.3787 27.2018V25.2752H45.616V29.3875H44.6558L43.2781 27.426V29.3875H42.0395V25.2752H43.006L44.3787 27.2018Z" fill="#D72D36"/>
<path d="M49.8496 27.2018V25.2752H51.0869V29.3875H50.1267L48.749 27.426V29.3875H47.5104V25.2752H48.4769L49.8496 27.2018Z" fill="#D72D36"/>
<path d="M66.1481 26.3332H65.0301V29.3875H63.8165V26.3332H62.7208V25.2764H66.1481V26.3332Z" fill="#D72D36"/>
<path d="M55.9789 26.332H54.2174V26.8661H55.7541V27.8065H54.2174V28.3293H55.9789V29.3862H52.9814V25.2752H55.9789V26.332Z" fill="#D72D36"/>
<path d="M47.8036 12.1462L52.9901 6.25714H57.6747L57.5741 6.8233L51.6771 12.8822L53.0436 15.9117C53.5219 16.9029 53.9777 17.2139 54.8001 17.2139C55.1119 17.2139 55.8759 17.0726 56.4511 16.7046L57.5157 19.6771C56.0051 20.8381 54.5963 21.0933 53.4609 21.0933C51.8149 21.0933 50.405 20.5556 49.5366 18.8854L47.4435 14.1856L46.2769 20.7823H42.047L45.6657 0.310969H49.8956L47.8036 12.1462Z" fill="#D72D36"/>
<path d="M36.2679 5.94605C37.7723 5.94605 39.6768 6.25706 41.8495 8.09827L39.3736 11.1847C38.1798 9.91103 36.535 9.74133 35.7971 9.74133C33.3275 9.74135 31.4058 11.2988 31.0157 13.5067C30.6257 15.7147 31.9958 17.2721 34.4666 17.2721C35.2045 17.2721 36.9102 17.1024 38.5537 15.8287L39.9389 18.9152C37.1152 20.7551 35.1014 21.0673 33.5971 21.0673C28.6007 21.0672 26.0254 17.8111 26.7857 13.5079C27.546 9.20476 31.2729 5.94859 36.2693 5.94859L36.2679 5.94605Z" fill="#D72D36"/>
<path fill-rule="evenodd" clip-rule="evenodd" d="M12.906 0.962674C17.0216 0.962681 18.7633 3.96364 18.1471 7.44657C17.531 10.9295 14.7259 13.7892 10.6388 13.7893H6.32439L5.08843 20.7823H0.68834L4.19276 0.962674H12.906ZM6.93569 10.3348H10.6823C12.2438 10.3348 13.4239 9.11682 13.7246 7.41813C14.0352 5.66244 13.2849 4.44568 11.7234 4.44565H7.97669L6.93569 10.3348Z" fill="#D72D36"/>
<path d="M22.7161 20.7823H18.4862L21.054 6.25714H25.2838L22.7161 20.7823Z" fill="#D72D36"/>
<path d="M63.3108 20.7823H59.0809L61.6487 6.25714H65.8786L63.3108 20.7823Z" fill="#D72D36"/>
<path d="M24.3174 0C25.8218 1.99835e-05 26.8391 0.991235 26.5882 2.4062C26.3435 3.7939 24.9807 4.75662 23.4764 4.75662C21.972 4.75662 20.9782 3.79391 21.2229 2.4062C21.4726 0.989981 22.7845 0 24.3174 0Z" fill="#D72D36"/>
<path d="M64.9121 0C66.4164 0 67.4339 0.99122 67.183 2.4062C66.9382 3.7939 65.5755 4.75661 64.0711 4.75662C62.5667 4.75662 61.573 3.79391 61.8177 2.4062C62.0674 0.989991 63.3791 1.30583e-05 64.9121 0Z" fill="#D72D36"/>
</svg>
