<svg width="16" height="16" viewBox="0 0 16 16" fill="none" xmlns="http://www.w3.org/2000/svg">
<path d="M6.33329 7.33317C7.61996 7.33317 8.66663 8.37984 8.66663 9.6665C8.66663 10.9532 7.61996 11.9998 6.33329 11.9998C5.04663 11.9998 3.99996 10.9532 3.99996 9.6665C3.99996 8.37984 5.04663 7.33317 6.33329 7.33317ZM6.33329 5.99984C4.30663 5.99984 2.66663 7.63984 2.66663 9.6665C2.66663 11.6932 4.30663 13.3332 6.33329 13.3332C8.35996 13.3332 9.99996 11.6932 9.99996 9.6665C9.99996 8.89317 9.75996 8.17984 9.35329 7.5865L12 4.9465V6.6665H13.3333V2.6665H9.33329V3.99984H11.0533L8.40663 6.6465C7.81996 6.23984 7.10663 5.99984 6.33329 5.99984Z" fill="#6B6F80"/>
</svg>
