<svg width="48" height="48" viewBox="0 0 48 48" fill="none" xmlns="http://www.w3.org/2000/svg">
<path d="M24 35.48C27.3137 35.48 30 30.3402 30 24C30 17.6598 27.3137 12.52 24 12.52C20.6863 12.52 18 17.6598 18 24C18 30.3402 20.6863 35.48 24 35.48Z" fill="#141519"/>
<path d="M15 24C15 22.06 15.46 15.68 21.06 11C19.5 10.38 17.8 10 16 10C8.28 10 2 16.28 2 24C2 31.72 8.28 38 16 38C17.8 38 19.5 37.62 21.06 37C15.46 32.32 15 25.94 15 24Z" fill="#141519"/>
<path d="M32 10C30.2 10 28.5 10.38 26.94 11C32.54 15.68 33 22.06 33 24C33 25.94 32.54 32.32 26.94 37C28.5 37.62 30.2 38 32 38C39.72 38 46 31.72 46 24C46 16.28 39.72 10 32 10Z" fill="#141519"/>
</svg>
