<svg width="40" height="40" viewBox="0 0 40 40" fill="none" xmlns="http://www.w3.org/2000/svg">
<path d="M20 3.33325C10.8 3.33325 3.33337 10.7999 3.33337 19.9999C3.33337 29.1999 10.8 36.6666 20 36.6666C29.2 36.6666 36.6667 29.1999 36.6667 19.9999C36.6667 10.7999 29.2 3.33325 20 3.33325ZM20 33.3333C12.65 33.3333 6.66671 27.3499 6.66671 19.9999C6.66671 12.6499 12.65 6.66659 20 6.66659C27.35 6.66659 33.3334 12.6499 33.3334 19.9999C33.3334 27.3499 27.35 33.3333 20 33.3333ZM20.5167 18.5666C17.5667 17.8166 16.6167 16.9999 16.6167 15.7833C16.6167 14.3833 17.9334 13.3999 20.1167 13.3999C22.4167 13.3999 23.2834 14.4999 23.35 16.1333H26.2C26.1167 13.8999 24.75 11.8499 22.05 11.1833V8.33325H18.1667V11.1499C15.65 11.6833 13.6334 13.3166 13.6334 15.8333C13.6334 18.8166 16.1167 20.3166 19.7334 21.1833C22.9834 21.9499 23.6334 23.0999 23.6334 24.2999C23.6334 25.1833 22.9834 26.6166 20.1334 26.6166C17.4667 26.6166 16.4167 25.4166 16.2667 23.8833H13.4C13.5667 26.7166 15.6667 28.3166 18.1667 28.8333V31.6666H22.0667V28.8833C24.6 28.3999 26.6 26.9499 26.6167 24.2666C26.6 20.5999 23.45 19.3333 20.5167 18.5666Z" fill="#D72D36"/>
</svg>
